<svg width="64" height="64" viewBox="0 0 64 64" fill="none" xmlns="http://www.w3.org/2000/svg">
<path d="M13 13.5C13 18.747 17.253 23 22.5 23H32V4H22.5C17.253 4 13 8.253 13 13.5Z" fill="#F24E1E"/>
<path d="M32 4V23H41.5C46.747 23 51 18.747 51 13.5C51 8.253 46.747 4 41.5 4H32Z" fill="#FF7262"/>
<path d="M13 32.5C13 37.747 17.253 42 22.5 42H32V23H22.5C17.253 23 13 27.253 13 32.5Z" fill="#A259FF"/>
<path d="M32 32.5C32 27.253 36.253 23 41.5 23C46.747 23 51 27.253 51 32.5C51 37.747 46.747 42 41.5 42C36.253 42 32 37.747 32 32.5Z" fill="#1ABCFE"/>
<path d="M13 51.5C13 46.253 17.253 42 22.5 42H32V51.5C32 56.747 27.747 61 22.5 61C17.253 61 13 56.747 13 51.5Z" fill="#0ACF83"/>
</svg>
