<svg width="64" height="64" viewBox="0 0 64 64" fill="none" xmlns="http://www.w3.org/2000/svg">
<path fill-rule="evenodd" clip-rule="evenodd" d="M32.0232 4C16.5271 4 4 16.8333 4 32.7098C4 45.4007 12.0265 56.1434 23.1615 59.9455C24.5536 60.2313 25.0636 59.3278 25.0636 58.5677C25.0636 57.9021 25.0177 55.6207 25.0177 53.2436C17.2223 54.9551 15.599 49.8212 15.599 49.8212C14.3462 46.4939 12.49 45.6387 12.49 45.6387C9.93859 43.88 12.6759 43.88 12.6759 43.88C15.5061 44.0702 16.9911 46.827 16.9911 46.827C19.4961 51.1996 23.5326 49.9641 25.1565 49.2035C25.3882 47.3497 26.131 46.0663 26.9198 45.3535C20.7024 44.6879 14.1609 42.2163 14.1609 31.1885C14.1609 28.0513 15.2737 25.4847 17.037 23.4885C16.7588 22.7757 15.7843 19.8281 17.3158 15.883C17.3158 15.883 19.6819 15.1224 25.0171 18.83C27.3013 18.2016 29.6569 17.8819 32.0232 17.8792C34.3893 17.8792 36.8013 18.2123 39.0287 18.83C44.3644 15.1224 46.7305 15.883 46.7305 15.883C48.2621 19.8281 47.2869 22.7757 47.0087 23.4885C48.8185 25.4847 49.8854 28.0513 49.8854 31.1885C49.8854 42.2163 43.3439 44.6401 37.0801 45.3535C38.1011 46.2565 38.9822 47.9674 38.9822 50.677C38.9822 54.527 38.9363 57.6169 38.9363 58.5671C38.9363 59.3278 39.4468 60.2313 40.8384 59.9461C51.9733 56.1428 59.9999 45.4007 59.9999 32.7098C60.0458 16.8333 47.4728 4 32.0232 4Z" fill="white"/>
</svg>
