<svg width="64" height="60" viewBox="0 0 64 60" fill="none" xmlns="http://www.w3.org/2000/svg">
<path fill-rule="evenodd" clip-rule="evenodd" d="M26.0901 37.3764L26.0883 21.3973L41.2188 29.4144L26.0901 37.3764ZM59.3121 18.6284C59.3121 18.6284 58.7643 14.7097 57.0861 12.984C54.9563 10.718 52.5693 10.7073 51.4756 10.5758C43.6391 9.99999 31.8843 10 31.8843 10H31.8598C31.8598 10 20.1051 9.99999 12.2686 10.5758C11.1731 10.7073 8.78783 10.718 6.65633 12.984C4.97808 14.7097 4.43207 18.6284 4.43207 18.6284C4.43207 18.6284 3.87207 23.2314 3.87207 27.8327V32.1478C3.87207 36.7508 4.43207 41.352 4.43207 41.352C4.43207 41.352 4.97808 45.2708 6.65633 46.9965C8.78783 49.2625 11.5861 49.1914 12.8321 49.4277C17.3121 49.8649 31.8721 50 31.8721 50C31.8721 50 43.6391 49.9822 51.4756 49.4064C52.5693 49.2731 54.9563 49.2625 57.0861 46.9965C58.7643 45.2708 59.3121 41.352 59.3121 41.352C59.3121 41.352 59.8721 36.7508 59.8721 32.1478V27.8327C59.8721 23.2314 59.3121 18.6284 59.3121 18.6284Z" fill="#CE1312"/>
<path d="M26.0901 37.3764L26.0883 21.3973L41.2188 29.4144L26.0901 37.3764Z" fill="white"/>
</svg>
