<svg width="24" height="24" viewBox="0 0 24 24" fill="none" xmlns="http://www.w3.org/2000/svg">
<path d="M12 2.04255C13.8043 2.04255 15.4809 2.49362 17.0298 3.39575C18.5277 4.28085 19.7191 5.47234 20.6043 6.97021C21.5064 8.51915 21.9574 10.1957 21.9574 12C21.9574 13.8043 21.5064 15.4809 20.6043 17.0298C19.7191 18.5277 18.5277 19.7191 17.0298 20.6043C15.4809 21.5064 13.8043 21.9574 12 21.9574C10.1957 21.9574 8.51915 21.5064 6.97021 20.6043C5.47234 19.7191 4.28085 18.5277 3.39574 17.0298C2.49362 15.4809 2.04255 13.8043 2.04255 12C2.04255 10.1957 2.49362 8.51915 3.39574 6.97021C4.28085 5.47234 5.47234 4.28085 6.97021 3.39575C8.51915 2.49362 10.1957 2.04255 12 2.04255ZM12 0C10.3489 0 8.8 0.310638 7.35319 0.931915C5.90638 1.55319 4.62979 2.41702 3.5234 3.52341C2.43404 4.57872 1.57447 5.84255 0.944681 7.31489C0.314894 8.78723 0 10.3489 0 12C0 13.6511 0.310638 15.2 0.931915 16.6468C1.55319 18.0936 2.41702 19.3702 3.5234 20.4766C4.57872 21.566 5.84255 22.4255 7.31489 23.0553C8.78723 23.6851 10.3489 24 12 24C13.6511 24 15.2 23.6894 16.6468 23.0681C18.0936 22.4468 19.3702 21.583 20.4766 20.4766C21.566 19.4213 22.4255 18.1574 23.0553 16.6851C23.6851 15.2128 24 13.6511 24 12C24 10.3489 23.6894 8.8 23.0681 7.35319C22.4468 5.90638 21.583 4.62979 20.4766 3.52341C19.4213 2.43404 18.1574 1.57447 16.6851 0.944681C15.2128 0.314894 13.6511 0 12 0ZM16.9021 12C16.9021 11.4723 16.7149 11.0213 16.3404 10.6468C15.966 10.2723 15.5149 10.0851 14.9872 10.0851C14.4596 10.0851 14.0085 10.2723 13.634 10.6468C13.2596 11.0213 13.0723 11.4723 13.0723 12C13.0723 12.5277 13.2596 12.9787 13.634 13.3532C14.0085 13.7277 14.4596 13.9149 14.9872 13.9149C15.5149 13.9149 15.966 13.7277 16.3404 13.3532C16.7149 12.9787 16.9021 12.5277 16.9021 12ZM12.4596 8.11915C12.4596 7.59149 12.2723 7.14043 11.8979 6.76596C11.5234 6.39149 11.0723 6.20426 10.5447 6.20426C10.017 6.20426 9.56596 6.39149 9.19149 6.76596C8.81702 7.14043 8.62979 7.59149 8.62979 8.11915C8.62979 8.64681 8.81702 9.09787 9.19149 9.47234C9.56596 9.84681 10.017 10.034 10.5447 10.034C11.0723 10.034 11.5234 9.84681 11.8979 9.47234C12.2723 9.09787 12.4596 8.64681 12.4596 8.11915ZM12.4596 15.8809C12.4596 15.3532 12.2723 14.9021 11.8979 14.5277C11.5234 14.1532 11.0723 13.966 10.5447 13.966C10.017 13.966 9.56596 14.1532 9.19149 14.5277C8.81702 14.9021 8.62979 15.3532 8.62979 15.8809C8.62979 16.4085 8.81702 16.8596 9.19149 17.234C9.56596 17.6085 10.0213 17.7957 10.5574 17.7957C11.0936 17.7957 11.5447 17.6085 11.9106 17.234C12.2766 16.8596 12.4596 16.4085 12.4596 15.8809Z" fill="white"/>
</svg>
