<svg width="25" height="24" viewBox="0 0 25 24" fill="none" xmlns="http://www.w3.org/2000/svg">
<path d="M12.5 19.7106C12.1426 19.7106 11.8404 19.5872 11.5936 19.3404C11.3468 19.0936 11.2234 18.7915 11.2234 18.434V5.56596C11.2234 5.20851 11.3468 4.90638 11.5936 4.65957C11.8404 4.41277 12.1426 4.28936 12.5 4.28936C12.8574 4.28936 13.1596 4.41277 13.4064 4.65957C13.6532 4.90638 13.7766 5.20851 13.7766 5.56596V18.434C13.7766 18.7915 13.6532 19.0936 13.4064 19.3404C13.1596 19.5872 12.8574 19.7106 12.5 19.7106ZM9.69149 14.8085V9.19149C9.69149 8.83404 9.56808 8.53191 9.32128 8.28511C9.07447 8.0383 8.77234 7.91489 8.41489 7.91489C8.05745 7.91489 7.75532 8.0383 7.50851 8.28511C7.2617 8.53191 7.1383 8.83404 7.1383 9.19149V14.8085C7.1383 15.166 7.2617 15.4681 7.50851 15.7149C7.75532 15.9617 8.05745 16.0851 8.41489 16.0851C8.77234 16.0851 9.07447 15.9617 9.32128 15.7149C9.56808 15.4681 9.69149 15.166 9.69149 14.8085ZM17.8617 14.8085V9.19149C17.8617 8.83404 17.7383 8.53191 17.4915 8.28511C17.2447 8.0383 16.9426 7.91489 16.5851 7.91489C16.2277 7.91489 15.9255 8.0383 15.6787 8.28511C15.4319 8.53191 15.3085 8.83404 15.3085 9.19149V14.8085C15.3085 15.166 15.4319 15.4681 15.6787 15.7149C15.9255 15.9617 16.2277 16.0851 16.5851 16.0851C16.9426 16.0851 17.2447 15.9617 17.4915 15.7149C17.7383 15.4681 17.8617 15.166 17.8617 14.8085ZM12.5 2.04255C10.6957 2.04255 9.01915 2.49362 7.47021 3.39575C5.97234 4.28085 4.78085 5.47234 3.89574 6.97021C2.99362 8.51915 2.54255 10.1957 2.54255 12C2.54255 13.8043 2.99362 15.4809 3.89574 17.0298C4.78085 18.5277 5.97234 19.7191 7.47021 20.6043C9.01915 21.5064 10.6957 21.9574 12.5 21.9574C14.3043 21.9574 15.9809 21.5064 17.5298 20.6043C19.0277 19.7191 20.2191 18.5277 21.1043 17.0298C22.0064 15.4809 22.4574 13.8043 22.4574 12C22.4574 10.1957 22.0064 8.51915 21.1043 6.97021C20.2191 5.47234 19.0277 4.28085 17.5298 3.39575C15.9809 2.49362 14.3043 2.04255 12.5 2.04255ZM12.5 0C14.1511 0 15.7 0.310638 17.1468 0.931915C18.5936 1.55319 19.8702 2.41702 20.9766 3.52341C22.066 4.57872 22.9255 5.84255 23.5553 7.31489C24.1851 8.78723 24.5 10.3489 24.5 12C24.5 13.6511 24.1894 15.2 23.5681 16.6468C22.9468 18.0936 22.083 19.3702 20.9766 20.4766C19.9213 21.566 18.6574 22.4255 17.1851 23.0553C15.7128 23.6851 14.1511 24 12.5 24C10.8489 24 9.3 23.6894 7.85319 23.0681C6.40638 22.4468 5.12979 21.583 4.0234 20.4766C2.93404 19.4213 2.07447 18.1574 1.44468 16.6851C0.814894 15.2128 0.5 13.6511 0.5 12C0.5 10.3489 0.810638 8.8 1.43191 7.35319C2.05319 5.90638 2.91702 4.62979 4.0234 3.52341C5.07872 2.43404 6.34255 1.57447 7.81489 0.944681C9.28723 0.314894 10.8489 0 12.5 0Z" fill="white"/>
</svg>
