<svg width="25" height="24" viewBox="0 0 25 24" fill="none" xmlns="http://www.w3.org/2000/svg">
<path d="M12.5 2.04255C14.3043 2.04255 15.9809 2.49362 17.5298 3.39575C19.0277 4.28085 20.2191 5.47234 21.1043 6.97021C22.0064 8.51915 22.4574 10.1957 22.4574 12C22.4574 13.8043 22.0064 15.4809 21.1043 17.0298C20.2191 18.5277 19.0277 19.7191 17.5298 20.6043C15.9809 21.5064 14.3043 21.9574 12.5 21.9574C10.6957 21.9574 9.01915 21.5064 7.47021 20.6043C5.97234 19.7191 4.78085 18.5277 3.89574 17.0298C2.99362 15.4809 2.54255 13.8043 2.54255 12C2.54255 10.1957 2.99362 8.51915 3.89574 6.97021C4.78085 5.47234 5.97234 4.28085 7.47021 3.39575C9.01915 2.49362 10.6957 2.04255 12.5 2.04255ZM12.5 0C10.8489 0 9.3 0.310638 7.85319 0.931915C6.40638 1.55319 5.12979 2.41702 4.0234 3.52341C2.93404 4.57872 2.07447 5.84255 1.44468 7.31489C0.814894 8.78723 0.5 10.3489 0.5 12C0.5 13.6511 0.810638 15.2 1.43191 16.6468C2.05319 18.0936 2.91702 19.3702 4.0234 20.4766C5.07872 21.566 6.34255 22.4255 7.81489 23.0553C9.28723 23.6851 10.8489 24 12.5 24C14.1511 24 15.7 23.6894 17.1468 23.0681C18.5936 22.4468 19.8702 21.583 20.9766 20.4766C22.066 19.4213 22.9255 18.1574 23.5553 16.6851C24.1851 15.2128 24.5 13.6511 24.5 12C24.5 10.3489 24.1894 8.8 23.5681 7.35319C22.9468 5.90638 22.083 4.62979 20.9766 3.52341C19.9213 2.43404 18.6574 1.57447 17.1851 0.944681C15.7128 0.314894 14.1511 0 12.5 0ZM12.5 5.9234C11.4106 5.9234 10.3979 6.19575 9.4617 6.74043C8.52553 7.28511 7.78511 8.02553 7.24043 8.9617C6.69574 9.89787 6.4234 10.9106 6.4234 12C6.4234 13.0894 6.69574 14.1021 7.24043 15.0383C7.78511 15.9745 8.52553 16.7149 9.4617 17.2596C10.3979 17.8043 11.4106 18.0766 12.5 18.0766C13.5894 18.0766 14.6021 17.8043 15.5383 17.2596C16.4745 16.7149 17.2149 15.9745 17.7596 15.0383C18.3043 14.1021 18.5766 13.0894 18.5766 12C18.5766 10.9106 18.3043 9.89787 17.7596 8.9617C17.2149 8.02553 16.4745 7.28511 15.5383 6.74043C14.6021 6.19575 13.5894 5.9234 12.5 5.9234Z" fill="#D65C99"/>
</svg>
