<svg width="25" height="24" viewBox="0 0 25 24" fill="none" xmlns="http://www.w3.org/2000/svg">
<path d="M4.88125 20.46C4.74792 20.46 4.63458 20.4133 4.54125 20.32C4.46125 20.2267 4.42125 20.1133 4.42125 19.98V8.06C4.42125 7.92667 4.46125 7.81333 4.54125 7.72C4.63458 7.62667 4.74792 7.58 4.88125 7.58C5.01458 7.58 5.12792 7.62667 5.22125 7.72C5.31458 7.81333 5.36125 7.92667 5.36125 8.06V8.8C5.65458 8.42667 6.00792 8.13333 6.42125 7.92C6.84792 7.69333 7.34125 7.58 7.90125 7.58C9.03458 7.58 9.92792 7.96667 10.5813 8.74C11.2346 9.51333 11.5613 10.5733 11.5613 11.92C11.5613 13.2533 11.2346 14.3133 10.5813 15.1C9.92792 15.8733 9.03458 16.26 7.90125 16.26C7.34125 16.26 6.84792 16.1533 6.42125 15.94C6.00792 15.7267 5.65458 15.4333 5.36125 15.06V19.98C5.36125 20.1133 5.31458 20.2267 5.22125 20.32C5.12792 20.4133 5.01458 20.46 4.88125 20.46ZM7.90125 15.3C8.76792 15.3 9.43458 15.0067 9.90125 14.42C10.3813 13.8333 10.6213 13 10.6213 11.92C10.6213 10.8533 10.3813 10.0267 9.90125 9.44C9.43458 8.85333 8.76792 8.56 7.90125 8.56C6.19458 8.56 5.34125 9.68 5.34125 11.92C5.34125 14.1733 6.19458 15.3 7.90125 15.3ZM14.1 20.46C13.9667 20.46 13.8533 20.4133 13.76 20.32C13.68 20.2267 13.64 20.1133 13.64 19.98V8.06C13.64 7.92667 13.68 7.81333 13.76 7.72C13.8533 7.62667 13.9667 7.58 14.1 7.58C14.2333 7.58 14.3467 7.62667 14.44 7.72C14.5333 7.81333 14.58 7.92667 14.58 8.06V8.8C14.8733 8.42667 15.2267 8.13333 15.64 7.92C16.0667 7.69333 16.56 7.58 17.12 7.58C18.2533 7.58 19.1467 7.96667 19.8 8.74C20.4533 9.51333 20.78 10.5733 20.78 11.92C20.78 13.2533 20.4533 14.3133 19.8 15.1C19.1467 15.8733 18.2533 16.26 17.12 16.26C16.56 16.26 16.0667 16.1533 15.64 15.94C15.2267 15.7267 14.8733 15.4333 14.58 15.06V19.98C14.58 20.1133 14.5333 20.2267 14.44 20.32C14.3467 20.4133 14.2333 20.46 14.1 20.46ZM17.12 15.3C17.9867 15.3 18.6533 15.0067 19.12 14.42C19.6 13.8333 19.84 13 19.84 11.92C19.84 10.8533 19.6 10.0267 19.12 9.44C18.6533 8.85333 17.9867 8.56 17.12 8.56C15.4133 8.56 14.56 9.68 14.56 11.92C14.56 14.1733 15.4133 15.3 17.12 15.3Z" fill="#D65C99"/>
</svg>
