<svg width="24" height="24" viewBox="0 0 24 24" fill="none" xmlns="http://www.w3.org/2000/svg">
<rect x="2" y="2" width="20" height="20" rx="10" fill="#40BF40"/>
<rect x="2" y="2" width="20" height="20" rx="10" stroke="#1A4D1A" stroke-width="2"/>
<path d="M12.7705 6.31411C12.5661 6.11297 12.2892 6 12.0004 6C11.7116 6 11.4347 6.11297 11.2304 6.31411L7.11931 10.364C6.91489 10.5655 6.80005 10.8387 6.80005 11.1237C6.80005 11.4086 6.91489 11.6819 7.11931 11.8834C7.32374 12.0849 7.60099 12.1981 7.89009 12.1981C8.17919 12.1981 8.45644 12.0849 8.66087 11.8834L10.9107 9.66656V17.926C10.9107 18.2108 11.0255 18.484 11.2299 18.6854C11.4342 18.8868 11.7114 19 12.0004 19C12.2894 19 12.5666 18.8868 12.7709 18.6854C12.9753 18.484 13.0901 18.2108 13.0901 17.926V9.66656L15.3392 11.8834C15.4405 11.9832 15.5606 12.0623 15.6929 12.1163C15.8251 12.1703 15.9669 12.1981 16.11 12.1981C16.2532 12.1981 16.3949 12.1703 16.5271 12.1163C16.6594 12.0623 16.7796 11.9832 16.8808 11.8834C16.982 11.7836 17.0623 11.6652 17.1171 11.5348C17.1719 11.4045 17.2 11.2648 17.2 11.1237C17.2 10.9826 17.1719 10.8429 17.1171 10.7125C17.0623 10.5822 16.982 10.4637 16.8808 10.364L12.7705 6.31411Z" fill="white"/>
</svg>
