<svg width="24" height="24" viewBox="0 0 24 24" fill="none" xmlns="http://www.w3.org/2000/svg">
<rect x="2" y="2" width="20" height="20" rx="10" fill="#D65C99"/>
<rect x="2" y="2" width="20" height="20" rx="10" stroke="#521433" stroke-width="2"/>
<path d="M11.2889 17.7101C11.4775 17.8957 11.7332 18 11.9997 18C12.2663 18 12.5219 17.8957 12.7105 17.7101L16.5053 13.9717C16.694 13.7857 16.8 13.5335 16.8 13.2705C16.8 13.0074 16.694 12.7552 16.5053 12.5692C16.3166 12.3832 16.0607 12.2787 15.7939 12.2787C15.527 12.2787 15.2711 12.3832 15.0824 12.5692L13.0056 14.6155L13.0056 6.99143C13.0056 6.72848 12.8996 6.47631 12.711 6.29038C12.5223 6.10445 12.2665 6 11.9997 6C11.7329 6 11.4771 6.10445 11.2885 6.29038C11.0998 6.47631 10.9938 6.72848 10.9938 6.99143V14.6155L8.91773 12.5692C8.82429 12.4771 8.71337 12.404 8.59129 12.3542C8.46922 12.3044 8.33838 12.2787 8.20624 12.2787C8.07411 12.2787 7.94326 12.3044 7.82119 12.3542C7.69911 12.404 7.58819 12.4771 7.49476 12.5692C7.40132 12.6613 7.32721 12.7706 7.27664 12.8909C7.22608 13.0113 7.20005 13.1402 7.20005 13.2705C7.20005 13.4007 7.22608 13.5297 7.27664 13.65C7.32721 13.7703 7.40132 13.8796 7.49476 13.9717L11.2889 17.7101Z" fill="white"/>
</svg>
