<svg width="24" height="24" viewBox="0 0 24 24" fill="none" xmlns="http://www.w3.org/2000/svg">
<path d="M12 4.34043C10.6043 4.34043 9.31064 4.68936 8.11915 5.38723C6.97872 6.06808 6.06808 6.97872 5.38723 8.11915C4.68936 9.31064 4.34043 10.6043 4.34043 12C4.34043 13.3957 4.68936 14.6894 5.38723 15.8809C6.06808 17.0213 6.97872 17.9319 8.11915 18.6128C9.31064 19.3106 10.6043 19.6596 12 19.6596C13.3957 19.6596 14.6894 19.3106 15.8809 18.6128C17.0213 17.9319 17.9319 17.0213 18.6128 15.8809C19.3106 14.6894 19.6596 13.3957 19.6596 12C19.6596 10.6043 19.3106 9.31064 18.6128 8.11915C17.9319 6.97872 17.0213 6.06808 15.8809 5.38723C14.6894 4.68936 13.3957 4.34043 12 4.34043ZM6.89362 12C6.89362 10.8255 7.25532 9.77872 7.97872 8.85958C8.70213 7.94043 9.61702 7.33617 10.7234 7.04681V16.9532C9.61702 16.6638 8.70213 16.0596 7.97872 15.1404C7.25532 14.2213 6.89362 13.1745 6.89362 12ZM13.2766 16.9532V7.04681C14.383 7.33617 15.2979 7.94043 16.0213 8.85958C16.7447 9.77872 17.1064 10.8255 17.1064 12C17.1064 13.1745 16.7447 14.2213 16.0213 15.1404C15.2979 16.0596 14.383 16.6638 13.2766 16.9532ZM12 2.04255C13.8043 2.04255 15.4809 2.49362 17.0298 3.39575C18.5277 4.28085 19.7191 5.47234 20.6043 6.97021C21.5064 8.51915 21.9574 10.1957 21.9574 12C21.9574 13.8043 21.5064 15.4809 20.6043 17.0298C19.7191 18.5277 18.5277 19.7191 17.0298 20.6043C15.4809 21.5064 13.8043 21.9574 12 21.9574C10.1957 21.9574 8.51915 21.5064 6.97021 20.6043C5.47234 19.7191 4.28085 18.5277 3.39574 17.0298C2.49362 15.4809 2.04255 13.8043 2.04255 12C2.04255 10.1957 2.49362 8.51915 3.39574 6.97021C4.28085 5.47234 5.47234 4.28085 6.97021 3.39575C8.51915 2.49362 10.1957 2.04255 12 2.04255ZM12 0C10.3489 0 8.8 0.310638 7.35319 0.931915C5.90638 1.55319 4.62979 2.41702 3.5234 3.52341C2.43404 4.57872 1.57447 5.84255 0.944681 7.31489C0.314894 8.78723 0 10.3489 0 12C0 13.6511 0.310638 15.2 0.931915 16.6468C1.55319 18.0936 2.41702 19.3702 3.5234 20.4766C4.57872 21.566 5.84255 22.4255 7.31489 23.0553C8.78723 23.6851 10.3489 24 12 24C13.6511 24 15.2 23.6894 16.6468 23.0681C18.0936 22.4468 19.3702 21.583 20.4766 20.4766C21.566 19.4213 22.4255 18.1574 23.0553 16.6851C23.6851 15.2128 24 13.6511 24 12C24 10.3489 23.6894 8.8 23.0681 7.35319C22.4468 5.90638 21.583 4.62979 20.4766 3.52341C19.4213 2.43404 18.1574 1.57447 16.6851 0.944681C15.2128 0.314894 13.6511 0 12 0Z" fill="white"/>
</svg>
