<svg width="32" height="32" viewBox="0 0 32 32" fill="none" xmlns="http://www.w3.org/2000/svg">
<path d="M21.9162 9.9162L21.2939 10.5385L21.9162 9.9162ZM22.0646 10.0646L22.6868 9.4423L22.0646 10.0646ZM23.5481 11.5481L22.9259 12.1704L23.5481 11.5481ZM25.0727 13.6268L24.1927 13.634L24.1927 13.634L25.0727 13.6268ZM23.6973 15.0022L23.6901 15.8822L23.6901 15.8822L23.6973 15.0022ZM22.4909 14.35L23.1132 13.7277L22.4082 13.0228L21.7962 13.8098L22.4909 14.35ZM17.6665 20.5541L16.9718 20.0139L16.495 20.6271L17.0442 21.1764L17.6665 20.5541ZM18.6967 22.0881L17.8167 22.0952L18.6967 22.0881ZM17.4461 23.3387L17.4389 24.2186L17.4389 24.2186L17.4461 23.3387ZM12.9257 19.3221L13.548 18.6998L12.9257 18.0776L12.3035 18.6998L12.9257 19.3221ZM7.07598 25.2054L7.94858 25.3192L7.94859 25.3192L7.07598 25.2054ZM7.05941 25.3324L6.1868 25.2185L6.1868 25.2185L7.05941 25.3324ZM6.39484 25.6624L5.63079 25.2258L5.19419 25.9899L5.95824 26.4265L6.39484 25.6624ZM6.4573 25.5531L7.22136 25.9897L7.78513 25.0031L6.68884 24.7041L6.4573 25.5531ZM6.33585 25.52L5.48686 25.2885L5.25531 26.1375L6.10431 26.369L6.33585 25.52ZM6.41141 25.243L7.2604 25.4745L7.6656 23.9888L6.17986 24.394L6.41141 25.243ZM6.13436 25.3185L5.28537 25.5501L5.51691 26.3991L6.36591 26.1675L6.13436 25.3185ZM6.10124 25.1971L6.95024 24.9655L6.65125 23.8692L5.66464 24.433L6.10124 25.1971ZM5.99194 25.2595L5.22789 25.6961L5.66449 26.4602L6.42854 26.0236L5.99194 25.2595ZM6.32201 24.595L6.43582 25.4676L6.43583 25.4676L6.32201 24.595ZM6.44899 24.5784L6.33521 23.7058L6.33516 23.7058L6.44899 24.5784ZM12.3323 18.7287L12.9545 19.3509L13.5768 18.7287L12.9545 18.1064L12.3323 18.7287ZM8.31569 14.2083L7.43572 14.2155L7.43572 14.2155L8.31569 14.2083ZM9.56629 12.9577L9.55912 13.8377L9.55912 13.8377L9.56629 12.9577ZM10.4334 13.321L11.0556 12.6988L10.4334 13.321ZM11.1003 13.9879L10.478 14.6102L11.0273 15.1594L11.6405 14.6826L11.1003 13.9879ZM17.3044 9.16344L17.8446 9.85813L18.6316 9.24614L17.9267 8.54119L17.3044 9.16344ZM17.0517 8.91074L16.4294 9.53299L17.0517 8.91074ZM16.6521 7.95711L15.7722 7.96428L15.7722 7.96428L16.6521 7.95711ZM18.0276 6.58165L18.0204 7.46162L18.0204 7.46162L18.0276 6.58165ZM6.45306 25.2013L5.60407 25.4328L5.73638 25.918L6.22152 26.0503L6.45306 25.2013ZM6.66777 25.2599L7.51676 25.4914L7.7483 24.6424L6.89931 24.4109L6.66777 25.2599ZM6.61056 25.4696L5.76157 25.2381L5.46741 26.3166L6.5849 26.3492L6.61056 25.4696ZM6.80976 25.2998L7.68236 25.4136L7.68236 25.4136L6.80976 25.2998ZM6.82632 25.1728L5.95371 25.059L5.95371 25.059L6.82632 25.1728ZM6.9305 24.9612L7.55275 25.5835L6.9305 24.9612ZM12.8367 19.055L12.2144 18.4328L12.8367 19.055ZM12.9257 18.966L13.548 18.3438L12.9257 17.7215L12.3035 18.3438L12.9257 18.966ZM13.0147 19.055L13.637 18.4328L13.0147 19.055ZM16.757 22.7973L16.1348 23.4196L16.757 22.7973ZM17.4481 23.0869L17.4553 22.2069L17.4481 23.0869ZM18.4449 22.0901L17.5649 22.0973V22.0973L18.4449 22.0901ZM17.3313 20.575L16.6366 20.0348L16.1598 20.648L16.709 21.1973L17.3313 20.575ZM17.3995 20.4873L18.0942 21.0275L18.0942 21.0275L17.3995 20.4873ZM22.3797 14.0828L21.685 13.5426L21.685 13.5426L22.3797 14.0828ZM22.4673 13.9702L23.0895 13.348L22.3846 12.643L21.7726 13.43L22.4673 13.9702ZM23.6993 14.7505L23.6921 15.6304L23.6921 15.6304L23.6993 14.7505ZM24.821 13.6288L25.7009 13.6217L25.7009 13.6217L24.821 13.6288ZM18.0255 6.83341L18.0184 7.71338L18.0184 7.71338L18.0255 6.83341ZM16.9039 7.95505L17.7839 7.94787L17.7839 7.94787L16.9039 7.95505ZM17.2297 8.73271L16.6075 9.35496L17.2297 8.73271ZM17.5833 9.08626L18.2055 8.464L17.5833 9.08626ZM17.6841 9.1871L18.2243 9.88179L19.0113 9.2698L18.3064 8.56485L17.6841 9.1871ZM17.5715 9.27465L17.0313 8.57996L17.0313 8.57996L17.5715 9.27465ZM11.1671 14.2549L10.6269 13.5602L10.6269 13.5602L11.1671 14.2549ZM11.0794 14.3231L10.4571 14.9453L11.0064 15.4946L11.6196 15.0178L11.0794 14.3231ZM11.0008 14.2445L10.3785 14.8668L11.0008 14.2445ZM10.2553 13.499L10.8776 12.8768L10.2553 13.499ZM9.56424 13.2095L9.55706 14.0894H9.55707L9.56424 13.2095ZM8.56745 14.2063L9.44743 14.1991L9.44743 14.1991L8.56745 14.2063ZM12.5993 18.6396L11.9771 19.2619L12.5993 18.6396ZM12.6883 18.7287L13.3106 19.3509L13.9328 18.7287L13.3106 18.1064L12.6883 18.7287ZM12.5993 18.8177L13.2216 19.4399L12.5993 18.8177ZM6.69312 24.7239L6.07087 24.1016L6.69312 24.7239ZM6.48155 24.828L6.59537 25.7007L6.59537 25.7007L6.48155 24.828ZM6.35457 24.8446L6.24075 23.972L6.24075 23.972L6.35457 24.8446ZM6.18475 25.0438L5.30513 25.0695L5.33773 26.187L6.4163 25.8928L6.18475 25.0438ZM6.39451 24.9866L7.2435 24.7551L7.01196 23.9061L6.16296 24.1376L6.39451 24.9866ZM22.3604 9.11591L22.2121 8.96756L20.9676 10.2121L21.1159 10.3604L22.3604 9.11591ZM21.1159 10.3604L21.2939 10.5385L22.5385 9.29394L22.3604 9.11591L21.1159 10.3604ZM21.2939 10.5385L21.4423 10.6868L22.6868 9.4423L22.5385 9.29394L21.2939 10.5385ZM21.4423 10.6868L22.9259 12.1704L24.1704 10.9259L22.6868 9.4423L21.4423 10.6868ZM22.9259 12.1704L24.0509 13.2954L25.2954 12.0509L24.1704 10.9259L22.9259 12.1704ZM24.0509 13.2954C24.1408 13.3853 24.1917 13.5069 24.1927 13.634L25.9527 13.6196C25.9479 13.0307 25.7118 12.4673 25.2954 12.0509L24.0509 13.2954ZM24.1927 13.634C24.195 13.9046 23.975 14.1245 23.7044 14.1223L23.6901 15.8822C24.9439 15.8924 25.9629 14.8734 25.9527 13.6196L24.1927 13.634ZM23.7044 14.1223C23.5773 14.1212 23.4558 14.0703 23.3659 13.9804L22.1214 15.2249C22.5378 15.6413 23.1012 15.8774 23.6901 15.8822L23.7044 14.1223ZM23.3659 13.9804L23.1132 13.7277L21.8687 14.9722L22.1214 15.2249L23.3659 13.9804ZM21.7962 13.8098L16.9718 20.0139L18.3611 21.0943L23.1856 14.8902L21.7962 13.8098ZM17.0442 21.1764L17.7111 21.8433L18.9556 20.5988L18.2887 19.9319L17.0442 21.1764ZM17.7111 21.8433C17.778 21.9102 17.8159 22.0007 17.8167 22.0952L19.5766 22.0809C19.5721 21.5245 19.3491 20.9922 18.9556 20.5988L17.7111 21.8433ZM17.8167 22.0952C17.8183 22.2967 17.6546 22.4603 17.4532 22.4587L17.4389 24.2186C18.6235 24.2283 19.5863 23.2655 19.5766 22.0809L17.8167 22.0952ZM17.4532 22.4587C17.3586 22.4579 17.2681 22.42 17.2012 22.3531L15.9567 23.5976C16.3502 23.9911 16.8825 24.2141 17.4389 24.2186L17.4532 22.4587ZM17.2012 22.3531L13.548 18.6998L12.3035 19.9443L15.9567 23.5976L17.2012 22.3531ZM12.3035 18.6998L6.48627 24.517L7.73078 25.7615L13.548 19.9443L12.3035 18.6998ZM6.48627 24.517C6.3312 24.6721 6.23172 24.8741 6.20336 25.0916L7.94859 25.3192C7.92676 25.4866 7.85016 25.6421 7.73078 25.7615L6.48627 24.517ZM6.20337 25.0916L6.1868 25.2185L7.93202 25.4462L7.94858 25.3192L6.20337 25.0916ZM6.1868 25.2185C6.22667 24.9129 6.56385 24.7455 6.83145 24.8984L5.95824 26.4265C6.77757 26.8947 7.80997 26.3819 7.93202 25.4462L6.1868 25.2185ZM7.1589 26.099L7.22136 25.9897L5.69325 25.1165L5.63079 25.2258L7.1589 26.099ZM6.68884 24.7041L6.56739 24.671L6.10431 26.369L6.22576 26.4021L6.68884 24.7041ZM7.18484 25.7515L7.2604 25.4745L5.56242 25.0114L5.48686 25.2885L7.18484 25.7515ZM6.36591 26.1675L6.64295 26.0919L6.17986 24.394L5.90282 24.4695L6.36591 26.1675ZM5.25225 25.4286L5.28537 25.5501L6.98336 25.087L6.95024 24.9655L5.25225 25.4286ZM6.42854 26.0236L6.53784 25.9611L5.66464 24.433L5.55534 24.4955L6.42854 26.0236ZM6.20819 23.7223C5.27245 23.8444 4.7597 24.8768 5.22789 25.6961L6.75599 24.8229C6.90891 25.0905 6.74144 25.4277 6.43582 25.4676L6.20819 23.7223ZM6.33516 23.7058L6.20818 23.7223L6.43583 25.4676L6.56281 25.451L6.33516 23.7058ZM5.89284 23.9236C6.01222 23.8042 6.16774 23.7276 6.33521 23.7058L6.56276 25.451C6.78027 25.4226 6.98228 25.3232 7.13735 25.1681L5.89284 23.9236ZM11.71 18.1064L5.89284 23.9236L7.13735 25.1681L12.9545 19.3509L11.71 18.1064ZM8.05674 15.6976L11.71 19.3509L12.9545 18.1064L9.30125 14.4531L8.05674 15.6976ZM7.43572 14.2155C7.44026 14.7719 7.6633 15.3042 8.05674 15.6976L9.30125 14.4531C9.23435 14.3862 9.19643 14.2957 9.19566 14.2011L7.43572 14.2155ZM9.57347 12.0777C8.38885 12.0681 7.42606 13.0309 7.43572 14.2155L9.19566 14.2011C9.19402 13.9997 9.35771 13.836 9.55912 13.8377L9.57347 12.0777ZM11.0556 12.6988C10.6622 12.3053 10.1299 12.0823 9.57347 12.0777L9.55912 13.8377C9.65371 13.8385 9.74421 13.8764 9.81111 13.9433L11.0556 12.6988ZM11.7225 13.3656L11.0556 12.6988L9.81111 13.9433L10.478 14.6102L11.7225 13.3656ZM16.7642 8.46876L10.5601 13.2932L11.6405 14.6826L17.8446 9.85813L16.7642 8.46876ZM16.4294 9.53299L16.6822 9.7857L17.9267 8.54119L17.674 8.28848L16.4294 9.53299ZM15.7722 7.96428C15.777 8.55317 16.013 9.11657 16.4294 9.53299L17.674 8.28848C17.5841 8.19861 17.5331 8.07702 17.5321 7.94993L15.7722 7.96428ZM18.0348 5.70168C16.781 5.69145 15.7619 6.71047 15.7722 7.96428L17.5321 7.94993C17.5299 7.67933 17.7498 7.45941 18.0204 7.46162L18.0348 5.70168ZM19.6035 6.35896C19.1871 5.94255 18.6236 5.70648 18.0348 5.70168L18.0204 7.46162C18.1475 7.46265 18.2691 7.5136 18.359 7.60347L19.6035 6.35896ZM20.7285 7.48398L19.6035 6.35896L18.359 7.60347L19.484 8.72848L20.7285 7.48398ZM22.2121 8.96756L20.7285 7.48398L19.484 8.72848L20.9676 10.2121L22.2121 8.96756ZM6.22152 26.0503L6.43622 26.1089L6.89931 24.4109L6.6846 24.3523L6.22152 26.0503ZM5.81877 25.0283L5.76157 25.2381L7.45955 25.7012L7.51676 25.4914L5.81877 25.0283ZM6.5849 26.3492C7.10427 26.3644 7.60685 25.9926 7.68236 25.4136L5.93715 25.186C5.9855 24.8153 6.30748 24.5804 6.63622 24.59L6.5849 26.3492ZM7.68236 25.4136L7.69893 25.2866L5.95371 25.059L5.93715 25.186L7.68236 25.4136ZM7.69892 25.2866C7.68427 25.399 7.63288 25.5034 7.55275 25.5835L6.30824 24.339C6.1139 24.5333 5.98926 24.7865 5.95371 25.059L7.69892 25.2866ZM7.55275 25.5835L13.4589 19.6773L12.2144 18.4328L6.30824 24.339L7.55275 25.5835ZM13.4589 19.6773L13.548 19.5883L12.3035 18.3438L12.2144 18.4328L13.4589 19.6773ZM12.3035 19.5883L12.3925 19.6773L13.637 18.4328L13.548 18.3438L12.3035 19.5883ZM12.3925 19.6773L16.1348 23.4196L17.3793 22.1751L13.637 18.4328L12.3925 19.6773ZM16.1348 23.4196C16.4815 23.7663 16.9506 23.9629 17.4409 23.9669L17.4553 22.2069C17.4267 22.2067 17.3994 22.1953 17.3793 22.1751L16.1348 23.4196ZM17.4409 23.9669C18.4849 23.9754 19.3334 23.1269 19.3249 22.0829L17.5649 22.0973C17.5654 22.1581 17.516 22.2074 17.4553 22.2069L17.4409 23.9669ZM19.3249 22.0829C19.3209 21.5926 19.1243 21.1235 18.7776 20.7768L17.5331 22.0213C17.5533 22.0415 17.5647 22.0688 17.5649 22.0973L19.3249 22.0829ZM18.7776 20.7768L18.0321 20.0313L16.7876 21.2758L17.5331 22.0213L18.7776 20.7768ZM18.0321 20.0313L17.9535 19.9527L16.709 21.1973L16.7876 21.2758L18.0321 20.0313ZM18.026 21.1152L18.0942 21.0275L16.7048 19.9471L16.6366 20.0348L18.026 21.1152ZM18.0942 21.0275L23.0744 14.623L21.685 13.5426L16.7048 19.9471L18.0942 21.0275ZM23.0744 14.623L23.1619 14.5104L21.7726 13.43L21.685 13.5426L23.0744 14.623ZM21.845 14.5925L21.9459 14.6933L23.1904 13.4488L23.0895 13.348L21.845 14.5925ZM21.9459 14.6933L22.2994 15.0469L23.5439 13.8024L23.1904 13.4488L21.9459 14.6933ZM22.2994 15.0469C22.6691 15.4166 23.1693 15.6262 23.6921 15.6304L23.7065 13.8705C23.6455 13.87 23.5871 13.8455 23.5439 13.8024L22.2994 15.0469ZM23.6921 15.6304C24.8053 15.6395 25.71 14.7348 25.7009 13.6217L23.941 13.636C23.942 13.766 23.8364 13.8716 23.7065 13.8705L23.6921 15.6304ZM25.7009 13.6217C25.6967 13.0988 25.4871 12.5986 25.1174 12.2289L23.8729 13.4734C23.916 13.5166 23.9405 13.575 23.941 13.636L25.7009 13.6217ZM25.1174 12.2289L23.9924 11.1039L22.7479 12.3484L23.8729 13.4734L25.1174 12.2289ZM23.9924 11.1039L22.5088 9.62033L21.2643 10.8648L22.7479 12.3484L23.9924 11.1039ZM22.5088 9.62033L22.3604 9.47197L21.1159 10.7165L21.2643 10.8648L22.5088 9.62033ZM22.3604 9.47197L22.1824 9.29394L20.9379 10.5385L21.1159 10.7165L22.3604 9.47197ZM20.7895 10.3901L20.9379 10.5385L22.1824 9.29394L22.034 9.14558L20.7895 10.3901ZM19.3059 8.90651L20.7895 10.3901L22.034 9.14558L20.5505 7.66201L19.3059 8.90651ZM18.1809 7.7815L19.3059 8.90651L20.5505 7.66201L19.4254 6.53699L18.1809 7.7815ZM18.0184 7.71338C18.0794 7.71388 18.1378 7.73835 18.1809 7.7815L19.4254 6.53699C19.0557 6.16729 18.5555 5.9577 18.0327 5.95344L18.0184 7.71338ZM17.7839 7.94787C17.7828 7.81793 17.8884 7.71232 18.0184 7.71338L18.0327 5.95344C16.9195 5.94436 16.0148 6.84907 16.0239 7.96223L17.7839 7.94787ZM17.852 8.11045C17.8088 8.0673 17.7844 8.00891 17.7839 7.94787L16.0239 7.96223C16.0282 8.48505 16.2378 8.98526 16.6075 9.35496L17.852 8.11045ZM18.2055 8.464L17.852 8.11045L16.6075 9.35496L16.961 9.70851L18.2055 8.464ZM18.3064 8.56485L18.2055 8.464L16.961 9.70851L17.0619 9.80936L18.3064 8.56485ZM18.1117 9.96933L18.2243 9.88179L17.1439 8.49242L17.0313 8.57996L18.1117 9.96933ZM11.7073 14.9495L18.1117 9.96933L17.0313 8.57996L10.6269 13.5602L11.7073 14.9495ZM11.6196 15.0178L11.7073 14.9495L10.6269 13.5602L10.5392 13.6284L11.6196 15.0178ZM10.3785 14.8668L10.4571 14.9453L11.7016 13.7008L11.6231 13.6222L10.3785 14.8668ZM9.63308 14.1213L10.3785 14.8668L11.6231 13.6222L10.8776 12.8768L9.63308 14.1213ZM9.55707 14.0894C9.5856 14.0897 9.6129 14.1011 9.63308 14.1213L10.8776 12.8768C10.5309 12.5301 10.0617 12.3335 9.57142 12.3295L9.55707 14.0894ZM9.44743 14.1991C9.44693 14.1383 9.49631 14.0889 9.55706 14.0894L9.57142 12.3295C8.52744 12.321 7.67897 13.1695 7.68748 14.2134L9.44743 14.1991ZM9.47928 14.2751C9.4591 14.2549 9.44766 14.2276 9.44743 14.1991L7.68748 14.2134C7.69148 14.7038 7.88804 15.1729 8.23477 15.5196L9.47928 14.2751ZM13.2216 18.0174L9.47928 14.2751L8.23477 15.5196L11.9771 19.2619L13.2216 18.0174ZM13.3106 18.1064L13.2216 18.0174L11.9771 19.2619L12.0661 19.3509L13.3106 18.1064ZM13.2216 19.4399L13.3106 19.3509L12.0661 18.1064L11.9771 18.1954L13.2216 19.4399ZM7.31538 25.3461L13.2216 19.4399L11.9771 18.1954L6.07087 24.1016L7.31538 25.3461ZM6.59537 25.7007C6.8679 25.6651 7.12104 25.5405 7.31538 25.3461L6.07087 24.1016C6.151 24.0215 6.25537 23.9701 6.36772 23.9554L6.59537 25.7007ZM6.46839 25.7172L6.59537 25.7007L6.36773 23.9554L6.24075 23.972L6.46839 25.7172ZM7.06438 25.0181C7.07397 25.3469 6.83911 25.6689 6.46839 25.7172L6.24075 23.972C5.66179 24.0475 5.28997 24.5501 5.30513 25.0695L7.06438 25.0181ZM6.16296 24.1376L5.95321 24.1948L6.4163 25.8928L6.62605 25.8356L6.16296 24.1376ZM7.30205 24.9698L7.2435 24.7551L5.54551 25.2181L5.60407 25.4328L7.30205 24.9698Z" fill="white"/>
</svg>
