<svg width="512" height="512" viewBox="0 0 512 512" fill="none" xmlns="http://www.w3.org/2000/svg">
<mask id="path-1-inside-1_986_601" fill="white">
<path d="M328.293 57.4965C353.261 57.4965 376.446 70.8824 388.93 92.5544L461.159 217.742C473.643 239.414 473.643 266.186 461.159 287.858L388.93 413.046C376.446 434.718 353.261 448.103 328.293 448.103H183.834C158.866 448.103 135.682 434.718 123.197 413.046L50.9681 287.858C38.4841 266.186 38.4841 239.414 50.9681 217.742L123.197 92.5544C135.682 70.8824 158.866 57.4965 183.834 57.4965H328.293ZM328.293 32H183.834C149.694 32 118.102 50.23 101.032 79.8061L28.8026 204.994C11.7325 234.57 11.7325 271.03 28.8026 300.606L101.032 425.794C118.102 455.37 149.694 473.6 183.834 473.6H328.293C362.433 473.6 394.025 455.37 411.096 425.794L483.325 300.606C500.395 271.03 500.395 234.57 483.325 204.994L410.968 79.8061C394.025 50.23 362.433 32 328.293 32Z"/>
</mask>
<path d="M388.93 92.5544L167.104 220.339L167.147 220.415L167.191 220.49L388.93 92.5544ZM461.159 217.742L682.986 89.9574L682.942 89.8819L682.899 89.8064L461.159 217.742ZM461.159 287.858L682.899 415.794L682.942 415.718L682.986 415.643L461.159 287.858ZM388.93 413.046L167.191 285.11L167.147 285.185L167.104 285.261L388.93 413.046ZM123.197 413.046L345.024 285.261L344.98 285.185L344.937 285.109L123.197 413.046ZM50.9681 287.858L-170.859 415.641L-170.815 415.717L-170.771 415.794L50.9681 287.858ZM50.9681 217.742L-170.771 89.806L-170.815 89.8826L-170.859 89.9592L50.9681 217.742ZM123.197 92.5544L344.937 220.491L344.98 220.415L345.024 220.339L123.197 92.5544ZM101.032 79.8061L-120.69 -48.1602L-120.699 -48.1453L-120.707 -48.1304L101.032 79.8061ZM28.8026 204.994L250.524 332.962L250.533 332.946L250.542 332.93L28.8026 204.994ZM28.8026 300.606L250.542 172.67L250.533 172.654L250.524 172.638L28.8026 300.606ZM101.032 425.794L-120.707 553.73L-120.699 553.745L-120.69 553.76L101.032 425.794ZM411.096 425.794L632.816 553.763L632.826 553.747L632.835 553.73L411.096 425.794ZM483.325 300.606L261.605 172.637L261.595 172.653L261.586 172.67L483.325 300.606ZM483.325 204.994L705.046 77.0252L705.006 76.9565L704.966 76.8879L483.325 204.994ZM410.968 79.8061L188.834 207.055L189.079 207.484L189.327 207.912L410.968 79.8061ZM328.293 313.497C261.73 313.497 200.325 278.01 167.104 220.339L610.757 -35.2305C552.567 -136.245 444.793 -198.503 328.293 -198.503V313.497ZM167.191 220.49L239.42 345.678L682.899 89.8064L610.67 -35.3814L167.191 220.49ZM239.333 345.527C206.252 288.102 206.252 217.498 239.333 160.073L682.986 415.643C741.035 314.873 741.035 190.727 682.986 89.9574L239.333 345.527ZM239.42 159.922L167.191 285.11L610.67 540.981L682.899 415.794L239.42 159.922ZM167.104 285.261C200.326 227.59 261.73 192.103 328.293 192.103V704.103C444.793 704.103 552.566 641.845 610.757 540.83L167.104 285.261ZM328.293 192.103H183.834V704.103H328.293V192.103ZM183.834 192.103C250.397 192.103 311.802 227.59 345.024 285.261L-98.6291 540.83C-40.4386 641.846 67.3351 704.103 183.834 704.103V192.103ZM344.937 285.109L272.707 159.921L-170.771 415.794L-98.5418 540.982L344.937 285.109ZM272.796 160.075C305.875 217.499 305.875 288.101 272.796 345.525L-170.859 89.9592C-228.907 190.728 -228.907 314.872 -170.859 415.641L272.796 160.075ZM272.707 345.679L344.937 220.491L-98.5418 -35.3819L-170.771 89.806L272.707 345.679ZM345.024 220.339C311.802 278.01 250.398 313.497 183.834 313.497V-198.503C67.3347 -198.503 -40.4388 -136.245 -98.6291 -35.2305L345.024 220.339ZM183.834 313.497H328.293V-198.503H183.834V313.497ZM328.293 -224H183.834V288H328.293V-224ZM183.834 -224C58.2761 -224 -57.8675 -157.01 -120.69 -48.1602L322.754 207.772C294.071 257.47 241.113 288 183.834 288V-224ZM-120.707 -48.1304L-192.937 77.0574L250.542 332.93L322.771 207.743L-120.707 -48.1304ZM-192.919 77.0261C-255.694 185.793 -255.694 319.807 -192.919 428.574L250.524 172.638C279.159 222.252 279.159 283.348 250.524 332.962L-192.919 77.0261ZM-192.937 428.543L-120.707 553.73L322.771 297.857L250.542 172.67L-192.937 428.543ZM-120.69 553.76C-57.8675 662.61 58.2765 729.6 183.834 729.6V217.6C241.112 217.6 294.071 248.13 322.754 297.828L-120.69 553.76ZM183.834 729.6H328.293V217.6H183.834V729.6ZM328.293 729.6C453.853 729.6 569.994 662.609 632.816 553.763L189.375 297.825C218.057 248.131 271.013 217.6 328.293 217.6V729.6ZM632.835 553.73L705.064 428.543L261.586 172.67L189.357 297.857L632.835 553.73ZM705.046 428.575C767.822 319.808 767.822 185.792 705.046 77.0252L261.605 332.963C232.969 283.348 232.969 222.252 261.605 172.637L705.046 428.575ZM704.966 76.8879L632.609 -48.3L189.327 207.912L261.684 333.1L704.966 76.8879ZM633.102 -47.4429C570.295 -157.083 453.701 -224 328.293 -224V288C271.166 288 217.756 257.543 188.834 207.055L633.102 -47.4429Z" fill="white" mask="url(#path-1-inside-1_986_601)"/>
<path fill-rule="evenodd" clip-rule="evenodd" d="M252.32 98.5168C252.32 82.1923 271.939 73.8853 283.661 85.2465L300.867 101.921C305.531 106.441 305.647 113.886 301.127 118.55C296.607 123.214 289.162 123.331 284.498 118.811L275.84 110.42V189.326C275.84 195.821 270.575 201.086 264.08 201.086C257.585 201.086 252.32 195.821 252.32 189.326V98.5168Z" fill="white"/>
<path fill-rule="evenodd" clip-rule="evenodd" d="M246.668 195.379C249.732 195.379 252.215 192.895 252.215 189.832C252.215 186.769 249.732 184.286 246.668 184.286C243.605 184.286 241.122 186.769 241.122 189.832C241.122 192.895 243.605 195.379 246.668 195.379ZM246.668 218.899C262.721 218.899 275.735 205.885 275.735 189.832C275.735 173.779 262.721 160.766 246.668 160.766C230.615 160.766 217.602 173.779 217.602 189.832C217.602 205.885 230.615 218.899 246.668 218.899Z" fill="white"/>
<path fill-rule="evenodd" clip-rule="evenodd" d="M240.092 115.497C244.811 120.161 244.811 127.721 240.092 132.384L190.482 181.413C188.46 183.411 188.46 186.651 190.482 188.65L249.139 246.619C251.161 248.618 254.44 248.618 256.462 246.619L315.119 188.65C317.141 186.651 317.141 183.411 315.119 181.413L286.762 153.387C282.043 148.724 282.043 141.164 286.762 136.501C291.48 131.837 299.13 131.837 303.849 136.501L332.206 164.526C343.666 175.851 343.666 194.212 332.206 205.537L273.55 263.506C262.09 274.831 243.511 274.831 232.052 263.506L173.395 205.537C161.936 194.212 161.936 175.851 173.395 164.526L223.005 115.497C227.723 110.834 235.374 110.834 240.092 115.497Z" fill="white"/>
<g clip-path="url(#clip0_986_601)">
<mask id="path-6-outside-2_986_601" maskUnits="userSpaceOnUse" x="132" y="300" width="238" height="119" fill="black">
<rect fill="white" x="132" y="300" width="238" height="119"/>
<path d="M176.192 405.664C169.792 405.664 164.203 404.341 159.424 401.696C154.731 399.051 151.061 395.339 148.416 390.56C145.771 385.781 144.448 380.235 144.448 373.92V344.224C144.448 337.824 145.771 332.277 148.416 327.584C151.061 322.805 154.731 319.093 159.424 316.448C164.203 313.803 169.792 312.48 176.192 312.48C182.592 312.48 188.139 313.803 192.832 316.448C197.611 319.093 201.323 322.805 203.968 327.584C206.613 332.277 207.936 337.824 207.936 344.224V373.92C207.936 380.235 206.613 385.781 203.968 390.56C201.323 395.339 197.611 399.051 192.832 401.696C188.139 404.341 182.592 405.664 176.192 405.664ZM176.192 399.264C181.312 399.264 185.749 398.24 189.504 396.192C193.344 394.059 196.288 391.072 198.336 387.232C200.469 383.392 201.536 378.955 201.536 373.92V344.224C201.536 339.104 200.469 334.667 198.336 330.912C196.288 327.072 193.344 324.128 189.504 322.08C185.749 319.947 181.312 318.88 176.192 318.88C171.072 318.88 166.592 319.947 162.752 322.08C158.997 324.128 156.053 327.072 153.92 330.912C151.872 334.667 150.848 339.104 150.848 344.224V373.92C150.848 378.955 151.872 383.392 153.92 387.232C156.053 391.072 158.997 394.059 162.752 396.192C166.592 398.24 171.072 399.264 176.192 399.264ZM254.647 405.664C248.503 405.664 242.7 404.597 237.239 402.464C231.778 400.331 227.255 397.344 223.671 393.504C221.964 392.053 222.007 390.56 223.799 389.024C225.335 387.659 226.786 387.701 228.151 389.152C231.138 392.309 234.978 394.784 239.671 396.576C244.364 398.368 249.356 399.264 254.647 399.264C261.986 399.264 267.703 397.771 271.799 394.784C275.895 391.797 277.943 387.659 277.943 382.368C277.943 376.821 275.81 372.384 271.543 369.056C267.276 365.728 260.62 363.381 251.575 362.016C242.786 360.565 236.3 357.792 232.119 353.696C227.938 349.6 225.847 343.883 225.847 336.544C225.847 328.949 228.279 323.061 233.143 318.88C238.007 314.613 244.748 312.48 253.367 312.48C257.804 312.48 262.412 313.333 267.191 315.04C271.97 316.747 276.407 319.093 280.503 322.08C282.124 323.445 282.295 324.939 281.015 326.56C279.735 328.267 278.284 328.48 276.663 327.2C273.164 324.555 269.324 322.507 265.143 321.056C261.047 319.605 257.122 318.88 253.367 318.88C246.711 318.88 241.506 320.459 237.751 323.616C234.082 326.688 232.247 330.997 232.247 336.544C232.247 342.005 233.868 346.315 237.111 349.472C240.439 352.544 245.602 354.635 252.599 355.744C263.522 357.365 271.543 360.352 276.663 364.704C281.783 368.971 284.343 374.859 284.343 382.368C284.343 389.621 281.74 395.339 276.535 399.52C271.33 403.616 264.034 405.664 254.647 405.664ZM331.692 406.304C321.708 406.304 313.9 403.531 308.268 397.984C302.721 392.352 299.948 384.544 299.948 374.56V343.968C299.948 333.984 302.721 326.219 308.268 320.672C313.9 315.04 321.708 312.224 331.692 312.224C336.556 312.224 341.164 313.291 345.516 315.424C349.868 317.557 353.537 320.544 356.524 324.384C357.121 325.067 357.377 325.835 357.292 326.688C357.207 327.541 356.823 328.267 356.14 328.864C355.372 329.376 354.519 329.589 353.58 329.504C352.727 329.333 352.044 328.949 351.532 328.352C349.143 325.28 346.199 322.891 342.7 321.184C339.201 319.477 335.532 318.624 331.692 318.624C323.756 318.624 317.527 320.885 313.004 325.408C308.567 329.845 306.348 336.032 306.348 343.968V374.56C306.348 382.496 308.567 388.725 313.004 393.248C317.527 397.685 323.756 399.904 331.692 399.904C335.532 399.904 339.201 399.093 342.7 397.472C346.199 395.765 349.143 393.376 351.532 390.304C352.044 389.621 352.727 389.237 353.58 389.152C354.519 388.981 355.372 389.195 356.14 389.792C356.823 390.304 357.207 391.029 357.292 391.968C357.377 392.821 357.121 393.589 356.524 394.272C353.537 398.112 349.868 401.099 345.516 403.232C341.164 405.28 336.556 406.304 331.692 406.304Z"/>
</mask>
<path d="M159.424 401.696L153.532 412.15L153.572 412.172L153.612 412.195L159.424 401.696ZM148.416 390.56L137.917 396.372H137.917L148.416 390.56ZM148.416 327.584L158.87 333.476L158.892 333.436L158.915 333.396L148.416 327.584ZM159.424 316.448L153.612 305.949L153.572 305.972L153.532 305.994L159.424 316.448ZM192.832 316.448L186.94 326.902L186.98 326.924L187.02 326.947L192.832 316.448ZM203.968 327.584L193.469 333.396L193.492 333.436L193.514 333.476L203.968 327.584ZM203.968 390.56L214.467 396.372L203.968 390.56ZM192.832 401.696L187.02 391.197L186.98 391.22L186.94 391.242L192.832 401.696ZM189.504 396.192L195.25 406.727L195.291 406.704L195.332 406.682L189.504 396.192ZM198.336 387.232L187.846 381.404L187.796 381.494L187.748 381.585L198.336 387.232ZM198.336 330.912L187.748 336.559L187.823 336.701L187.903 336.84L198.336 330.912ZM189.504 322.08L183.576 332.513L183.715 332.593L183.857 332.668L189.504 322.08ZM162.752 322.08L168.498 332.615L168.539 332.592L168.58 332.57L162.752 322.08ZM153.92 330.912L143.43 325.084L143.408 325.125L143.385 325.166L153.92 330.912ZM153.92 387.232L143.332 392.879L143.38 392.97L143.43 393.06L153.92 387.232ZM162.752 396.192L156.824 406.625L156.963 406.705L157.105 406.78L162.752 396.192ZM176.192 393.664C171.474 393.664 167.952 392.701 165.236 391.197L153.612 412.195C160.453 415.982 168.11 417.664 176.192 417.664V393.664ZM165.316 391.242C162.587 389.704 160.5 387.611 158.915 384.748L137.917 396.372C141.623 403.066 146.875 408.398 153.532 412.15L165.316 391.242ZM158.915 384.748C157.398 382.009 156.448 378.522 156.448 373.92H132.448C132.448 381.948 134.143 389.554 137.917 396.372L158.915 384.748ZM156.448 373.92V344.224H132.448V373.92H156.448ZM156.448 344.224C156.448 339.5 157.413 336.06 158.87 333.476L137.962 321.692C134.128 328.494 132.448 336.148 132.448 344.224H156.448ZM158.915 333.396C160.5 330.533 162.587 328.44 165.316 326.902L153.532 305.994C146.875 309.746 141.623 315.078 137.917 321.772L158.915 333.396ZM165.236 326.947C167.952 325.443 171.474 324.48 176.192 324.48V300.48C168.11 300.48 160.453 302.162 153.612 305.949L165.236 326.947ZM176.192 324.48C180.916 324.48 184.356 325.445 186.94 326.902L198.724 305.994C191.922 302.16 184.268 300.48 176.192 300.48V324.48ZM187.02 326.947C189.828 328.501 191.915 330.588 193.469 333.396L214.467 321.772C210.73 315.022 205.394 309.686 198.644 305.949L187.02 326.947ZM193.514 333.476C194.971 336.06 195.936 339.5 195.936 344.224H219.936C219.936 336.148 218.256 328.494 214.422 321.692L193.514 333.476ZM195.936 344.224V373.92H219.936V344.224H195.936ZM195.936 373.92C195.936 378.522 194.986 382.009 193.469 384.748L214.467 396.372C218.241 389.554 219.936 381.948 219.936 373.92H195.936ZM193.469 384.748C191.915 387.556 189.828 389.643 187.02 391.197L198.644 412.195C205.394 408.458 210.73 403.122 214.467 396.372L193.469 384.748ZM186.94 391.242C184.356 392.699 180.916 393.664 176.192 393.664V417.664C184.268 417.664 191.922 415.984 198.724 412.15L186.94 391.242ZM176.192 411.264C182.925 411.264 189.416 409.909 195.25 406.727L183.758 385.657C182.082 386.571 179.699 387.264 176.192 387.264V411.264ZM195.332 406.682C201.172 403.438 205.778 398.778 208.924 392.879L187.748 381.585C186.798 383.366 185.516 384.68 183.676 385.702L195.332 406.682ZM208.826 393.06C212.086 387.191 213.536 380.693 213.536 373.92H189.536C189.536 377.217 188.852 379.593 187.846 381.404L208.826 393.06ZM213.536 373.92V344.224H189.536V373.92H213.536ZM213.536 344.224C213.536 337.413 212.105 330.855 208.769 324.984L187.903 336.84C188.833 338.479 189.536 340.795 189.536 344.224H213.536ZM208.924 325.265C205.756 319.324 201.092 314.66 195.151 311.492L183.857 332.668C185.596 333.596 186.82 334.82 187.748 336.559L208.924 325.265ZM195.432 311.647C189.561 308.311 183.003 306.88 176.192 306.88V330.88C179.621 330.88 181.937 331.583 183.576 332.513L195.432 311.647ZM176.192 306.88C169.373 306.88 162.822 308.313 156.924 311.59L168.58 332.57C170.362 331.58 172.771 330.88 176.192 330.88V306.88ZM157.006 311.545C151.2 314.712 146.636 319.315 143.43 325.084L164.41 336.74C165.471 334.829 166.795 333.544 168.498 332.615L157.006 311.545ZM143.385 325.166C140.203 331 138.848 337.491 138.848 344.224H162.848C162.848 340.717 163.541 338.334 164.455 336.658L143.385 325.166ZM138.848 344.224V373.92H162.848V344.224H138.848ZM138.848 373.92C138.848 380.614 140.221 387.046 143.332 392.879L164.508 381.585C163.523 379.738 162.848 377.296 162.848 373.92H138.848ZM143.43 393.06C146.613 398.789 151.12 403.385 156.824 406.625L168.68 385.759C166.874 384.732 165.493 383.355 164.41 381.404L143.43 393.06ZM157.105 406.78C162.966 409.906 169.45 411.264 176.192 411.264V387.264C172.694 387.264 170.218 386.574 168.399 385.604L157.105 406.78ZM237.239 402.464L232.873 413.641L237.239 402.464ZM223.671 393.504L232.444 385.316L231.971 384.81L231.443 384.361L223.671 393.504ZM223.799 389.024L231.608 398.135L231.691 398.065L231.771 397.993L223.799 389.024ZM228.151 389.152L219.413 397.376L219.423 397.387L219.433 397.398L228.151 389.152ZM271.543 369.056L264.163 378.518L271.543 369.056ZM251.575 362.016L249.621 373.856L249.702 373.869L249.784 373.882L251.575 362.016ZM232.119 353.696L223.722 362.268L232.119 353.696ZM233.143 318.88L240.966 327.98L241.011 327.941L241.056 327.901L233.143 318.88ZM267.191 315.04L271.227 303.739L271.227 303.739L267.191 315.04ZM280.503 322.08L288.233 312.901L287.912 312.631L287.573 312.384L280.503 322.08ZM281.015 326.56L271.596 319.124L271.504 319.241L271.415 319.36L281.015 326.56ZM276.663 327.2L284.099 317.781L284 317.704L283.9 317.628L276.663 327.2ZM265.143 321.056L261.137 332.368L261.173 332.38L261.21 332.393L265.143 321.056ZM237.751 323.616L245.454 332.817L245.464 332.809L245.474 332.8L237.751 323.616ZM237.111 349.472L228.74 358.07L228.854 358.181L228.972 358.29L237.111 349.472ZM252.599 355.744L250.72 367.596L250.778 367.605L250.837 367.614L252.599 355.744ZM276.663 364.704L268.891 373.847L268.936 373.885L268.981 373.923L276.663 364.704ZM276.535 399.52L283.956 408.95L284.003 408.913L284.05 408.875L276.535 399.52ZM254.647 393.664C249.924 393.664 245.609 392.85 241.605 391.287L232.873 413.641C239.792 416.344 247.082 417.664 254.647 417.664V393.664ZM241.605 391.287C237.622 389.73 234.665 387.696 232.444 385.316L214.898 401.692C219.845 406.992 225.934 410.931 232.873 413.641L241.605 391.287ZM231.443 384.361C231.944 384.787 234.544 387.222 234.418 391.639C234.299 395.812 231.818 397.955 231.608 398.135L215.99 379.913C213.988 381.629 210.59 385.287 210.428 390.953C210.259 396.863 213.691 400.77 215.899 402.647L231.443 384.361ZM231.771 397.993C231.205 398.496 229.093 400.127 225.686 400.027C222.189 399.924 220.082 398.087 219.413 397.376L236.889 380.928C234.855 378.766 231.339 376.183 226.392 376.037C221.534 375.894 217.929 378.186 215.827 380.055L231.771 397.993ZM219.433 397.398C223.837 402.054 229.276 405.452 235.391 407.787L243.951 385.365C240.679 384.116 238.438 382.565 236.869 380.906L219.433 397.398ZM235.391 407.787C241.522 410.128 247.972 411.264 254.647 411.264V387.264C250.741 387.264 247.206 386.608 243.951 385.365L235.391 407.787ZM254.647 411.264C263.434 411.264 271.985 409.5 278.869 404.48L264.729 385.088C263.421 386.041 260.537 387.264 254.647 387.264V411.264ZM278.869 404.48C286.219 399.121 289.943 391.296 289.943 382.368H265.943C265.943 383.437 265.745 383.929 265.652 384.118C265.567 384.289 265.37 384.621 264.729 385.088L278.869 404.48ZM289.943 382.368C289.943 373.232 286.19 365.262 278.923 359.594L264.163 378.518C265.43 379.506 265.943 380.41 265.943 382.368H289.943ZM278.923 359.594C272.268 354.403 263.212 351.637 253.366 350.15L249.784 373.882C258.029 375.126 262.285 377.053 264.163 378.518L278.923 359.594ZM253.529 350.176C245.982 348.93 242.236 346.808 240.516 345.124L223.722 362.268C230.365 368.776 239.59 372.2 249.621 373.856L253.529 350.176ZM240.516 345.124C239.192 343.827 237.847 341.524 237.847 336.544H213.847C213.847 346.242 216.683 355.373 223.722 362.268L240.516 345.124ZM237.847 336.544C237.847 331.737 239.248 329.457 240.966 327.98L225.32 309.78C217.31 316.666 213.847 326.161 213.847 336.544H237.847ZM241.056 327.901C243.092 326.115 246.68 324.48 253.367 324.48V300.48C242.817 300.48 232.922 303.112 225.23 309.859L241.056 327.901ZM253.367 324.48C256.247 324.48 259.488 325.031 263.155 326.341L271.227 303.739C265.336 301.635 259.362 300.48 253.367 300.48V324.48ZM263.155 326.341C266.852 327.661 270.267 329.468 273.433 331.776L287.573 312.384C282.547 308.719 277.088 305.832 271.227 303.739L263.155 326.341ZM272.773 331.259C272.205 330.78 270.308 328.942 269.925 325.587C269.533 322.157 271.023 319.85 271.596 319.124L290.434 333.996C292.287 331.648 294.332 327.784 293.769 322.861C293.215 318.012 290.423 314.745 288.233 312.901L272.773 331.259ZM271.415 319.36C271.811 318.832 273.632 316.655 277.221 316.128C280.915 315.584 283.4 317.23 284.099 317.781L269.227 336.619C271.548 338.45 275.568 340.629 280.713 339.872C285.752 339.131 288.939 335.995 290.615 333.76L271.415 319.36ZM283.9 317.628C279.39 314.218 274.434 311.578 269.076 309.719L261.21 332.393C264.215 333.436 266.938 334.891 269.426 336.772L283.9 317.628ZM269.149 309.744C263.965 307.909 258.683 306.88 253.367 306.88V330.88C255.561 330.88 258.129 331.302 261.137 332.368L269.149 309.744ZM253.367 306.88C244.895 306.88 236.609 308.897 230.028 314.432L245.474 332.8C246.402 332.02 248.527 330.88 253.367 330.88V306.88ZM230.048 314.415C223.207 320.142 220.247 328.075 220.247 336.544H244.247C244.247 333.92 244.957 333.234 245.454 332.817L230.048 314.415ZM220.247 336.544C220.247 344.525 222.708 352.197 228.74 358.07L245.482 340.874C245.028 340.432 244.247 339.485 244.247 336.544H220.247ZM228.972 358.29C234.768 363.64 242.601 366.309 250.72 367.596L254.478 343.892C248.603 342.961 246.11 341.448 245.25 340.654L228.972 358.29ZM250.837 367.614C260.823 369.096 266.254 371.605 268.891 373.847L284.435 355.561C276.832 349.099 266.22 345.634 254.361 343.874L250.837 367.614ZM268.981 373.923C270.997 375.603 272.343 377.912 272.343 382.368H296.343C296.343 371.805 292.569 362.338 284.345 355.485L268.981 373.923ZM272.343 382.368C272.343 386.344 271.121 388.477 269.02 390.165L284.05 408.875C292.36 402.201 296.343 392.899 296.343 382.368H272.343ZM269.114 390.09C266.75 391.95 262.439 393.664 254.647 393.664V417.664C265.628 417.664 275.91 415.282 283.956 408.95L269.114 390.09ZM308.268 397.984L299.718 406.404L299.782 406.47L299.848 406.534L308.268 397.984ZM308.268 320.672L316.753 329.157L308.268 320.672ZM356.524 324.384L347.052 331.751L347.265 332.025L347.493 332.286L356.524 324.384ZM357.292 326.688L345.352 325.494L345.352 325.494L357.292 326.688ZM356.14 328.864L362.796 338.849L363.45 338.413L364.042 337.895L356.14 328.864ZM353.58 329.504L351.227 341.271L351.855 341.397L352.494 341.455L353.58 329.504ZM351.532 328.352L342.06 335.719L342.235 335.945L342.421 336.162L351.532 328.352ZM342.7 321.184L337.439 331.969L337.439 331.969L342.7 321.184ZM313.004 325.408L321.489 333.893V333.893L313.004 325.408ZM313.004 393.248L304.438 401.652L304.518 401.734L304.6 401.814L313.004 393.248ZM342.7 397.472L347.746 408.36L347.854 408.31L347.961 408.257L342.7 397.472ZM351.532 390.304L361.004 397.671L361.069 397.588L361.132 397.504L351.532 390.304ZM353.58 389.152L354.774 401.092L355.253 401.045L355.727 400.958L353.58 389.152ZM356.14 389.792L348.773 399.264L348.856 399.329L348.94 399.392L356.14 389.792ZM357.292 391.968L345.341 393.054L345.346 393.108L345.352 393.162L357.292 391.968ZM356.524 394.272L347.493 386.37L347.265 386.631L347.052 386.905L356.524 394.272ZM345.516 403.232L350.626 414.09L350.712 414.049L350.798 414.007L345.516 403.232ZM331.692 394.304C323.989 394.304 319.523 392.226 316.688 389.434L299.848 406.534C308.277 414.835 319.427 418.304 331.692 418.304V394.304ZM316.818 389.564C314.026 386.729 311.948 382.263 311.948 374.56H287.948C287.948 386.825 291.417 397.975 299.718 406.404L316.818 389.564ZM311.948 374.56V343.968H287.948V374.56H311.948ZM311.948 343.968C311.948 336.255 314.029 331.882 316.753 329.157L299.783 312.187C291.414 320.555 287.948 331.713 287.948 343.968H311.948ZM316.753 329.157C319.597 326.314 324.039 324.224 331.692 324.224V300.224C319.377 300.224 308.203 303.766 299.783 312.187L316.753 329.157ZM331.692 324.224C334.732 324.224 337.532 324.875 340.234 326.199L350.798 304.649C344.796 301.707 338.38 300.224 331.692 300.224V324.224ZM340.234 326.199C342.942 327.527 345.18 329.345 347.052 331.751L365.996 317.017C361.894 311.743 356.794 307.588 350.798 304.649L340.234 326.199ZM347.493 332.286C346.869 331.573 346.213 330.567 345.78 329.267C345.341 327.951 345.236 326.649 345.352 325.494L369.232 327.882C369.669 323.517 368.197 319.502 365.555 316.482L347.493 332.286ZM345.352 325.494C345.456 324.445 345.767 323.329 346.335 322.257C346.896 321.196 347.593 320.397 348.238 319.833L364.042 337.895C366.871 335.42 368.825 331.952 369.232 327.882L345.352 325.494ZM349.484 318.879C350.187 318.41 351.041 318.009 352.014 317.766C352.983 317.524 353.892 317.483 354.666 317.553L352.494 341.455C356.099 341.783 359.696 340.916 362.796 338.849L349.484 318.879ZM355.933 317.737C357.416 318.034 359.222 318.884 360.643 320.542L342.421 336.162C344.866 339.014 348.037 340.633 351.227 341.271L355.933 317.737ZM361.004 320.985C357.49 316.467 353.105 312.908 347.961 310.399L337.439 331.969C339.292 332.873 340.795 334.093 342.06 335.719L361.004 320.985ZM347.961 310.399C342.847 307.904 337.381 306.624 331.692 306.624V330.624C333.683 330.624 335.556 331.051 337.439 331.969L347.961 310.399ZM331.692 306.624C321.385 306.624 311.807 309.634 304.519 316.923L321.489 333.893C323.246 332.136 326.127 330.624 331.692 330.624V306.624ZM304.519 316.923C297.273 324.168 294.348 333.736 294.348 343.968H318.348C318.348 338.328 319.86 335.523 321.489 333.893L304.519 316.923ZM294.348 343.968V374.56H318.348V343.968H294.348ZM294.348 374.56C294.348 384.804 297.277 394.353 304.438 401.652L321.57 384.844C319.857 383.098 318.348 380.188 318.348 374.56H294.348ZM304.6 401.814C311.899 408.975 321.448 411.904 331.692 411.904V387.904C326.064 387.904 323.154 386.395 321.408 384.682L304.6 401.814ZM331.692 411.904C337.282 411.904 342.673 410.711 347.746 408.36L337.654 386.584C335.73 387.476 333.782 387.904 331.692 387.904V411.904ZM347.961 408.257C353.105 405.748 357.49 402.189 361.004 397.671L342.06 382.937C340.795 384.563 339.292 385.783 337.439 386.687L347.961 408.257ZM361.132 397.504C360.479 398.375 359.547 399.268 358.311 399.963C357.076 400.657 355.838 400.986 354.774 401.092L352.386 377.212C348.21 377.629 344.471 379.719 341.932 383.104L361.132 397.504ZM355.727 400.958C354.662 401.152 353.378 401.167 352.014 400.826C350.655 400.486 349.566 399.882 348.773 399.264L363.507 380.32C360.105 377.674 355.806 376.55 351.433 377.346L355.727 400.958ZM348.94 399.392C347.924 398.63 347.003 397.598 346.335 396.335C345.68 395.099 345.421 393.936 345.341 393.054L369.243 390.882C368.886 386.955 367.041 382.968 363.34 380.192L348.94 399.392ZM345.352 393.162C345.236 392.007 345.341 390.705 345.78 389.389C346.213 388.089 346.869 387.083 347.493 386.37L365.555 402.174C368.197 399.154 369.669 395.139 369.232 390.774L345.352 393.162ZM347.052 386.905C345.18 389.311 342.942 391.129 340.234 392.457L350.798 414.007C356.794 411.068 361.894 406.913 365.996 401.639L347.052 386.905ZM340.406 392.374C337.671 393.661 334.81 394.304 331.692 394.304V418.304C338.302 418.304 344.657 416.899 350.626 414.09L340.406 392.374Z" fill="white" mask="url(#path-6-outside-2_986_601)"/>
</g>
<defs>
<clipPath id="clip0_986_601">
<rect width="256" height="160" fill="white" transform="translate(128 272)"/>
</clipPath>
</defs>
</svg>
