<svg width="32" height="30" viewBox="0 0 32 30" fill="none" xmlns="http://www.w3.org/2000/svg">
<rect x="2" y="5" width="28" height="20" rx="2" fill="white"/>
<mask id="mask0_82_1970" style="mask-type:luminance" maskUnits="userSpaceOnUse" x="2" y="5" width="28" height="20">
<rect x="2" y="5" width="28" height="20" rx="2" fill="white"/>
</mask>
<g mask="url(#mask0_82_1970)">
<path fill-rule="evenodd" clip-rule="evenodd" d="M30 5H2V6.33333H30V5ZM30 7.66667H2V9H30V7.66667ZM2 10.3333H30V11.6667H2V10.3333ZM30 13H2V14.3333H30V13ZM2 15.6667H30V17H2V15.6667ZM30 18.3333H2V19.6667H30V18.3333ZM2 21H30V22.3333H2V21ZM30 23.6667H2V25H30V23.6667Z" fill="#D02F44"/>
<rect x="2" y="5" width="12" height="9.33333" fill="#46467F"/>
<g filter="url(#filter0_d_82_1970)">
<path fill-rule="evenodd" clip-rule="evenodd" d="M4.66668 6.99998C4.66668 7.36817 4.3682 7.66665 4.00001 7.66665C3.63182 7.66665 3.33334 7.36817 3.33334 6.99998C3.33334 6.63179 3.63182 6.33331 4.00001 6.33331C4.3682 6.33331 4.66668 6.63179 4.66668 6.99998ZM7.33334 6.99998C7.33334 7.36817 7.03487 7.66665 6.66668 7.66665C6.29849 7.66665 6.00001 7.36817 6.00001 6.99998C6.00001 6.63179 6.29849 6.33331 6.66668 6.33331C7.03487 6.33331 7.33334 6.63179 7.33334 6.99998ZM9.33334 7.66665C9.70153 7.66665 10 7.36817 10 6.99998C10 6.63179 9.70153 6.33331 9.33334 6.33331C8.96515 6.33331 8.66668 6.63179 8.66668 6.99998C8.66668 7.36817 8.96515 7.66665 9.33334 7.66665ZM12.6667 6.99998C12.6667 7.36817 12.3682 7.66665 12 7.66665C11.6318 7.66665 11.3333 7.36817 11.3333 6.99998C11.3333 6.63179 11.6318 6.33331 12 6.33331C12.3682 6.33331 12.6667 6.63179 12.6667 6.99998ZM5.33334 8.99998C5.70153 8.99998 6.00001 8.7015 6.00001 8.33331C6.00001 7.96512 5.70153 7.66665 5.33334 7.66665C4.96515 7.66665 4.66668 7.96512 4.66668 8.33331C4.66668 8.7015 4.96515 8.99998 5.33334 8.99998ZM8.66668 8.33331C8.66668 8.7015 8.3682 8.99998 8.00001 8.99998C7.63182 8.99998 7.33334 8.7015 7.33334 8.33331C7.33334 7.96512 7.63182 7.66665 8.00001 7.66665C8.3682 7.66665 8.66668 7.96512 8.66668 8.33331ZM10.6667 8.99998C11.0349 8.99998 11.3333 8.7015 11.3333 8.33331C11.3333 7.96512 11.0349 7.66665 10.6667 7.66665C10.2985 7.66665 10 7.96512 10 8.33331C10 8.7015 10.2985 8.99998 10.6667 8.99998ZM12.6667 9.66665C12.6667 10.0348 12.3682 10.3333 12 10.3333C11.6318 10.3333 11.3333 10.0348 11.3333 9.66665C11.3333 9.29846 11.6318 8.99998 12 8.99998C12.3682 8.99998 12.6667 9.29846 12.6667 9.66665ZM9.33334 10.3333C9.70153 10.3333 10 10.0348 10 9.66665C10 9.29846 9.70153 8.99998 9.33334 8.99998C8.96515 8.99998 8.66668 9.29846 8.66668 9.66665C8.66668 10.0348 8.96515 10.3333 9.33334 10.3333ZM7.33334 9.66665C7.33334 10.0348 7.03487 10.3333 6.66668 10.3333C6.29849 10.3333 6.00001 10.0348 6.00001 9.66665C6.00001 9.29846 6.29849 8.99998 6.66668 8.99998C7.03487 8.99998 7.33334 9.29846 7.33334 9.66665ZM4.00001 10.3333C4.3682 10.3333 4.66668 10.0348 4.66668 9.66665C4.66668 9.29846 4.3682 8.99998 4.00001 8.99998C3.63182 8.99998 3.33334 9.29846 3.33334 9.66665C3.33334 10.0348 3.63182 10.3333 4.00001 10.3333ZM6.00001 11C6.00001 11.3682 5.70153 11.6666 5.33334 11.6666C4.96515 11.6666 4.66668 11.3682 4.66668 11C4.66668 10.6318 4.96515 10.3333 5.33334 10.3333C5.70153 10.3333 6.00001 10.6318 6.00001 11ZM8.00001 11.6666C8.3682 11.6666 8.66668 11.3682 8.66668 11C8.66668 10.6318 8.3682 10.3333 8.00001 10.3333C7.63182 10.3333 7.33334 10.6318 7.33334 11C7.33334 11.3682 7.63182 11.6666 8.00001 11.6666ZM11.3333 11C11.3333 11.3682 11.0349 11.6666 10.6667 11.6666C10.2985 11.6666 10 11.3682 10 11C10 10.6318 10.2985 10.3333 10.6667 10.3333C11.0349 10.3333 11.3333 10.6318 11.3333 11ZM12 13C12.3682 13 12.6667 12.7015 12.6667 12.3333C12.6667 11.9651 12.3682 11.6666 12 11.6666C11.6318 11.6666 11.3333 11.9651 11.3333 12.3333C11.3333 12.7015 11.6318 13 12 13ZM10 12.3333C10 12.7015 9.70153 13 9.33334 13C8.96515 13 8.66668 12.7015 8.66668 12.3333C8.66668 11.9651 8.96515 11.6666 9.33334 11.6666C9.70153 11.6666 10 11.9651 10 12.3333ZM6.66668 13C7.03487 13 7.33334 12.7015 7.33334 12.3333C7.33334 11.9651 7.03487 11.6666 6.66668 11.6666C6.29849 11.6666 6.00001 11.9651 6.00001 12.3333C6.00001 12.7015 6.29849 13 6.66668 13ZM4.66668 12.3333C4.66668 12.7015 4.3682 13 4.00001 13C3.63182 13 3.33334 12.7015 3.33334 12.3333C3.33334 11.9651 3.63182 11.6666 4.00001 11.6666C4.3682 11.6666 4.66668 11.9651 4.66668 12.3333Z" fill="url(#paint0_linear_82_1970)"/>
</g>
</g>
<defs>
<filter id="filter0_d_82_1970" x="3.33334" y="6.33331" width="9.33334" height="7.66669" filterUnits="userSpaceOnUse" color-interpolation-filters="sRGB">
<feFlood flood-opacity="0" result="BackgroundImageFix"/>
<feColorMatrix in="SourceAlpha" type="matrix" values="0 0 0 0 0 0 0 0 0 0 0 0 0 0 0 0 0 0 127 0" result="hardAlpha"/>
<feOffset dy="1"/>
<feColorMatrix type="matrix" values="0 0 0 0 0 0 0 0 0 0 0 0 0 0 0 0 0 0 0.06 0"/>
<feBlend mode="normal" in2="BackgroundImageFix" result="effect1_dropShadow_82_1970"/>
<feBlend mode="normal" in="SourceGraphic" in2="effect1_dropShadow_82_1970" result="shape"/>
</filter>
<linearGradient id="paint0_linear_82_1970" x1="3.33334" y1="6.33331" x2="3.33334" y2="13" gradientUnits="userSpaceOnUse">
<stop stop-color="white"/>
<stop offset="1" stop-color="#F0F0F0"/>
</linearGradient>
</defs>
</svg>
