<svg width="157" height="47" viewBox="0 0 157 47" fill="none" xmlns="http://www.w3.org/2000/svg">
<rect x="0.496094" y="0.228027" width="155.52" height="46.368" rx="16.5888" fill="#1F1F1F"/>
<path d="M15.1988 24.9482L19.7896 10.1135H26.8448L25.4225 14.7124C25.4084 14.7387 25.3943 14.765 25.3802 14.7912L21.6344 26.9323H25.1267C23.6622 30.3354 22.5215 33.0028 21.7048 34.9343C15.2551 34.8686 13.4526 30.5588 15.0298 25.4606M21.7329 34.9474L30.2386 23.5291H26.6335L29.7739 16.2103C35.1532 16.7359 37.688 20.6909 36.1953 25.4738C34.604 30.6114 28.1544 34.9474 21.8738 34.9474C21.8174 34.9474 21.7752 34.9474 21.7329 34.9474Z" fill="url(#paint0_linear_1471_1375)"/>
<path d="M53.1987 32.6452C53.0328 32.6452 52.8918 32.5871 52.7757 32.471C52.6595 32.3549 52.6015 32.2139 52.6015 32.048V12.7138C52.6015 12.5479 52.6595 12.4152 52.7757 12.3156C52.8918 12.1995 53.0328 12.1414 53.1987 12.1414C53.3646 12.1414 53.4973 12.1995 53.5968 12.3156C53.7129 12.4152 53.771 12.5479 53.771 12.7138V32.048C53.771 32.2139 53.7129 32.3549 53.5968 32.471C53.4973 32.5871 53.3646 32.6452 53.1987 32.6452Z" fill="white"/>
<path d="M74.9843 31.3015C74.8184 31.3015 74.6691 31.2435 74.5364 31.1273C74.4202 30.9946 74.3622 30.8453 74.3622 30.6794V14.5054C74.3622 14.3229 74.4202 14.1736 74.5364 14.0575C74.6691 13.9413 74.8184 13.8833 74.9843 13.8833H80.5083C81.9184 13.8833 83.0547 14.2897 83.9173 15.1025C84.7965 15.9154 85.2361 16.9854 85.2361 18.3125C85.2361 19.0424 85.0371 19.7806 84.6389 20.5271C84.2574 21.2736 83.6021 21.8791 82.6732 22.3436C84.5975 23.0403 85.5596 24.4669 85.5596 26.6235C85.5596 28.0667 85.12 29.2113 84.2408 30.0574C83.3616 30.8868 82.1589 31.3015 80.6327 31.3015H74.9843ZM75.6063 30.0822H80.6327C81.8271 30.0822 82.7395 29.7836 83.3699 29.1864C84.0003 28.5892 84.3155 27.7349 84.3155 26.6235C84.3155 26.1922 84.2574 25.7691 84.1413 25.3544C84.0417 24.9397 83.8178 24.5582 83.4694 24.2098C83.1377 23.8448 82.6317 23.5628 81.9516 23.3638C81.288 23.1481 80.3922 23.0403 79.2642 23.0403H77.597C77.4145 23.0403 77.2652 22.9822 77.1491 22.8661C77.033 22.7334 76.9749 22.5841 76.9749 22.4182C76.9749 22.2357 77.033 22.0864 77.1491 21.9703C77.2652 21.8542 77.4145 21.7961 77.597 21.7961H79.2642C80.4254 21.7961 81.3461 21.6219 82.0262 21.2736C82.7229 20.9252 83.2206 20.4856 83.5192 19.9548C83.8344 19.4239 83.992 18.8765 83.992 18.3125C83.992 17.3337 83.6768 16.5624 83.0464 15.9983C82.416 15.4177 81.57 15.1274 80.5083 15.1274H75.6063V30.0822ZM92.2159 31.625C90.8058 31.625 89.6944 31.1439 88.8815 30.1818C88.0687 29.203 87.6622 27.8842 87.6622 26.2253C87.6622 24.5499 88.0687 23.2311 88.8815 22.2689C89.6944 21.3068 90.8058 20.8257 92.2159 20.8257C93.6093 20.8257 94.7125 21.3068 95.5253 22.2689C96.3548 23.2311 96.7695 24.5499 96.7695 26.2253C96.7695 27.8842 96.3548 29.203 95.5253 30.1818C94.7125 31.1439 93.6093 31.625 92.2159 31.625ZM92.2159 30.4306C93.2941 30.4306 94.1236 30.0656 94.7042 29.3357C95.2848 28.6058 95.5751 27.569 95.5751 26.2253C95.5751 24.8982 95.2848 23.8697 94.7042 23.1398C94.1236 22.4099 93.2941 22.045 92.2159 22.045C91.1542 22.045 90.3248 22.4099 89.7276 23.1398C89.1304 23.8697 88.8318 24.8982 88.8318 26.2253C88.8318 27.569 89.1304 28.6058 89.7276 29.3357C90.3248 30.0656 91.1542 30.4306 92.2159 30.4306ZM103.418 31.625C102.008 31.625 100.897 31.1439 100.084 30.1818C99.271 29.203 98.8645 27.8842 98.8645 26.2253C98.8645 24.5499 99.271 23.2311 100.084 22.2689C100.897 21.3068 102.008 20.8257 103.418 20.8257C104.812 20.8257 105.915 21.3068 106.728 22.2689C107.557 23.2311 107.972 24.5499 107.972 26.2253C107.972 27.8842 107.557 29.203 106.728 30.1818C105.915 31.1439 104.812 31.625 103.418 31.625ZM103.418 30.4306C104.496 30.4306 105.326 30.0656 105.906 29.3357C106.487 28.6058 106.777 27.569 106.777 26.2253C106.777 24.8982 106.487 23.8697 105.906 23.1398C105.326 22.4099 104.496 22.045 103.418 22.045C102.356 22.045 101.527 22.4099 100.93 23.1398C100.333 23.8697 100.034 24.8982 100.034 26.2253C100.034 27.569 100.333 28.6058 100.93 29.3357C101.527 30.0656 102.356 30.4306 103.418 30.4306ZM114.341 31.625C113.395 31.625 112.558 31.4176 111.828 31.0029C111.114 30.5882 110.608 30.0325 110.31 29.3357C110.243 29.1864 110.243 29.0371 110.31 28.8878C110.376 28.7385 110.484 28.6307 110.633 28.5644C110.783 28.498 110.932 28.498 111.081 28.5644C111.231 28.6307 111.338 28.7385 111.405 28.8878C111.62 29.3689 111.985 29.7505 112.5 30.0325C113.03 30.2979 113.644 30.4306 114.341 30.4306C115.054 30.4306 115.61 30.3642 116.008 30.2315C116.406 30.0822 116.688 29.9081 116.854 29.709C117.037 29.4933 117.144 29.286 117.178 29.0869C117.227 28.8713 117.252 28.7054 117.252 28.5892C117.252 28.3404 117.194 28.0999 117.078 27.8676C116.962 27.6354 116.713 27.4197 116.332 27.2207C115.95 27.005 115.361 26.8142 114.565 26.6484C114.001 26.5322 113.412 26.3663 112.798 26.1507C112.201 25.935 111.695 25.6364 111.28 25.2549C110.866 24.8568 110.658 24.3425 110.658 23.7121C110.675 22.8661 111.031 22.1777 111.728 21.6468C112.425 21.0994 113.329 20.8257 114.44 20.8257C115.27 20.8257 116.016 21.0082 116.68 21.3731C117.36 21.7215 117.858 22.2026 118.173 22.8163C118.256 22.9491 118.272 23.0984 118.223 23.2642C118.173 23.4135 118.082 23.5297 117.949 23.6126C117.783 23.679 117.626 23.6955 117.476 23.6624C117.327 23.6126 117.219 23.5131 117.153 23.3638C116.97 23.032 116.655 22.7334 116.207 22.468C115.759 22.186 115.17 22.045 114.44 22.045C114.026 22.045 113.619 22.103 113.221 22.2191C112.823 22.3187 112.491 22.4929 112.226 22.7417C111.977 22.9739 111.844 23.3057 111.828 23.737C111.828 23.8366 111.869 23.9941 111.952 24.2098C112.035 24.4089 112.284 24.6245 112.699 24.8568C113.113 25.089 113.81 25.3047 114.789 25.5037C115.369 25.6198 115.933 25.794 116.481 26.0263C117.045 26.2419 117.509 26.5571 117.874 26.9718C118.256 27.37 118.438 27.9091 118.422 28.5892C118.422 28.8713 118.372 29.1864 118.272 29.5348C118.173 29.8832 117.982 30.2149 117.7 30.5301C117.418 30.8453 117.003 31.1024 116.456 31.3015C115.925 31.5172 115.22 31.625 114.341 31.625ZM125.262 31.5006C124.582 31.5006 124.043 31.3098 123.645 30.9283C123.263 30.5301 123.072 30.0076 123.072 29.3606V22.3684H120.684C120.518 22.3684 120.377 22.3104 120.261 22.1943C120.161 22.0781 120.111 21.9371 120.111 21.7712C120.111 21.6054 120.161 21.4726 120.261 21.3731C120.377 21.257 120.518 21.1989 120.684 21.1989H123.072V17.5411C123.072 17.3752 123.122 17.2342 123.222 17.1181C123.338 17.002 123.479 16.9439 123.645 16.9439C123.811 16.9439 123.952 17.002 124.068 17.1181C124.184 17.2342 124.242 17.3752 124.242 17.5411V21.1989H127.327C127.493 21.1989 127.634 21.257 127.75 21.3731C127.867 21.4726 127.925 21.6054 127.925 21.7712C127.925 21.9371 127.867 22.0781 127.75 22.1943C127.634 22.3104 127.493 22.3684 127.327 22.3684H124.242V29.3606C124.242 29.427 124.25 29.5431 124.267 29.709C124.3 29.8583 124.391 29.9993 124.541 30.132C124.69 30.2481 124.93 30.3062 125.262 30.3062H127.203C127.385 30.3062 127.535 30.3642 127.651 30.4804C127.767 30.5965 127.825 30.7375 127.825 30.9034C127.825 31.0693 127.767 31.2103 127.651 31.3264C127.535 31.4425 127.385 31.5006 127.203 31.5006H125.262ZM132.207 36.8256C132.041 36.7592 131.925 36.6514 131.859 36.5021C131.792 36.3528 131.792 36.2035 131.859 36.0542L133.7 31.3762L129.793 21.6468C129.727 21.4975 129.727 21.3482 129.793 21.1989C129.86 21.0496 129.967 20.9418 130.117 20.8755C130.266 20.8257 130.415 20.834 130.565 20.9003C130.714 20.9501 130.822 21.0579 130.888 21.2238L134.347 29.7836L137.731 21.2238C137.797 21.0579 137.897 20.9501 138.03 20.9003C138.179 20.834 138.336 20.8257 138.502 20.8755C138.652 20.9418 138.759 21.0496 138.826 21.1989C138.892 21.3482 138.892 21.4975 138.826 21.6468L132.953 36.5021C132.887 36.6514 132.779 36.7509 132.63 36.8007C132.497 36.8671 132.356 36.8754 132.207 36.8256Z" fill="white"/>
<defs>
<linearGradient id="paint0_linear_1471_1375" x1="29.3905" y1="13.339" x2="21.402" y2="42.5362" gradientUnits="userSpaceOnUse">
<stop stop-color="#EF7829"/>
<stop offset="0.0518954" stop-color="#F07529"/>
<stop offset="0.3551" stop-color="#F0672B"/>
<stop offset="0.6673" stop-color="#F15E2C"/>
<stop offset="1" stop-color="#F15A2C"/>
</linearGradient>
</defs>
</svg>
