<svg width="157" height="47" viewBox="0 0 157 47" fill="none" xmlns="http://www.w3.org/2000/svg">
<rect x="0.575928" y="0.204102" width="156.355" height="46.368" rx="16.5888" fill="#1F1F1F"/>
<rect x="11.2032" y="12.6169" width="28.512" height="20.2176" rx="1.8144" fill="white" stroke="#F5F5F5" stroke-width="0.5184"/>
<mask id="mask0_1469_1358" style="mask-type:luminance" maskUnits="userSpaceOnUse" x="10" y="12" width="30" height="22">
<rect x="11.2032" y="12.6169" width="28.512" height="20.2176" rx="1.8144" fill="white" stroke="white" stroke-width="0.5184"/>
</mask>
<g mask="url(#mask0_1469_1358)">
<path fill-rule="evenodd" clip-rule="evenodd" d="M10.944 26.1818H39.9744V19.2698H10.944V26.1818Z" fill="#0C47B7"/>
<path fill-rule="evenodd" clip-rule="evenodd" d="M10.944 33.0936H39.9744V26.1816H10.944V33.0936Z" fill="#E53B35"/>
</g>
<path d="M53.2785 32.6213C53.1126 32.6213 52.9716 32.5632 52.8555 32.4471C52.7394 32.331 52.6813 32.19 52.6813 32.0241V12.6898C52.6813 12.5239 52.7394 12.3912 52.8555 12.2917C52.9716 12.1756 53.1126 12.1175 53.2785 12.1175C53.4444 12.1175 53.5771 12.1756 53.6766 12.2917C53.7928 12.3912 53.8508 12.5239 53.8508 12.6898V32.0241C53.8508 32.19 53.7928 32.331 53.6766 32.4471C53.5771 32.5632 53.4444 32.6213 53.2785 32.6213Z" fill="white"/>
<path d="M67.6455 31.6011C67.4796 31.6011 67.3303 31.543 67.1976 31.4269C67.0649 31.3108 66.9986 31.1698 66.9986 31.0039V14.4565C66.9986 14.2907 67.0649 14.1496 67.1976 14.0335C67.3303 13.9008 67.4796 13.8345 67.6455 13.8345H76.927C77.1094 13.8345 77.2587 13.9008 77.3748 14.0335C77.5076 14.1496 77.5739 14.2907 77.5739 14.4565V31.0039C77.5739 31.1698 77.5076 31.3108 77.3748 31.4269C77.2587 31.543 77.1094 31.6011 76.927 31.6011C76.7611 31.6011 76.6201 31.543 76.5039 31.4269C76.3878 31.3108 76.3298 31.1698 76.3298 31.0039V15.0786H68.2427V31.0039C68.2427 31.1698 68.1847 31.3108 68.0685 31.4269C67.9524 31.543 67.8114 31.6011 67.6455 31.6011ZM85.1925 31.6011C83.7824 31.6011 82.671 31.12 81.8581 30.1578C81.0453 29.1791 80.6388 27.8603 80.6388 26.2014C80.6388 24.5259 81.0453 23.2071 81.8581 22.245C82.671 21.2828 83.7824 20.8018 85.1925 20.8018C86.42 20.8018 87.4485 21.2248 88.278 22.0708C89.124 22.9168 89.5802 24.0615 89.6465 25.5047V25.5793C89.6465 25.7286 89.5885 25.8613 89.4724 25.9775C89.3728 26.0936 89.2318 26.1516 89.0493 26.1516H81.8332C81.8332 27.429 82.0986 28.4575 82.6295 29.2372C83.1769 30.0168 84.0312 30.4067 85.1925 30.4067C85.7896 30.4067 86.3454 30.2823 86.8596 30.0334C87.3905 29.768 87.7969 29.4279 88.0789 29.0132C88.1784 28.8805 88.3029 28.7976 88.4522 28.7644C88.618 28.7312 88.7673 28.7644 88.9 28.8639C89.0328 28.9469 89.1157 29.0713 89.1489 29.2372C89.1821 29.4031 89.1489 29.5524 89.0493 29.6851C88.6512 30.2657 88.1038 30.7302 87.4071 31.0785C86.7269 31.4269 85.9887 31.6011 85.1925 31.6011ZM81.9079 24.9821H88.3526C88.1867 24.0366 87.8218 23.3067 87.2578 22.7924C86.7103 22.2782 86.0219 22.021 85.1925 22.021C84.2967 22.021 83.5667 22.2782 83.0027 22.7924C82.4553 23.3067 82.0903 24.0366 81.9079 24.9821ZM93.0268 36.8265C92.8609 36.8265 92.7199 36.7685 92.6038 36.6524C92.5042 36.5362 92.4545 36.3952 92.4545 36.2293V21.399C92.4545 21.2331 92.5042 21.0921 92.6038 20.9759C92.7199 20.8598 92.8609 20.8018 93.0268 20.8018C93.1927 20.8018 93.3337 20.8598 93.4498 20.9759C93.5659 21.0921 93.624 21.2331 93.624 21.399V22.3196C93.9889 21.8551 94.4285 21.4902 94.9428 21.2248C95.4736 20.9428 96.0874 20.8018 96.7841 20.8018C98.1942 20.8018 99.3056 21.2828 100.118 22.245C100.931 23.2071 101.338 24.5259 101.338 26.2014C101.338 27.8603 100.931 29.1791 100.118 30.1578C99.3056 31.12 98.1942 31.6011 96.7841 31.6011C96.0874 31.6011 95.4736 31.4684 94.9428 31.2029C94.4285 30.9375 93.9889 30.5726 93.624 30.1081V36.2293C93.624 36.3952 93.5659 36.5362 93.4498 36.6524C93.3337 36.7685 93.1927 36.8265 93.0268 36.8265ZM96.7841 30.4067C97.8624 30.4067 98.6919 30.0417 99.2725 29.3118C99.8697 28.5819 100.168 27.5451 100.168 26.2014C100.168 24.8743 99.8697 23.8458 99.2725 23.1159C98.6919 22.386 97.8624 22.021 96.7841 22.021C94.6608 22.021 93.5991 23.4145 93.5991 26.2014C93.5991 29.0049 94.6608 30.4067 96.7841 30.4067ZM108.229 31.6011C106.819 31.6011 105.707 31.12 104.895 30.1578C104.082 29.1791 103.675 27.8603 103.675 26.2014C103.675 24.5259 104.082 23.2071 104.895 22.245C105.707 21.2828 106.819 20.8018 108.229 20.8018C109.456 20.8018 110.485 21.2248 111.314 22.0708C112.16 22.9168 112.617 24.0615 112.683 25.5047V25.5793C112.683 25.7286 112.625 25.8613 112.509 25.9775C112.409 26.0936 112.268 26.1516 112.086 26.1516H104.87C104.87 27.429 105.135 28.4575 105.666 29.2372C106.213 30.0168 107.068 30.4067 108.229 30.4067C108.826 30.4067 109.382 30.2823 109.896 30.0334C110.427 29.768 110.833 29.4279 111.115 29.0132C111.215 28.8805 111.339 28.7976 111.489 28.7644C111.654 28.7312 111.804 28.7644 111.936 28.8639C112.069 28.9469 112.152 29.0713 112.185 29.2372C112.218 29.4031 112.185 29.5524 112.086 29.6851C111.688 30.2657 111.14 30.7302 110.443 31.0785C109.763 31.4269 109.025 31.6011 108.229 31.6011ZM104.944 24.9821H111.389C111.223 24.0366 110.858 23.3067 110.294 22.7924C109.747 22.2782 109.058 22.021 108.229 22.021C107.333 22.021 106.603 22.2782 106.039 22.7924C105.492 23.3067 105.127 24.0366 104.944 24.9821ZM116.113 31.3522C115.947 31.3522 115.798 31.2942 115.665 31.1781C115.549 31.0619 115.491 30.9209 115.491 30.755V21.7473C115.491 21.5814 115.549 21.4487 115.665 21.3492C115.798 21.2331 115.947 21.175 116.113 21.175H120.567C121.745 21.175 122.624 21.4653 123.205 22.0459C123.686 22.527 123.926 23.1491 123.926 23.9122C123.926 24.1444 123.877 24.4181 123.777 24.7333C123.694 25.0485 123.495 25.372 123.18 25.7038C123.113 25.7701 123.039 25.8365 122.956 25.9028C122.873 25.9526 122.79 26.0106 122.707 26.077C122.856 26.1434 122.989 26.2263 123.105 26.3258C123.238 26.4088 123.362 26.5 123.478 26.5995C123.943 27.064 124.175 27.7027 124.175 28.5156C124.175 29.3284 123.935 29.9754 123.453 30.4564C122.84 31.0536 121.911 31.3522 120.667 31.3522H116.113ZM116.685 30.1827H120.667C121.363 30.1827 121.878 30.0998 122.209 29.9339C122.541 29.7514 122.757 29.5275 122.856 29.262C122.956 28.9966 123.006 28.7478 123.006 28.5156C123.006 28.0677 122.889 27.711 122.657 27.4456C122.442 27.2133 122.093 27.0391 121.612 26.923C121.148 26.7903 120.559 26.724 119.845 26.724H118.477C118.311 26.724 118.17 26.6659 118.054 26.5498C117.938 26.4337 117.88 26.2927 117.88 26.1268C117.88 25.9609 117.938 25.8282 118.054 25.7286C118.17 25.6125 118.311 25.5545 118.477 25.5545H119.845C120.774 25.5545 121.488 25.4134 121.985 25.1314C122.483 24.8494 122.732 24.443 122.732 23.9122C122.732 23.7131 122.707 23.5223 122.657 23.3398C122.607 23.1574 122.516 23.0081 122.384 22.8919C121.985 22.527 121.38 22.3445 120.567 22.3445H116.685V30.1827ZM131.071 31.6011C129.661 31.6011 128.549 31.12 127.737 30.1578C126.924 29.1791 126.517 27.8603 126.517 26.2014C126.517 24.5259 126.924 23.2071 127.737 22.245C128.549 21.2828 129.661 20.8018 131.071 20.8018C132.464 20.8018 133.567 21.2828 134.38 22.245C135.21 23.2071 135.624 24.5259 135.624 26.2014C135.624 27.8603 135.21 29.1791 134.38 30.1578C133.567 31.12 132.464 31.6011 131.071 31.6011ZM131.071 30.4067C132.149 30.4067 132.979 30.0417 133.559 29.3118C134.14 28.5819 134.43 27.5451 134.43 26.2014C134.43 24.8743 134.14 23.8458 133.559 23.1159C132.979 22.386 132.149 22.021 131.071 22.021C130.009 22.021 129.18 22.386 128.583 23.1159C127.985 23.8458 127.687 24.8743 127.687 26.2014C127.687 27.5451 127.985 28.5819 128.583 29.3118C129.18 30.0417 130.009 30.4067 131.071 30.4067ZM137.39 33.318C137.224 33.318 137.083 33.2599 136.967 33.1438C136.851 33.0277 136.793 32.8867 136.793 32.7208V30.6555C136.793 30.4896 136.851 30.3569 136.967 30.2574C137.083 30.1413 137.224 30.0832 137.39 30.0832H138.087L140.078 21.598C140.161 21.316 140.36 21.175 140.675 21.175H145.875C146.041 21.175 146.182 21.2331 146.298 21.3492C146.431 21.4487 146.497 21.5814 146.497 21.7473V30.0832H147.045C147.211 30.0832 147.352 30.1413 147.468 30.2574C147.584 30.3569 147.642 30.4896 147.642 30.6555V32.7208C147.642 32.8867 147.584 33.0277 147.468 33.1438C147.352 33.2599 147.211 33.318 147.045 33.318C146.879 33.318 146.738 33.2599 146.622 33.1438C146.522 33.0277 146.473 32.8867 146.473 32.7208V31.2527H137.987V32.7208C137.987 32.8867 137.929 33.0277 137.813 33.1438C137.697 33.2599 137.556 33.318 137.39 33.318ZM139.281 30.0832H145.278V22.3445H141.148L139.281 30.0832Z" fill="white"/>
</svg>
