<svg width="157" height="47" viewBox="0 0 157 47" fill="none" xmlns="http://www.w3.org/2000/svg">
<rect x="0.599976" y="0.204102" width="155.52" height="46.368" rx="16.5888" fill="#1F1F1F"/>
<path fill-rule="evenodd" clip-rule="evenodd" d="M22.4194 26.5496L22.4185 18.2661L30.2622 22.4221L22.4194 26.5496ZM39.6417 16.8306C39.6417 16.8306 39.3578 14.7992 38.4878 13.9046C37.3837 12.7299 36.1463 12.7243 35.5793 12.6562C31.5168 12.3577 25.4232 12.3577 25.4232 12.3577H25.4105C25.4105 12.3577 19.3168 12.3577 15.2544 12.6562C14.6865 12.7243 13.4499 12.7299 12.345 13.9046C11.475 14.7992 11.1919 16.8306 11.1919 16.8306C11.1919 16.8306 10.9016 19.2168 10.9016 21.6021V23.8391C10.9016 26.2253 11.1919 28.6106 11.1919 28.6106C11.1919 28.6106 11.475 30.6421 12.345 31.5367C13.4499 32.7113 14.9005 32.6745 15.5465 32.797C17.8689 33.0237 25.4168 33.0937 25.4168 33.0937C25.4168 33.0937 31.5168 33.0845 35.5793 32.786C36.1463 32.7169 37.3837 32.7113 38.4878 31.5367C39.3578 30.6421 39.6417 28.6106 39.6417 28.6106C39.6417 28.6106 39.932 26.2253 39.932 23.8391V21.6021C39.932 19.2168 39.6417 16.8306 39.6417 16.8306Z" fill="#CE1312"/>
<path d="M22.4194 26.5496L22.4185 18.2661L30.2622 22.4221L22.4194 26.5496Z" fill="white"/>
<path d="M53.3026 32.6213C53.1367 32.6213 52.9957 32.5632 52.8795 32.4471C52.7634 32.331 52.7054 32.19 52.7054 32.0241V12.6898C52.7054 12.5239 52.7634 12.3912 52.8795 12.2917C52.9957 12.1756 53.1367 12.1175 53.3026 12.1175C53.4684 12.1175 53.6011 12.1756 53.7007 12.2917C53.8168 12.3912 53.8749 12.5239 53.8749 12.6898V32.0241C53.8749 32.19 53.8168 32.331 53.7007 32.4471C53.6011 32.5632 53.4684 32.6213 53.3026 32.6213Z" fill="white"/>
<path d="M74.675 31.626C74.5092 31.626 74.3599 31.5679 74.2271 31.4518C74.111 31.3356 74.053 31.1946 74.053 31.0288V14.4814C74.053 14.3155 74.111 14.1745 74.2271 14.0584C74.3599 13.9257 74.5092 13.8593 74.675 13.8593H80.7963C81.7253 13.8593 82.563 14.0916 83.3095 14.5561C84.0726 15.004 84.6781 15.6095 85.126 16.3725C85.5905 17.119 85.8227 17.9485 85.8227 18.8609C85.8227 19.6405 85.6485 20.3704 85.3002 21.0506C84.9684 21.7307 84.5122 22.3113 83.9316 22.7924C83.351 23.2569 82.6874 23.5721 81.9409 23.738L85.7978 30.7302C85.8808 30.896 85.8974 31.0619 85.8476 31.2278C85.7978 31.3771 85.7066 31.4932 85.5739 31.5762C85.408 31.6591 85.2421 31.6757 85.0762 31.626C84.9269 31.5762 84.8108 31.4767 84.7279 31.3274L80.6221 23.8873H76.9892C76.8233 23.8873 76.674 23.8292 76.5413 23.7131C76.4252 23.5804 76.3671 23.4311 76.3671 23.2652C76.3671 23.0827 76.4252 22.9334 76.5413 22.8173C76.674 22.7012 76.8233 22.6431 76.9892 22.6431H80.7963C81.493 22.6431 82.1234 22.4772 82.6874 22.1455C83.268 21.7971 83.7242 21.3409 84.056 20.7769C84.4044 20.1963 84.5786 19.5576 84.5786 18.8609C84.5786 18.1641 84.4044 17.5338 84.056 16.9697C83.7242 16.4057 83.268 15.9578 82.6874 15.6261C82.1234 15.2777 81.493 15.1035 80.7963 15.1035H75.2971V31.0288C75.2971 31.1946 75.2391 31.3356 75.1229 31.4518C75.0068 31.5679 74.8575 31.626 74.675 31.626ZM91.931 31.6011C90.5209 31.6011 89.4095 31.12 88.5966 30.1578C87.7838 29.1791 87.3773 27.8603 87.3773 26.2014C87.3773 24.5259 87.7838 23.2071 88.5966 22.245C89.4095 21.2828 90.5209 20.8018 91.931 20.8018C93.1585 20.8018 94.187 21.2248 95.0165 22.0708C95.8625 22.9168 96.3187 24.0615 96.3851 25.5047V25.5793C96.3851 25.7286 96.327 25.8613 96.2109 25.9775C96.1113 26.0936 95.9703 26.1516 95.7879 26.1516H88.5717C88.5717 27.429 88.8371 28.4575 89.368 29.2372C89.9154 30.0168 90.7697 30.4067 91.931 30.4067C92.5282 30.4067 93.0839 30.2823 93.5981 30.0334C94.129 29.768 94.5354 29.4279 94.8174 29.0132C94.9169 28.8805 95.0414 28.7976 95.1907 28.7644C95.3565 28.7312 95.5058 28.7644 95.6386 28.8639C95.7713 28.9469 95.8542 29.0713 95.8874 29.2372C95.9206 29.4031 95.8874 29.5524 95.7879 29.6851C95.3897 30.2657 94.8423 30.7302 94.1456 31.0785C93.4654 31.4269 92.7272 31.6011 91.931 31.6011ZM88.6464 24.9821H95.0911C94.9252 24.0366 94.5603 23.3067 93.9963 22.7924C93.4488 22.2782 92.7604 22.021 91.931 22.021C91.0352 22.021 90.3053 22.2782 89.7412 22.7924C89.1938 23.3067 88.8289 24.0366 88.6464 24.9821ZM103.125 31.6011C102.859 31.6011 102.677 31.4767 102.577 31.2278L98.7202 21.6478C98.6538 21.4985 98.6538 21.3492 98.7202 21.1999C98.7865 21.0506 98.8944 20.9428 99.0437 20.8764C99.193 20.8266 99.3423 20.8349 99.4916 20.9013C99.6409 20.9511 99.7487 21.0506 99.815 21.1999L103.125 29.4362L106.484 21.1999C106.55 21.034 106.658 20.9262 106.807 20.8764C106.957 20.8101 107.106 20.8018 107.255 20.8515C107.388 20.9179 107.487 21.0257 107.554 21.175C107.637 21.3243 107.637 21.4736 107.554 21.6229L103.697 31.2278C103.597 31.4767 103.407 31.6011 103.125 31.6011ZM113.02 31.626C112.854 31.626 112.713 31.5679 112.597 31.4518C112.497 31.3522 112.447 31.2195 112.447 31.0536V22.3694H109.586C109.42 22.3694 109.279 22.3113 109.163 22.1952C109.047 22.0625 108.989 21.9132 108.989 21.7473C108.989 21.5814 109.047 21.4487 109.163 21.3492C109.279 21.2331 109.42 21.175 109.586 21.175H113.02C113.202 21.175 113.351 21.2331 113.468 21.3492C113.584 21.4487 113.642 21.5814 113.642 21.7473V31.0536C113.642 31.2195 113.584 31.3522 113.468 31.4518C113.351 31.5679 113.202 31.626 113.02 31.626ZM112.721 16.6711C112.489 16.6711 112.298 16.6048 112.149 16.4721C111.999 16.3394 111.925 16.1901 111.925 16.0242V14.4814C111.925 14.3155 111.999 14.1662 112.149 14.0335C112.298 13.8842 112.489 13.8096 112.721 13.8096C112.953 13.8096 113.136 13.8842 113.268 14.0335C113.418 14.1662 113.492 14.3155 113.492 14.4814V16.0242C113.492 16.1901 113.418 16.3394 113.268 16.4721C113.136 16.6048 112.953 16.6711 112.721 16.6711ZM121.237 31.6011C119.827 31.6011 118.715 31.12 117.902 30.1578C117.09 29.1791 116.683 27.8603 116.683 26.2014C116.683 24.5259 117.09 23.2071 117.902 22.245C118.715 21.2828 119.827 20.8018 121.237 20.8018C122.464 20.8018 123.493 21.2248 124.322 22.0708C125.168 22.9168 125.625 24.0615 125.691 25.5047V25.5793C125.691 25.7286 125.633 25.8613 125.517 25.9775C125.417 26.0936 125.276 26.1516 125.094 26.1516H117.878C117.878 27.429 118.143 28.4575 118.674 29.2372C119.221 30.0168 120.076 30.4067 121.237 30.4067C121.834 30.4067 122.39 30.2823 122.904 30.0334C123.435 29.768 123.841 29.4279 124.123 29.0132C124.223 28.8805 124.347 28.7976 124.496 28.7644C124.662 28.7312 124.812 28.7644 124.944 28.8639C125.077 28.9469 125.16 29.0713 125.193 29.2372C125.226 29.4031 125.193 29.5524 125.094 29.6851C124.696 30.2657 124.148 30.7302 123.451 31.0785C122.771 31.4269 122.033 31.6011 121.237 31.6011ZM117.952 24.9821H124.397C124.231 24.0366 123.866 23.3067 123.302 22.7924C122.755 22.2782 122.066 22.021 121.237 22.021C120.341 22.021 119.611 22.2782 119.047 22.7924C118.5 23.3067 118.135 24.0366 117.952 24.9821ZM130.39 31.6011C130.091 31.5679 129.917 31.4103 129.867 31.1283L128.026 21.4985C128.009 21.3326 128.043 21.1833 128.126 21.0506C128.208 20.9013 128.333 20.8101 128.499 20.7769C128.665 20.7603 128.814 20.8018 128.947 20.9013C129.079 20.9842 129.162 21.1004 129.195 21.2497L130.688 29.0879L133.152 23.738C133.268 23.5057 133.451 23.3896 133.699 23.3896C133.948 23.3896 134.131 23.5057 134.247 23.738L136.71 29.0879L138.178 21.2994C138.212 21.1335 138.294 21.0091 138.427 20.9262C138.56 20.8266 138.709 20.7935 138.875 20.8266C139.041 20.8432 139.165 20.9262 139.248 21.0755C139.348 21.2082 139.381 21.3575 139.348 21.5234L137.506 31.1283C137.457 31.4103 137.291 31.5679 137.009 31.6011C136.71 31.6342 136.503 31.5181 136.387 31.2527L133.699 25.4052L130.987 31.2527C130.871 31.5181 130.672 31.6342 130.39 31.6011Z" fill="white"/>
</svg>
