<svg width="157" height="47" viewBox="0 0 157 47" fill="none" xmlns="http://www.w3.org/2000/svg">
<g clip-path="url(#clip0_1529_1358)">
<path d="M139.771 0.228027H17.4288C8.26702 0.228027 0.839966 7.65509 0.839966 16.8168V30.0072C0.839966 39.169 8.26702 46.596 17.4288 46.596H139.771C148.933 46.596 156.36 39.169 156.36 30.0072V16.8168C156.36 7.65509 148.933 0.228027 139.771 0.228027Z" fill="#1F1F1F"/>
<path fill-rule="evenodd" clip-rule="evenodd" d="M22.6594 26.5735L22.6585 18.29L30.5022 22.446L22.6594 26.5735ZM39.8817 16.8546C39.8817 16.8546 39.5977 14.8231 38.7277 13.9285C37.6237 12.7538 36.3863 12.7483 35.8193 12.6801C31.7568 12.3816 25.6632 12.3816 25.6632 12.3816H25.6505C25.6505 12.3816 19.5568 12.3816 15.4944 12.6801C14.9264 12.7483 13.6899 12.7538 12.585 13.9285C11.715 14.8231 11.4319 16.8546 11.4319 16.8546C11.4319 16.8546 11.1416 19.2408 11.1416 21.6261V23.863C11.1416 26.2492 11.4319 28.6345 11.4319 28.6345C11.4319 28.6345 11.715 30.666 12.585 31.5606C13.6899 32.7353 15.1405 32.6984 15.7865 32.8209C18.1089 33.0476 25.6568 33.1176 25.6568 33.1176C25.6568 33.1176 31.7568 33.1084 35.8193 32.8099C36.3863 32.7408 37.6237 32.7353 38.7277 31.5606C39.5977 30.666 39.8817 28.6345 39.8817 28.6345C39.8817 28.6345 40.172 26.2492 40.172 23.863V21.6261C40.172 19.2408 39.8817 16.8546 39.8817 16.8546Z" fill="#CE1312"/>
<path d="M22.6594 26.5735L22.6585 18.29L30.5022 22.446L22.6594 26.5735Z" fill="white"/>
<path d="M53.5425 32.6452C53.3767 32.6452 53.2356 32.5871 53.1195 32.471C53.0034 32.3549 52.9453 32.2139 52.9453 32.048V12.7138C52.9453 12.5479 53.0034 12.4152 53.1195 12.3156C53.2356 12.1995 53.3767 12.1414 53.5425 12.1414C53.7084 12.1414 53.8411 12.1995 53.9407 12.3156C54.0568 12.4152 54.1149 12.5479 54.1149 12.7138V32.048C54.1149 32.2139 54.0568 32.3549 53.9407 32.471C53.8411 32.5871 53.7084 32.6452 53.5425 32.6452Z" fill="white"/>
<path d="M81.3016 31.312C80.1016 31.312 79.0536 31.064 78.1576 30.568C77.2776 30.072 76.5896 29.376 76.0936 28.48C75.5976 27.584 75.3496 26.544 75.3496 25.36V19.792C75.3496 18.592 75.5976 17.552 76.0936 16.672C76.5896 15.776 77.2776 15.08 78.1576 14.584C79.0536 14.088 80.1016 13.84 81.3016 13.84C82.5016 13.84 83.5416 14.088 84.4216 14.584C85.3176 15.08 86.0136 15.776 86.5096 16.672C87.0056 17.552 87.2536 18.592 87.2536 19.792V25.36C87.2536 26.544 87.0056 27.584 86.5096 28.48C86.0136 29.376 85.3176 30.072 84.4216 30.568C83.5416 31.064 82.5016 31.312 81.3016 31.312ZM81.3016 30.112C82.2616 30.112 83.0936 29.92 83.7976 29.536C84.5176 29.136 85.0696 28.576 85.4536 27.856C85.8536 27.136 86.0536 26.304 86.0536 25.36V19.792C86.0536 18.832 85.8536 18 85.4536 17.296C85.0696 16.576 84.5176 16.024 83.7976 15.64C83.0936 15.24 82.2616 15.04 81.3016 15.04C80.3416 15.04 79.5016 15.24 78.7816 15.64C78.0776 16.024 77.5256 16.576 77.1256 17.296C76.7416 18 76.5496 18.832 76.5496 19.792V25.36C76.5496 26.304 76.7416 27.136 77.1256 27.856C77.5256 28.576 78.0776 29.136 78.7816 29.536C79.5016 29.92 80.3416 30.112 81.3016 30.112ZM94.1216 31.312C92.9056 31.312 91.9136 30.928 91.1456 30.16C90.2016 29.216 89.7296 27.864 89.7296 26.104C89.7296 23.768 90.0816 21.896 90.7856 20.488C91.4896 19.064 92.5216 18.168 93.8816 17.8C94.8256 17.544 95.5536 17.304 96.0656 17.08C96.5776 16.84 96.9856 16.544 97.2896 16.192C97.4016 16.08 97.5296 16.024 97.6736 16.024C97.8336 16.008 97.9696 16.048 98.0816 16.144C98.2096 16.256 98.2736 16.392 98.2736 16.552C98.2896 16.696 98.2416 16.832 98.1296 16.96C97.6976 17.456 97.1536 17.848 96.4976 18.136C95.8416 18.424 95.0656 18.68 94.1696 18.904C92.9216 19.256 92.0336 20.2 91.5056 21.736C91.8576 21.464 92.2496 21.256 92.6816 21.112C93.1296 20.952 93.6096 20.872 94.1216 20.872C95.3696 20.872 96.3696 21.272 97.1216 22.072C97.5856 22.52 97.9296 23.088 98.1536 23.776C98.3936 24.464 98.5136 25.24 98.5136 26.104C98.5136 27.88 98.0496 29.232 97.1216 30.16C96.3536 30.928 95.3536 31.312 94.1216 31.312ZM94.1216 30.184C95.1616 30.184 95.9616 29.832 96.5216 29.128C97.0976 28.408 97.3856 27.4 97.3856 26.104C97.3856 24.68 97.0336 23.6 96.3296 22.864C95.7696 22.32 95.0336 22.048 94.1216 22.048C93.2096 22.048 92.4896 22.32 91.9616 22.864C91.2576 23.568 90.9056 24.648 90.9056 26.104C90.9056 27.56 91.2576 28.64 91.9616 29.344C92.4896 29.904 93.2096 30.184 94.1216 30.184ZM104.033 31.312C103.313 31.312 102.657 31.2 102.065 30.976C101.473 30.736 100.961 30.408 100.529 29.992C100.417 29.864 100.361 29.728 100.361 29.584C100.361 29.424 100.417 29.288 100.529 29.176C100.641 29.048 100.777 28.992 100.937 29.008C101.097 29.008 101.233 29.072 101.345 29.2C101.985 29.84 102.881 30.16 104.033 30.16C105.089 30.16 105.897 29.952 106.457 29.536C106.889 29.2 107.105 28.792 107.105 28.312C107.105 27.896 106.913 27.512 106.529 27.16C106.145 26.792 105.585 26.608 104.849 26.608H103.193C103.033 26.608 102.897 26.552 102.785 26.44C102.673 26.328 102.617 26.192 102.617 26.032C102.617 25.872 102.673 25.736 102.785 25.624C102.897 25.512 103.033 25.456 103.193 25.456H104.849C105.553 25.456 106.089 25.288 106.457 24.952C106.825 24.6 107.009 24.224 107.009 23.824C107.009 23.392 106.793 23.008 106.361 22.672C106.105 22.464 105.777 22.312 105.377 22.216C104.993 22.12 104.545 22.072 104.033 22.072C102.865 22.072 101.969 22.4 101.345 23.056C101.233 23.168 101.097 23.224 100.937 23.224C100.777 23.224 100.641 23.168 100.529 23.056C100.417 22.944 100.361 22.808 100.361 22.648C100.361 22.488 100.417 22.352 100.529 22.24C101.425 21.344 102.593 20.896 104.033 20.896C104.849 20.896 105.505 21 106.001 21.208C106.513 21.4 106.913 21.632 107.201 21.904C107.489 22.16 107.689 22.392 107.801 22.6C108.265 23.416 108.265 24.248 107.801 25.096C107.689 25.288 107.553 25.464 107.393 25.624C107.249 25.768 107.089 25.904 106.913 26.032C107.329 26.272 107.657 26.6 107.897 27.016C108.377 27.88 108.377 28.736 107.897 29.584C107.769 29.792 107.561 30.032 107.273 30.304C106.985 30.576 106.577 30.808 106.049 31C105.537 31.208 104.865 31.312 104.033 31.312ZM114.653 31.312C113.293 31.312 112.221 30.848 111.437 29.92C110.653 28.976 110.261 27.704 110.261 26.104C110.261 24.488 110.653 23.216 111.437 22.288C112.221 21.36 113.293 20.896 114.653 20.896C115.997 20.896 117.061 21.36 117.845 22.288C118.645 23.216 119.045 24.488 119.045 26.104C119.045 27.704 118.645 28.976 117.845 29.92C117.061 30.848 115.997 31.312 114.653 31.312ZM114.653 30.16C115.693 30.16 116.493 29.808 117.053 29.104C117.613 28.4 117.893 27.4 117.893 26.104C117.893 24.824 117.613 23.832 117.053 23.128C116.493 22.424 115.693 22.072 114.653 22.072C113.629 22.072 112.829 22.424 112.253 23.128C111.677 23.832 111.389 24.824 111.389 26.104C111.389 27.4 111.677 28.4 112.253 29.104C112.829 29.808 113.629 30.16 114.653 30.16ZM122.092 36.352C121.932 36.352 121.796 36.296 121.684 36.184C121.588 36.072 121.54 35.936 121.54 35.776V21.472C121.54 21.312 121.588 21.176 121.684 21.064C121.796 20.952 121.932 20.896 122.092 20.896C122.252 20.896 122.388 20.952 122.5 21.064C122.612 21.176 122.668 21.312 122.668 21.472V22.36C123.02 21.912 123.444 21.56 123.94 21.304C124.452 21.032 125.044 20.896 125.716 20.896C127.076 20.896 128.148 21.36 128.932 22.288C129.716 23.216 130.108 24.488 130.108 26.104C130.108 27.704 129.716 28.976 128.932 29.92C128.148 30.848 127.076 31.312 125.716 31.312C125.044 31.312 124.452 31.184 123.94 30.928C123.444 30.672 123.02 30.32 122.668 29.872V35.776C122.668 35.936 122.612 36.072 122.5 36.184C122.388 36.296 122.252 36.352 122.092 36.352ZM125.716 30.16C126.756 30.16 127.556 29.808 128.116 29.104C128.692 28.4 128.98 27.4 128.98 26.104C128.98 24.824 128.692 23.832 128.116 23.128C127.556 22.424 126.756 22.072 125.716 22.072C123.668 22.072 122.644 23.416 122.644 26.104C122.644 28.808 123.668 30.16 125.716 30.16Z" fill="white"/>
</g>
<defs>
<clipPath id="clip0_1529_1358">
<rect width="157" height="47" fill="white"/>
</clipPath>
</defs>
</svg>
