<svg width="156" height="47" viewBox="0 0 156 47" fill="none" xmlns="http://www.w3.org/2000/svg">
<rect x="0.18396" y="0.228027" width="155.52" height="46.368" rx="16.5888" fill="#1F1F1F"/>
<path d="M15.2175 13.1592C15.2175 15.8792 17.4223 18.084 20.1423 18.084H25.0671V8.23438H20.1423C17.4223 8.23438 15.2175 10.4391 15.2175 13.1592Z" fill="#F24E1E"/>
<path d="M25.0671 8.23438V18.084H29.9919C32.712 18.084 34.9167 15.8792 34.9167 13.1592C34.9167 10.4391 32.712 8.23438 29.9919 8.23438H25.0671Z" fill="#FF7262"/>
<path d="M15.2175 23.0088C15.2175 25.7288 17.4223 27.9336 20.1423 27.9336H25.0671V18.084H20.1423C17.4223 18.084 15.2175 20.2887 15.2175 23.0088Z" fill="#A259FF"/>
<path d="M25.0671 23.0088C25.0671 20.2887 27.2719 18.084 29.9919 18.084C32.712 18.084 34.9167 20.2887 34.9167 23.0088C34.9167 25.7288 32.712 27.9336 29.9919 27.9336C27.2719 27.9336 25.0671 25.7288 25.0671 23.0088Z" fill="#1ABCFE"/>
<path d="M15.2175 32.8584C15.2175 30.1383 17.4223 27.9336 20.1423 27.9336H25.0671V32.8584C25.0671 35.5784 22.8624 37.7832 20.1423 37.7832C17.4223 37.7832 15.2175 35.5784 15.2175 32.8584Z" fill="#0ACF83"/>
<path d="M52.8866 32.6452C52.7207 32.6452 52.5797 32.5871 52.4636 32.471C52.3475 32.3549 52.2894 32.2139 52.2894 32.048V12.7138C52.2894 12.5479 52.3475 12.4152 52.4636 12.3156C52.5797 12.1995 52.7207 12.1414 52.8866 12.1414C53.0525 12.1414 53.1852 12.1995 53.2847 12.3156C53.4008 12.4152 53.4589 12.5479 53.4589 12.7138V32.048C53.4589 32.2139 53.4008 32.3549 53.2847 32.471C53.1852 32.5871 53.0525 32.6452 52.8866 32.6452Z" fill="white"/>
<path d="M78.8396 31.625C78.6737 31.625 78.5244 31.5669 78.3917 31.4508C78.2756 31.3347 78.2175 31.1937 78.2175 31.0278V14.5054C78.2175 14.3395 78.2756 14.1985 78.3917 14.0823C78.5244 13.9496 78.6737 13.8833 78.8396 13.8833H87.8473C88.0132 13.8833 88.1542 13.9496 88.2703 14.0823C88.403 14.1985 88.4694 14.3395 88.4694 14.5054C88.4694 14.6712 88.403 14.8205 88.2703 14.9532C88.1542 15.0694 88.0132 15.1274 87.8473 15.1274H79.4617V21.8459C79.4782 21.8459 79.4948 21.8459 79.5114 21.8459C79.528 21.8293 79.5446 21.821 79.5612 21.821H86.4538C86.6363 21.821 86.7856 21.8791 86.9017 21.9952C87.0344 22.1113 87.1008 22.2606 87.1008 22.4431C87.1008 22.609 87.0344 22.7583 86.9017 22.891C86.7856 23.0071 86.6363 23.0652 86.4538 23.0652H79.4617V31.0278C79.4617 31.1937 79.4036 31.3347 79.2875 31.4508C79.1713 31.5669 79.022 31.625 78.8396 31.625ZM93.9291 31.6499C93.7632 31.6499 93.6222 31.5918 93.5061 31.4757C93.4065 31.3762 93.3568 31.2435 93.3568 31.0776V22.3933H90.4952C90.3293 22.3933 90.1883 22.3353 90.0722 22.2191C89.9561 22.0864 89.898 21.9371 89.898 21.7712C89.898 21.6054 89.9561 21.4726 90.0722 21.3731C90.1883 21.257 90.3293 21.1989 90.4952 21.1989H93.9291C94.1116 21.1989 94.2609 21.257 94.377 21.3731C94.4931 21.4726 94.5512 21.6054 94.5512 21.7712V31.0776C94.5512 31.2435 94.4931 31.3762 94.377 31.4757C94.2609 31.5918 94.1116 31.6499 93.9291 31.6499ZM93.6305 16.6951C93.3983 16.6951 93.2075 16.6287 93.0582 16.496C92.9089 16.3633 92.8342 16.214 92.8342 16.0481V14.5054C92.8342 14.3395 92.9089 14.1902 93.0582 14.0575C93.2075 13.9082 93.3983 13.8335 93.6305 13.8335C93.8627 13.8335 94.0452 13.9082 94.1779 14.0575C94.3272 14.1902 94.4019 14.3395 94.4019 14.5054V16.0481C94.4019 16.214 94.3272 16.3633 94.1779 16.496C94.0452 16.6287 93.8627 16.6951 93.6305 16.6951ZM102.295 36.8256C101.416 36.8256 100.653 36.585 100.006 36.104C99.3759 35.6395 98.928 34.9759 98.6625 34.1133C98.6128 33.964 98.6211 33.8147 98.6874 33.6654C98.7538 33.5327 98.8699 33.4415 99.0358 33.3917C99.2017 33.3253 99.351 33.3336 99.4837 33.4166C99.633 33.4995 99.7325 33.6157 99.7823 33.765C100.164 35.0091 101.002 35.6312 102.295 35.6312C103.142 35.6312 103.805 35.3243 104.286 34.7105C104.784 34.0967 105.033 33.259 105.033 32.1973V28.863C104.303 29.6426 103.274 30.0325 101.947 30.0325C100.603 30.0325 99.5417 29.6178 98.7621 28.7883C97.9824 27.9589 97.5926 26.8391 97.5926 25.4291C97.5926 24.019 97.9824 22.9076 98.7621 22.0947C99.5417 21.2653 100.603 20.8506 101.947 20.8506C103.291 20.8506 104.319 21.2487 105.033 22.045V21.4229C105.033 21.257 105.091 21.116 105.207 20.9999C105.323 20.8672 105.464 20.8008 105.63 20.8008C105.796 20.8008 105.928 20.8672 106.028 20.9999C106.144 21.116 106.202 21.257 106.202 21.4229V32.1973C106.202 33.5576 105.845 34.669 105.132 35.5317C104.419 36.3943 103.473 36.8256 102.295 36.8256ZM101.947 28.863C102.926 28.863 103.689 28.581 104.236 28.0169C104.784 27.4363 105.058 26.5737 105.058 25.4291C105.058 24.301 104.784 23.455 104.236 22.891C103.689 22.327 102.926 22.045 101.947 22.045C100.935 22.045 100.147 22.3436 99.5832 22.9408C99.0358 23.5214 98.7621 24.3508 98.7621 25.4291C98.7621 26.5239 99.0358 27.37 99.5832 27.9672C100.147 28.5644 100.935 28.863 101.947 28.863ZM109.616 31.6499C109.45 31.6499 109.309 31.5918 109.193 31.4757C109.093 31.3596 109.044 31.2269 109.044 31.0776V21.4478C109.044 21.2985 109.093 21.1658 109.193 21.0496C109.309 20.9169 109.45 20.8506 109.616 20.8506C109.782 20.8506 109.923 20.9169 110.039 21.0496C110.155 21.1658 110.213 21.2985 110.213 21.4478V22.1196C110.578 21.7381 111.001 21.4312 111.482 21.1989C111.963 20.9667 112.478 20.8506 113.025 20.8506C113.705 20.8506 114.302 21.0165 114.817 21.3482C115.331 21.6634 115.729 22.1113 116.011 22.6919C116.359 22.1445 116.816 21.7049 117.38 21.3731C117.944 21.0248 118.574 20.8506 119.271 20.8506C120.332 20.8506 121.17 21.2321 121.784 21.9952C122.414 22.7583 122.729 23.7785 122.729 25.0558V31.0527C122.729 31.202 122.671 31.3347 122.555 31.4508C122.456 31.5669 122.323 31.625 122.157 31.625C121.991 31.625 121.85 31.5669 121.734 31.4508C121.618 31.3347 121.56 31.202 121.56 31.0527V25.0558C121.56 24.8236 121.535 24.5416 121.485 24.2098C121.436 23.878 121.336 23.5462 121.187 23.2145C121.037 22.8827 120.805 22.609 120.49 22.3933C120.191 22.1611 119.785 22.045 119.271 22.045C118.458 22.045 117.794 22.3353 117.28 22.9159C116.766 23.4799 116.509 24.1932 116.509 25.0558V31.0527C116.509 31.202 116.451 31.3347 116.334 31.4508C116.235 31.5669 116.102 31.625 115.936 31.625C115.77 31.625 115.621 31.5669 115.488 31.4508C115.372 31.3347 115.314 31.202 115.314 31.0527V25.1056C115.314 24.5748 115.231 24.0771 115.065 23.6126C114.916 23.1481 114.676 22.7749 114.344 22.4929C114.012 22.1943 113.572 22.045 113.025 22.045C112.279 22.045 111.623 22.2772 111.059 22.7417C110.495 23.1896 110.213 23.7785 110.213 24.5084V31.0776C110.213 31.2269 110.155 31.3596 110.039 31.4757C109.923 31.5918 109.782 31.6499 109.616 31.6499ZM133.281 31.6499C133.116 31.6499 132.975 31.5918 132.858 31.4757C132.742 31.3762 132.684 31.2435 132.684 31.0776V30.8785L129.624 31.4757C128.861 31.625 128.214 31.6665 127.683 31.6001C127.152 31.5338 126.704 31.3679 126.339 31.1024C126.074 30.8868 125.858 30.6214 125.692 30.3062C125.543 29.9744 125.452 29.6012 125.418 29.1864C125.319 28.2243 125.526 27.4363 126.04 26.8225C126.571 26.1922 127.384 25.7857 128.479 25.6033L132.684 24.8816V24.1849C132.684 23.8531 132.626 23.5048 132.51 23.1398C132.411 22.7583 132.195 22.4763 131.863 22.2938C131.598 22.1279 131.258 22.045 130.843 22.045C129.814 22.045 128.545 22.5094 127.036 23.4384C126.887 23.5214 126.737 23.5462 126.588 23.5131C126.439 23.4633 126.322 23.3721 126.24 23.2394C126.14 23.0901 126.107 22.9408 126.14 22.7915C126.19 22.6256 126.281 22.5094 126.414 22.4431C127.392 21.8459 128.247 21.4395 128.977 21.2238C129.707 20.9916 130.329 20.8755 130.843 20.8755C131.191 20.8755 131.49 20.9169 131.739 20.9999C132.004 21.0662 132.228 21.1492 132.411 21.2487C132.892 21.5141 133.257 21.904 133.505 22.4182C133.754 22.9159 133.879 23.5048 133.879 24.1849V31.0776C133.879 31.2435 133.821 31.3762 133.705 31.4757C133.605 31.5918 133.464 31.6499 133.281 31.6499ZM129.425 30.2813L132.684 29.6841V26.076L128.703 26.7479C128.023 26.864 127.525 27.0548 127.21 27.3202C126.911 27.5856 126.729 27.8759 126.663 28.1911C126.596 28.4897 126.571 28.78 126.588 29.062C126.638 29.5763 126.795 29.9329 127.061 30.132C127.459 30.4306 128.247 30.4804 129.425 30.2813Z" fill="white"/>
</svg>
