<svg width="300" height="90" viewBox="0 0 300 90" fill="none" xmlns="http://www.w3.org/2000/svg">
<rect width="300" height="90" rx="32" fill="#1F1F1F"/>
<path fill-rule="evenodd" clip-rule="evenodd" d="M48.0232 17.75C32.5271 17.75 20 29.7812 20 44.6654C20 56.5632 28.0265 66.6344 39.1615 70.1989C40.5536 70.4669 41.0636 69.6198 41.0636 68.9072C41.0636 68.2832 41.0177 66.1444 41.0177 63.9159C33.2223 65.5204 31.599 60.7074 31.599 60.7074C30.3462 57.588 28.49 56.7863 28.49 56.7863C25.9386 55.1375 28.6759 55.1375 28.6759 55.1375C31.5061 55.3158 32.9911 57.9003 32.9911 57.9003C35.4961 61.9997 39.5326 60.8414 41.1565 60.1283C41.3882 58.3903 42.131 57.1872 42.9198 56.5189C36.7024 55.8949 30.1609 53.5778 30.1609 43.2392C30.1609 40.2981 31.2737 37.8919 33.037 36.0205C32.7588 35.3522 31.7843 32.5888 33.3158 28.8903C33.3158 28.8903 35.6819 28.1772 41.0171 31.6531C43.3013 31.064 45.6569 30.7643 48.0232 30.7617C50.3893 30.7617 52.8013 31.074 55.0287 31.6531C60.3644 28.1772 62.7305 28.8903 62.7305 28.8903C64.2621 32.5888 63.2869 35.3522 63.0087 36.0205C64.8185 37.8919 65.8854 40.2981 65.8854 43.2392C65.8854 53.5778 59.3439 55.8501 53.0801 56.5189C54.1011 57.3655 54.9822 58.9694 54.9822 61.5097C54.9822 65.119 54.9363 68.0158 54.9363 68.9067C54.9363 69.6198 55.4468 70.4669 56.8384 70.1995C67.9733 66.6339 75.9999 56.5632 75.9999 44.6654C76.0458 29.7812 63.4728 17.75 48.0232 17.75Z" fill="white"/>
<path d="M101.664 62.592C101.344 62.592 101.072 62.48 100.848 62.256C100.624 62.032 100.512 61.76 100.512 61.44V24.144C100.512 23.824 100.624 23.568 100.848 23.376C101.072 23.152 101.344 23.04 101.664 23.04C101.984 23.04 102.24 23.152 102.432 23.376C102.656 23.568 102.768 23.824 102.768 24.144V61.44C102.768 61.76 102.656 62.032 102.432 62.256C102.24 62.48 101.984 62.592 101.664 62.592Z" fill="white"/>
<path d="M155.838 60.624C153.438 60.624 151.342 60.128 149.55 59.136C147.79 58.144 146.414 56.752 145.422 54.96C144.43 53.168 143.934 51.088 143.934 48.72V37.584C143.934 35.184 144.446 33.104 145.47 31.344C146.494 29.552 147.918 28.16 149.742 27.168C151.598 26.176 153.758 25.68 156.222 25.68C157.918 25.68 159.502 25.952 160.974 26.496C162.478 27.008 163.774 27.728 164.862 28.656C165.982 29.584 166.798 30.672 167.31 31.92C167.47 32.24 167.47 32.56 167.31 32.88C167.15 33.168 166.91 33.36 166.59 33.456C165.886 33.776 165.374 33.568 165.054 32.832C164.446 31.424 163.326 30.288 161.694 29.424C160.094 28.528 158.27 28.08 156.222 28.08C154.238 28.08 152.494 28.48 150.99 29.28C149.518 30.048 148.366 31.152 147.534 32.592C146.734 34 146.334 35.664 146.334 37.584V48.72C146.334 50.608 146.718 52.272 147.486 53.712C148.286 55.152 149.39 56.272 150.798 57.072C152.238 57.84 153.918 58.224 155.838 58.224C157.342 58.224 158.862 58.048 160.398 57.696C161.934 57.344 163.214 56.864 164.238 56.256V47.424H156.75C155.918 47.424 155.502 47.024 155.502 46.224C155.502 45.424 155.918 45.024 156.75 45.024H165.486C166.254 45.024 166.638 45.424 166.638 46.224V56.928C166.638 57.376 166.462 57.728 166.11 57.984C164.894 58.784 163.342 59.424 161.454 59.904C159.566 60.384 157.694 60.624 155.838 60.624ZM178.845 60.672C178.525 60.672 178.253 60.56 178.029 60.336C177.837 60.144 177.741 59.888 177.741 59.568V42.816H172.221C171.901 42.816 171.629 42.704 171.405 42.48C171.181 42.224 171.069 41.936 171.069 41.616C171.069 41.296 171.181 41.04 171.405 40.848C171.629 40.624 171.901 40.512 172.221 40.512H178.845C179.197 40.512 179.485 40.624 179.709 40.848C179.933 41.04 180.045 41.296 180.045 41.616V59.568C180.045 59.888 179.933 60.144 179.709 60.336C179.485 60.56 179.197 60.672 178.845 60.672ZM178.269 31.824C177.821 31.824 177.453 31.696 177.165 31.44C176.877 31.184 176.733 30.896 176.733 30.576V27.6C176.733 27.28 176.877 26.992 177.165 26.736C177.453 26.448 177.821 26.304 178.269 26.304C178.717 26.304 179.069 26.448 179.325 26.736C179.613 26.992 179.757 27.28 179.757 27.6V30.576C179.757 30.896 179.613 31.184 179.325 31.44C179.069 31.696 178.717 31.824 178.269 31.824ZM194.552 60.384C193.24 60.384 192.2 60.016 191.432 59.28C190.696 58.512 190.328 57.504 190.328 56.256V42.768H185.72C185.4 42.768 185.128 42.656 184.904 42.432C184.712 42.208 184.616 41.936 184.616 41.616C184.616 41.296 184.712 41.04 184.904 40.848C185.128 40.624 185.4 40.512 185.72 40.512H190.328V33.456C190.328 33.136 190.424 32.864 190.616 32.64C190.84 32.416 191.112 32.304 191.432 32.304C191.752 32.304 192.024 32.416 192.248 32.64C192.472 32.864 192.584 33.136 192.584 33.456V40.512H198.536C198.856 40.512 199.128 40.624 199.352 40.848C199.576 41.04 199.688 41.296 199.688 41.616C199.688 41.936 199.576 42.208 199.352 42.432C199.128 42.656 198.856 42.768 198.536 42.768H192.584V56.256C192.584 56.384 192.6 56.608 192.632 56.928C192.696 57.216 192.872 57.488 193.16 57.744C193.448 57.968 193.912 58.08 194.552 58.08H198.296C198.648 58.08 198.936 58.192 199.16 58.416C199.384 58.64 199.496 58.912 199.496 59.232C199.496 59.552 199.384 59.824 199.16 60.048C198.936 60.272 198.648 60.384 198.296 60.384H194.552ZM206.221 60.672C205.901 60.672 205.629 60.56 205.405 60.336C205.181 60.144 205.069 59.888 205.069 59.568V26.016C205.069 25.696 205.181 25.424 205.405 25.2C205.629 24.976 205.901 24.864 206.221 24.864C206.541 24.864 206.813 24.976 207.037 25.2C207.261 25.424 207.373 25.696 207.373 26.016V42.432C208.109 41.6 208.989 40.96 210.013 40.512C211.037 40.032 212.141 39.792 213.325 39.792C215.533 39.792 217.261 40.528 218.509 42C219.789 43.44 220.429 45.392 220.429 47.856V59.52C220.429 59.84 220.317 60.096 220.093 60.288C219.901 60.512 219.645 60.624 219.325 60.624C219.005 60.624 218.733 60.512 218.509 60.288C218.285 60.096 218.173 59.84 218.173 59.52V47.856C218.173 47.12 218.061 46.304 217.837 45.408C217.613 44.512 217.149 43.744 216.445 43.104C215.773 42.432 214.733 42.096 213.325 42.096C211.661 42.096 210.253 42.608 209.101 43.632C207.949 44.656 207.373 46.112 207.373 48V59.568C207.373 59.888 207.261 60.144 207.037 60.336C206.813 60.56 206.541 60.672 206.221 60.672ZM233.012 60.624C230.804 60.624 229.06 59.904 227.78 58.464C226.532 57.024 225.908 55.04 225.908 52.512V41.04C225.908 40.72 226.004 40.448 226.196 40.224C226.42 40 226.692 39.888 227.012 39.888C227.332 39.888 227.604 40 227.828 40.224C228.052 40.448 228.164 40.72 228.164 41.04V52.512C228.164 53.248 228.276 54.08 228.5 55.008C228.724 55.904 229.172 56.688 229.844 57.36C230.548 58.032 231.604 58.368 233.012 58.368C234.9 58.368 236.356 57.856 237.38 56.832C238.436 55.808 238.964 54.336 238.964 52.416V40.992C238.964 40.672 239.076 40.4 239.3 40.176C239.524 39.92 239.796 39.792 240.116 39.792C240.436 39.792 240.692 39.92 240.884 40.176C241.108 40.4 241.22 40.672 241.22 40.992V59.52C241.22 59.84 241.108 60.096 240.884 60.288C240.692 60.512 240.436 60.624 240.116 60.624C239.796 60.624 239.524 60.512 239.3 60.288C239.076 60.096 238.964 59.84 238.964 59.52V58.032C238.228 58.832 237.348 59.472 236.324 59.952C235.332 60.4 234.228 60.624 233.012 60.624ZM248.69 60.672C248.37 60.672 248.098 60.56 247.874 60.336C247.65 60.144 247.538 59.888 247.538 59.568V25.92C247.538 25.6 247.65 25.328 247.874 25.104C248.098 24.848 248.37 24.72 248.69 24.72C249.01 24.72 249.282 24.848 249.506 25.104C249.73 25.328 249.842 25.6 249.842 25.92V42.912C250.578 41.984 251.474 41.232 252.53 40.656C253.586 40.08 254.818 39.792 256.226 39.792C258.914 39.792 261.042 40.72 262.61 42.576C264.178 44.432 264.962 46.976 264.962 50.208C264.962 53.408 264.178 55.952 262.61 57.84C261.042 59.696 258.914 60.624 256.226 60.624C254.818 60.624 253.586 60.352 252.53 59.808C251.474 59.232 250.578 58.48 249.842 57.552V59.568C249.842 59.888 249.73 60.144 249.506 60.336C249.282 60.56 249.01 60.672 248.69 60.672ZM256.226 58.32C258.274 58.32 259.858 57.616 260.978 56.208C262.098 54.8 262.658 52.8 262.658 50.208C262.658 47.648 262.098 45.664 260.978 44.256C259.858 42.848 258.274 42.144 256.226 42.144C254.146 42.144 252.562 42.848 251.474 44.256C250.418 45.664 249.89 47.648 249.89 50.208C249.89 52.8 250.418 54.8 251.474 56.208C252.562 57.616 254.146 58.32 256.226 58.32Z" fill="white"/>
</svg>
