<svg width="2400" height="1200" viewBox="0 0 2400 1200" fill="none" xmlns="http://www.w3.org/2000/svg">
<rect width="2400" height="1200" rx="48" fill="#1F1F1F"/>
<rect width="768" height="768" transform="translate(816 132)" fill="#1F1F1F"/>
<mask id="path-2-inside-1_1445_804" fill="white">
<path d="M1308.44 218.245C1345.89 218.245 1380.67 238.324 1399.4 270.832L1507.74 458.613C1526.47 491.121 1526.47 531.279 1507.74 563.787L1399.4 751.568C1380.67 784.076 1345.89 804.155 1308.44 804.155H1091.75C1054.3 804.155 1019.52 784.076 1000.8 751.568L892.452 563.787C873.726 531.279 873.726 491.121 892.452 458.613L1000.8 270.832C1019.52 238.324 1054.3 218.245 1091.75 218.245H1308.44ZM1308.44 180H1091.75C1040.54 180 993.153 207.345 967.548 251.709L859.204 439.491C833.599 483.855 833.599 538.545 859.204 582.909L967.548 770.691C993.153 815.055 1040.54 842.4 1091.75 842.4H1308.44C1359.65 842.4 1407.04 815.055 1432.64 770.691L1540.99 582.909C1566.59 538.545 1566.59 483.855 1540.99 439.491L1432.45 251.709C1407.04 207.345 1359.65 180 1308.44 180Z"/>
</mask>
<path d="M1399.4 270.832L1066.66 462.509L1066.72 462.622L1066.79 462.735L1399.4 270.832ZM1507.74 458.613L1840.48 266.936L1840.41 266.823L1840.35 266.71L1507.74 458.613ZM1507.74 563.787L1840.35 755.69L1840.41 755.577L1840.48 755.464L1507.74 563.787ZM1399.4 751.568L1066.79 559.665L1066.72 559.778L1066.66 559.891L1399.4 751.568ZM1000.8 751.568L1333.54 559.891L1333.47 559.777L1333.41 559.664L1000.8 751.568ZM892.452 563.787L559.711 755.461L559.777 755.576L559.843 755.691L892.452 563.787ZM892.452 458.613L559.843 266.709L559.777 266.824L559.711 266.939L892.452 458.613ZM1000.8 270.832L1333.41 462.736L1333.47 462.622L1333.54 462.509L1000.8 270.832ZM967.548 251.709L634.965 59.7596L634.952 59.782L634.939 59.8044L967.548 251.709ZM859.204 439.491L1191.79 631.443L1191.8 631.419L1191.81 631.396L859.204 439.491ZM859.204 582.909L1191.81 391.004L1191.8 390.981L1191.79 390.957L859.204 582.909ZM967.548 770.691L634.939 962.596L634.952 962.618L634.965 962.64L967.548 770.691ZM1432.64 770.691L1765.22 962.644L1765.24 962.62L1765.25 962.596L1432.64 770.691ZM1540.99 582.909L1208.41 390.956L1208.39 390.98L1208.38 391.004L1540.99 582.909ZM1540.99 439.491L1873.57 247.538L1873.51 247.435L1873.45 247.332L1540.99 439.491ZM1432.45 251.709L1099.25 442.583L1099.62 443.226L1099.99 443.868L1432.45 251.709ZM1308.44 218.245V602.245C1208.59 602.245 1116.49 549.015 1066.66 462.509L1399.4 270.832L1732.14 79.1543C1644.85 -72.3677 1483.19 -165.755 1308.44 -165.755V218.245ZM1399.4 270.832L1066.79 462.735L1175.13 650.517L1507.74 458.613L1840.35 266.71L1732 78.9279L1399.4 270.832ZM1507.74 458.613L1175 650.291C1125.38 564.153 1125.38 458.247 1175 372.109L1507.74 563.787L1840.48 755.464C1927.55 604.31 1927.55 418.09 1840.48 266.936L1507.74 458.613ZM1507.74 563.787L1175.13 371.883L1066.79 559.665L1399.4 751.568L1732 943.472L1840.35 755.69L1507.74 563.787ZM1399.4 751.568L1066.66 559.891C1116.49 473.385 1208.6 420.155 1308.44 420.155V804.155V1188.16C1483.19 1188.16 1644.85 1094.77 1732.14 943.246L1399.4 751.568ZM1308.44 804.155V420.155H1091.75V804.155V1188.16H1308.44V804.155ZM1091.75 804.155V420.155C1191.6 420.155 1283.7 473.384 1333.54 559.891L1000.8 751.568L668.056 943.246C755.342 1094.77 917.003 1188.16 1091.75 1188.16V804.155ZM1000.8 751.568L1333.41 559.664L1225.06 371.882L892.452 563.787L559.843 755.691L668.187 943.473L1000.8 751.568ZM892.452 563.787L1225.19 372.112C1274.81 458.249 1274.81 564.151 1225.19 650.288L892.452 458.613L559.711 266.939C472.64 418.091 472.64 604.309 559.711 755.461L892.452 563.787ZM892.452 458.613L1225.06 650.518L1333.41 462.736L1000.8 270.832L668.187 78.9272L559.843 266.709L892.452 458.613ZM1000.8 270.832L1333.54 462.509C1283.7 549.015 1191.6 602.245 1091.75 602.245V218.245V-165.755C917.002 -165.755 755.342 -72.3678 668.056 79.1543L1000.8 270.832ZM1091.75 218.245V602.245H1308.44V218.245V-165.755H1091.75V218.245ZM1308.44 180V-204H1091.75V180V564H1308.44V180ZM1091.75 180V-204C903.414 -204 729.199 -103.515 634.965 59.7596L967.548 251.709L1300.13 443.659C1257.11 518.205 1177.67 564 1091.75 564V180ZM967.548 251.709L634.939 59.8044L526.595 247.586L859.204 439.491L1191.81 631.396L1300.16 443.614L967.548 251.709ZM859.204 439.491L526.622 247.539C432.459 410.689 432.459 611.711 526.622 774.861L859.204 582.909L1191.79 390.957C1234.74 465.379 1234.74 557.021 1191.79 631.443L859.204 439.491ZM859.204 582.909L526.595 774.814L634.939 962.596L967.548 770.691L1300.16 578.786L1191.81 391.004L859.204 582.909ZM967.548 770.691L634.965 962.64C729.199 1125.92 903.415 1226.4 1091.75 1226.4V842.4V458.4C1177.67 458.4 1257.11 504.195 1300.13 578.742L967.548 770.691ZM1091.75 842.4V1226.4H1308.44V842.4V458.4H1091.75V842.4ZM1308.44 842.4V1226.4C1496.78 1226.4 1670.99 1125.91 1765.22 962.644L1432.64 770.691L1100.06 578.738C1143.08 504.197 1222.52 458.4 1308.44 458.4V842.4ZM1432.64 770.691L1765.25 962.596L1873.6 774.814L1540.99 582.909L1208.38 391.004L1100.03 578.786L1432.64 770.691ZM1540.99 582.909L1873.57 774.862C1967.73 611.712 1967.73 410.688 1873.57 247.538L1540.99 439.491L1208.41 631.444C1165.45 557.022 1165.45 465.378 1208.41 390.956L1540.99 582.909ZM1540.99 439.491L1873.45 247.332L1764.91 59.5501L1432.45 251.709L1099.99 443.868L1208.53 631.65L1540.99 439.491ZM1432.45 251.709L1765.65 60.8356C1671.44 -103.625 1496.55 -204 1308.44 -204V180V564C1222.75 564 1142.63 518.315 1099.25 442.583L1432.45 251.709Z" fill="#D65C99" mask="url(#path-2-inside-1_1445_804)"/>
<path fill-rule="evenodd" clip-rule="evenodd" d="M1194.48 279.775C1194.48 255.288 1223.91 242.828 1241.49 259.87L1267.3 284.882C1274.3 291.662 1274.47 302.83 1267.69 309.826C1260.91 316.821 1249.74 316.996 1242.75 310.216L1229.76 297.63V415.989C1229.76 425.731 1221.86 433.629 1212.12 433.629C1202.38 433.629 1194.48 425.731 1194.48 415.989V279.775Z" fill="white"/>
<path fill-rule="evenodd" clip-rule="evenodd" d="M1186 425.068C1190.6 425.068 1194.32 421.343 1194.32 416.748C1194.32 412.153 1190.6 408.428 1186 408.428C1181.41 408.428 1177.68 412.153 1177.68 416.748C1177.68 421.343 1181.41 425.068 1186 425.068ZM1186 460.348C1210.08 460.348 1229.6 440.828 1229.6 416.748C1229.6 392.668 1210.08 373.148 1186 373.148C1161.92 373.148 1142.4 392.668 1142.4 416.748C1142.4 440.828 1161.92 460.348 1186 460.348Z" fill="white"/>
<path fill-rule="evenodd" clip-rule="evenodd" d="M1176.14 305.246C1183.22 312.241 1183.22 323.582 1176.14 330.577L1101.72 404.119C1098.69 407.117 1098.69 411.977 1101.72 414.975L1189.71 501.929C1192.74 504.927 1197.66 504.927 1200.69 501.929L1288.68 414.975C1291.71 411.977 1291.71 407.117 1288.68 404.119L1246.14 362.081C1239.06 355.087 1239.06 343.746 1246.14 336.751C1253.22 329.756 1264.7 329.756 1271.77 336.751L1314.31 378.788C1331.5 395.776 1331.5 423.318 1314.31 440.306L1226.32 527.26C1209.14 544.247 1181.27 544.247 1164.08 527.26L1076.09 440.306C1058.9 423.318 1058.9 395.776 1076.09 378.788L1150.51 305.246C1157.59 298.251 1169.06 298.251 1176.14 305.246Z" fill="#D65C99"/>
<g clip-path="url(#clip0_1445_804)">
<mask id="path-7-outside-2_1445_804" maskUnits="userSpaceOnUse" x="1014" y="583" width="356" height="178" fill="black">
<rect fill="white" x="1014" y="583" width="356" height="178"/>
<path d="M1080.29 741.496C1070.69 741.496 1062.3 739.512 1055.14 735.544C1048.1 731.576 1042.59 726.008 1038.62 718.84C1034.66 711.672 1032.67 703.352 1032.67 693.88V649.336C1032.67 639.736 1034.66 631.416 1038.62 624.376C1042.59 617.208 1048.1 611.64 1055.14 607.672C1062.3 603.704 1070.69 601.72 1080.29 601.72C1089.89 601.72 1098.21 603.704 1105.25 607.672C1112.42 611.64 1117.98 617.208 1121.95 624.376C1125.92 631.416 1127.9 639.736 1127.9 649.336V693.88C1127.9 703.352 1125.92 711.672 1121.95 718.84C1117.98 726.008 1112.42 731.576 1105.25 735.544C1098.21 739.512 1089.89 741.496 1080.29 741.496ZM1080.29 731.896C1087.97 731.896 1094.62 730.36 1100.26 727.288C1106.02 724.088 1110.43 719.608 1113.5 713.848C1116.7 708.088 1118.3 701.432 1118.3 693.88V649.336C1118.3 641.656 1116.7 635 1113.5 629.368C1110.43 623.608 1106.02 619.192 1100.26 616.12C1094.62 612.92 1087.97 611.32 1080.29 611.32C1072.61 611.32 1065.89 612.92 1060.13 616.12C1054.5 619.192 1050.08 623.608 1046.88 629.368C1043.81 635 1042.27 641.656 1042.27 649.336V693.88C1042.27 701.432 1043.81 708.088 1046.88 713.848C1050.08 719.608 1054.5 724.088 1060.13 727.288C1065.89 730.36 1072.61 731.896 1080.29 731.896ZM1197.97 741.496C1188.75 741.496 1180.05 739.896 1171.86 736.696C1163.67 733.496 1156.88 729.016 1151.51 723.256C1148.95 721.08 1149.01 718.84 1151.7 716.536C1154 714.488 1156.18 714.552 1158.23 716.728C1162.71 721.464 1168.47 725.176 1175.51 727.864C1182.55 730.552 1190.03 731.896 1197.97 731.896C1208.98 731.896 1217.55 729.656 1223.7 725.176C1229.84 720.696 1232.91 714.488 1232.91 706.552C1232.91 698.232 1229.71 691.576 1223.31 686.584C1216.91 681.592 1206.93 678.072 1193.36 676.024C1180.18 673.848 1170.45 669.688 1164.18 663.544C1157.91 657.4 1154.77 648.824 1154.77 637.816C1154.77 626.424 1158.42 617.592 1165.71 611.32C1173.01 604.92 1183.12 601.72 1196.05 601.72C1202.71 601.72 1209.62 603 1216.79 605.56C1223.95 608.12 1230.61 611.64 1236.75 616.12C1239.19 618.168 1239.44 620.408 1237.52 622.84C1235.6 625.4 1233.43 625.72 1230.99 623.8C1225.75 619.832 1219.99 616.76 1213.71 614.584C1207.57 612.408 1201.68 611.32 1196.05 611.32C1186.07 611.32 1178.26 613.688 1172.63 618.424C1167.12 623.032 1164.37 629.496 1164.37 637.816C1164.37 646.008 1166.8 652.472 1171.67 657.208C1176.66 661.816 1184.4 664.952 1194.9 666.616C1211.28 669.048 1223.31 673.528 1230.99 680.056C1238.67 686.456 1242.51 695.288 1242.51 706.552C1242.51 717.432 1238.61 726.008 1230.8 732.28C1222.99 738.424 1212.05 741.496 1197.97 741.496ZM1313.54 742.456C1298.56 742.456 1286.85 738.296 1278.4 729.976C1270.08 721.528 1265.92 709.816 1265.92 694.84V648.952C1265.92 633.976 1270.08 622.328 1278.4 614.008C1286.85 605.56 1298.56 601.336 1313.54 601.336C1320.83 601.336 1327.75 602.936 1334.27 606.136C1340.8 609.336 1346.31 613.816 1350.79 619.576C1351.68 620.6 1352.07 621.752 1351.94 623.032C1351.81 624.312 1351.23 625.4 1350.21 626.296C1349.06 627.064 1347.78 627.384 1346.37 627.256C1345.09 627 1344.07 626.424 1343.3 625.528C1339.71 620.92 1335.3 617.336 1330.05 614.776C1324.8 612.216 1319.3 610.936 1313.54 610.936C1301.63 610.936 1292.29 614.328 1285.51 621.112C1278.85 627.768 1275.52 637.048 1275.52 648.952V694.84C1275.52 706.744 1278.85 716.088 1285.51 722.872C1292.29 729.528 1301.63 732.856 1313.54 732.856C1319.3 732.856 1324.8 731.64 1330.05 729.208C1335.3 726.648 1339.71 723.064 1343.3 718.456C1344.07 717.432 1345.09 716.856 1346.37 716.728C1347.78 716.472 1349.06 716.792 1350.21 717.688C1351.23 718.456 1351.81 719.544 1351.94 720.952C1352.07 722.232 1351.68 723.384 1350.79 724.408C1346.31 730.168 1340.8 734.648 1334.27 737.848C1327.75 740.92 1320.83 742.456 1313.54 742.456Z"/>
</mask>
<path d="M1055.14 735.544L1046.3 751.225L1046.36 751.259L1046.42 751.292L1055.14 735.544ZM1038.62 718.84L1022.88 727.558L1022.88 727.558L1038.62 718.84ZM1038.62 624.376L1054.3 633.214L1054.34 633.154L1054.37 633.094L1038.62 624.376ZM1055.14 607.672L1046.42 591.924L1046.36 591.957L1046.3 591.991L1055.14 607.672ZM1105.25 607.672L1096.41 623.353L1096.47 623.387L1096.53 623.42L1105.25 607.672ZM1121.95 624.376L1106.2 633.094L1106.24 633.154L1106.27 633.214L1121.95 624.376ZM1121.95 718.84L1137.7 727.558L1137.7 727.558L1121.95 718.84ZM1105.25 735.544L1096.53 719.796L1096.47 719.829L1096.41 719.863L1105.25 735.544ZM1100.26 727.288L1108.88 743.09L1108.94 743.057L1109 743.023L1100.26 727.288ZM1113.5 713.848L1097.77 705.106L1097.69 705.241L1097.62 705.377L1113.5 713.848ZM1113.5 629.368L1097.62 637.839L1097.73 638.051L1097.85 638.26L1113.5 629.368ZM1100.26 616.12L1091.36 631.77L1091.57 631.889L1091.79 632.002L1100.26 616.12ZM1060.13 616.12L1068.75 631.922L1068.81 631.889L1068.87 631.855L1060.13 616.12ZM1046.88 629.368L1031.15 620.626L1031.11 620.687L1031.08 620.749L1046.88 629.368ZM1046.88 713.848L1031 722.319L1031.07 722.455L1031.15 722.59L1046.88 713.848ZM1060.13 727.288L1051.24 742.938L1051.45 743.057L1051.66 743.17L1060.13 727.288ZM1080.29 741.496V723.496C1073.21 723.496 1067.93 722.051 1063.85 719.796L1055.14 735.544L1046.42 751.292C1056.68 756.973 1068.16 759.496 1080.29 759.496V741.496ZM1055.14 735.544L1063.97 719.863C1059.88 717.556 1056.75 714.417 1054.37 710.122L1038.62 718.84L1022.88 727.558C1028.43 737.599 1036.31 745.596 1046.3 751.225L1055.14 735.544ZM1038.62 718.84L1054.37 710.122C1052.1 706.013 1050.67 700.783 1050.67 693.88H1032.67H1014.67C1014.67 705.921 1017.21 717.331 1022.88 727.558L1038.62 718.84ZM1032.67 693.88H1050.67V649.336H1032.67H1014.67V693.88H1032.67ZM1032.67 649.336H1050.67C1050.67 642.249 1052.12 637.091 1054.3 633.214L1038.62 624.376L1022.94 615.538C1017.19 625.741 1014.67 637.223 1014.67 649.336H1032.67ZM1038.62 624.376L1054.37 633.094C1056.75 628.799 1059.88 625.66 1063.97 623.353L1055.14 607.672L1046.3 591.991C1036.31 597.62 1028.43 605.617 1022.88 615.658L1038.62 624.376ZM1055.14 607.672L1063.85 623.42C1067.93 621.165 1073.21 619.72 1080.29 619.72V601.72V583.72C1068.16 583.72 1056.68 586.243 1046.42 591.924L1055.14 607.672ZM1080.29 601.72V619.72C1087.37 619.72 1092.53 621.168 1096.41 623.353L1105.25 607.672L1114.09 591.991C1103.88 586.24 1092.4 583.72 1080.29 583.72V601.72ZM1105.25 607.672L1096.53 623.42C1100.74 625.751 1103.87 628.883 1106.2 633.094L1121.95 624.376L1137.7 615.658C1132.1 605.533 1124.09 597.529 1113.97 591.924L1105.25 607.672ZM1121.95 624.376L1106.27 633.214C1108.46 637.091 1109.9 642.249 1109.9 649.336H1127.9H1145.9C1145.9 637.223 1143.38 625.741 1137.63 615.538L1121.95 624.376ZM1127.9 649.336H1109.9V693.88H1127.9H1145.9V649.336H1127.9ZM1127.9 693.88H1109.9C1109.9 700.783 1108.48 706.013 1106.2 710.122L1121.95 718.84L1137.7 727.558C1143.36 717.331 1145.9 705.921 1145.9 693.88H1127.9ZM1121.95 718.84L1106.2 710.122C1103.87 714.333 1100.74 717.465 1096.53 719.796L1105.25 735.544L1113.97 751.292C1124.09 745.687 1132.1 737.683 1137.7 727.558L1121.95 718.84ZM1105.25 735.544L1096.41 719.863C1092.53 722.048 1087.37 723.496 1080.29 723.496V741.496V759.496C1092.4 759.496 1103.88 756.976 1114.09 751.225L1105.25 735.544ZM1080.29 731.896V749.896C1090.39 749.896 1100.12 747.863 1108.88 743.09L1100.26 727.288L1091.64 711.486C1089.12 712.857 1085.55 713.896 1080.29 713.896V731.896ZM1100.26 727.288L1109 743.023C1117.76 738.156 1124.67 731.167 1129.39 722.319L1113.5 713.848L1097.62 705.377C1096.2 708.049 1094.27 710.02 1091.51 711.553L1100.26 727.288ZM1113.5 713.848L1129.24 722.59C1134.13 713.786 1136.3 704.039 1136.3 693.88H1118.3H1100.3C1100.3 698.825 1099.28 702.39 1097.77 705.106L1113.5 713.848ZM1118.3 693.88H1136.3V649.336H1118.3H1100.3V693.88H1118.3ZM1118.3 649.336H1136.3C1136.3 639.119 1134.16 629.282 1129.15 620.476L1113.5 629.368L1097.85 638.26C1099.25 640.718 1100.3 644.193 1100.3 649.336H1118.3ZM1113.5 629.368L1129.39 620.897C1124.63 611.986 1117.64 604.99 1108.73 600.238L1100.26 616.12L1091.79 632.002C1094.39 633.394 1096.23 635.23 1097.62 637.839L1113.5 629.368ZM1100.26 616.12L1109.15 600.47C1100.34 595.466 1090.5 593.32 1080.29 593.32V611.32V629.32C1085.43 629.32 1088.91 630.374 1091.36 631.77L1100.26 616.12ZM1080.29 611.32V593.32C1070.06 593.32 1060.23 595.47 1051.39 600.385L1060.13 616.12L1068.87 631.855C1071.54 630.37 1075.16 629.32 1080.29 629.32V611.32ZM1060.13 616.12L1051.51 600.318C1042.8 605.068 1035.95 611.972 1031.15 620.626L1046.88 629.368L1062.61 638.11C1064.21 635.244 1066.19 633.316 1068.75 631.922L1060.13 616.12ZM1046.88 629.368L1031.08 620.749C1026.3 629.5 1024.27 639.236 1024.27 649.336H1042.27H1060.27C1060.27 644.076 1061.31 640.5 1062.68 637.987L1046.88 629.368ZM1042.27 649.336H1024.27V693.88H1042.27H1060.27V649.336H1042.27ZM1042.27 693.88H1024.27C1024.27 703.92 1026.33 713.569 1031 722.319L1046.88 713.848L1062.76 705.377C1061.28 702.607 1060.27 698.944 1060.27 693.88H1042.27ZM1046.88 713.848L1031.15 722.59C1035.92 731.184 1042.68 738.077 1051.24 742.938L1060.13 727.288L1069.02 711.638C1066.31 710.099 1064.24 708.032 1062.61 705.106L1046.88 713.848ZM1060.13 727.288L1051.66 743.17C1060.45 747.859 1070.18 749.896 1080.29 749.896V731.896V713.896C1075.04 713.896 1071.33 712.861 1068.6 711.406L1060.13 727.288ZM1171.86 736.696L1165.31 753.462L1165.31 753.462L1171.86 736.696ZM1151.51 723.256L1164.67 710.974L1163.96 710.214L1163.16 709.541L1151.51 723.256ZM1151.7 716.536L1163.41 730.203L1163.54 730.097L1163.66 729.989L1151.7 716.536ZM1158.23 716.728L1145.12 729.065L1145.13 729.081L1145.15 729.098L1158.23 716.728ZM1223.31 686.584L1212.24 700.777L1212.24 700.777L1223.31 686.584ZM1193.36 676.024L1190.43 693.784L1190.55 693.804L1190.68 693.822L1193.36 676.024ZM1164.18 663.544L1151.58 676.402L1151.58 676.402L1164.18 663.544ZM1165.71 611.32L1177.45 624.97L1177.52 624.911L1177.58 624.852L1165.71 611.32ZM1216.79 605.56L1222.84 588.609L1222.84 588.609L1216.79 605.56ZM1236.75 616.12L1248.35 602.352L1247.87 601.946L1247.36 601.576L1236.75 616.12ZM1237.52 622.84L1223.39 611.686L1223.26 611.861L1223.12 612.04L1237.52 622.84ZM1230.99 623.8L1242.15 609.672L1242 609.556L1241.85 609.442L1230.99 623.8ZM1213.71 614.584L1207.71 631.551L1207.76 631.571L1207.81 631.59L1213.71 614.584ZM1172.63 618.424L1184.18 632.226L1184.2 632.213L1184.21 632.201L1172.63 618.424ZM1171.67 657.208L1159.11 670.104L1159.28 670.272L1159.46 670.434L1171.67 657.208ZM1194.9 666.616L1192.08 684.394L1192.17 684.408L1192.26 684.421L1194.9 666.616ZM1230.99 680.056L1219.34 693.771L1219.4 693.828L1219.47 693.884L1230.99 680.056ZM1230.8 732.28L1241.93 746.426L1242 746.37L1242.08 746.313L1230.8 732.28ZM1197.97 741.496V723.496C1190.89 723.496 1184.41 722.276 1178.41 719.93L1171.86 736.696L1165.31 753.462C1175.69 757.516 1186.62 759.496 1197.97 759.496V741.496ZM1171.86 736.696L1178.41 719.93C1172.43 717.596 1168 714.545 1164.67 710.974L1151.51 723.256L1138.35 735.538C1145.77 743.487 1154.9 749.396 1165.31 753.462L1171.86 736.696ZM1151.51 723.256L1163.16 709.541C1163.92 710.18 1167.82 713.833 1167.63 720.458C1167.45 726.718 1163.73 729.933 1163.41 730.203L1151.7 716.536L1139.98 702.869C1136.98 705.443 1131.88 710.93 1131.64 719.43C1131.39 728.295 1136.54 734.156 1139.85 736.971L1151.51 723.256ZM1151.7 716.536L1163.66 729.989C1162.81 730.744 1159.64 733.191 1154.53 733.04C1149.28 732.886 1146.12 730.131 1145.12 729.065L1158.23 716.728L1171.33 704.391C1168.28 701.149 1163.01 697.274 1155.59 697.056C1148.3 696.841 1142.89 700.28 1139.74 703.083L1151.7 716.536ZM1158.23 716.728L1145.15 729.098C1151.76 736.081 1159.91 741.178 1169.09 744.68L1175.51 727.864L1181.93 711.048C1177.02 709.174 1173.66 706.847 1171.3 704.358L1158.23 716.728ZM1175.51 727.864L1169.09 744.68C1178.28 748.192 1187.96 749.896 1197.97 749.896V731.896V713.896C1192.11 713.896 1186.81 712.912 1181.93 711.048L1175.51 727.864ZM1197.97 731.896V749.896C1211.15 749.896 1223.98 747.25 1234.3 739.72L1223.7 725.176L1213.09 710.632C1211.13 712.062 1206.81 713.896 1197.97 713.896V731.896ZM1223.7 725.176L1234.3 739.72C1245.33 731.681 1250.91 719.943 1250.91 706.552H1232.91H1214.91C1214.91 708.156 1214.62 708.894 1214.48 709.177C1214.35 709.433 1214.05 709.931 1213.09 710.632L1223.7 725.176ZM1232.91 706.552H1250.91C1250.91 692.848 1245.28 680.892 1234.39 672.391L1223.31 686.584L1212.24 700.777C1214.14 702.26 1214.91 703.616 1214.91 706.552H1232.91ZM1223.31 686.584L1234.39 672.391C1224.4 664.604 1210.82 660.455 1196.05 658.226L1193.36 676.024L1190.68 693.822C1203.04 695.689 1209.43 698.58 1212.24 700.777L1223.31 686.584ZM1193.36 676.024L1196.29 658.264C1184.97 656.396 1179.35 653.212 1176.77 650.686L1164.18 663.544L1151.58 676.402C1161.55 686.164 1175.38 691.3 1190.43 693.784L1193.36 676.024ZM1164.18 663.544L1176.77 650.686C1174.79 648.74 1172.77 645.286 1172.77 637.816H1154.77H1136.77C1136.77 652.362 1141.02 666.06 1151.58 676.402L1164.18 663.544ZM1154.77 637.816H1172.77C1172.77 630.606 1174.87 627.185 1177.45 624.97L1165.71 611.32L1153.98 597.67C1141.97 607.999 1136.77 622.242 1136.77 637.816H1154.77ZM1165.71 611.32L1177.58 624.852C1180.64 622.173 1186.02 619.72 1196.05 619.72V601.72V583.72C1180.23 583.72 1165.38 587.667 1153.84 597.788L1165.71 611.32ZM1196.05 601.72V619.72C1200.37 619.72 1205.23 620.547 1210.73 622.511L1216.79 605.56L1222.84 588.609C1214 585.453 1205.04 583.72 1196.05 583.72V601.72ZM1216.79 605.56L1210.73 622.511C1216.28 624.492 1221.4 627.201 1226.15 630.664L1236.75 616.12L1247.36 601.576C1239.82 596.079 1231.63 591.748 1222.84 588.609L1216.79 605.56ZM1236.75 616.12L1225.16 629.888C1224.31 629.17 1221.46 626.414 1220.89 621.38C1220.3 616.236 1222.53 612.775 1223.39 611.686L1237.52 622.84L1251.65 633.994C1254.43 630.473 1257.5 624.676 1256.65 617.292C1255.82 610.018 1251.63 605.118 1248.35 602.352L1236.75 616.12ZM1237.52 622.84L1223.12 612.04C1223.72 611.248 1226.45 607.983 1231.83 607.192C1237.37 606.377 1241.1 608.844 1242.15 609.672L1230.99 623.8L1219.84 637.928C1223.32 640.676 1229.35 643.943 1237.07 642.808C1244.63 641.697 1249.41 636.992 1251.92 633.64L1237.52 622.84ZM1230.99 623.8L1241.85 609.442C1235.09 604.327 1227.65 600.366 1219.61 597.578L1213.71 614.584L1207.81 631.59C1212.32 633.154 1216.41 635.337 1220.14 638.158L1230.99 623.8ZM1213.71 614.584L1219.72 597.617C1211.95 594.863 1204.02 593.32 1196.05 593.32V611.32V629.32C1199.34 629.32 1203.19 629.953 1207.71 631.551L1213.71 614.584ZM1196.05 611.32V593.32C1183.34 593.32 1170.91 596.346 1161.04 604.647L1172.63 618.424L1184.21 632.201C1185.6 631.03 1188.79 629.32 1196.05 629.32V611.32ZM1172.63 618.424L1161.07 604.622C1150.81 613.213 1146.37 625.113 1146.37 637.816H1164.37H1182.37C1182.37 633.879 1183.43 632.851 1184.18 632.226L1172.63 618.424ZM1164.37 637.816H1146.37C1146.37 649.788 1150.06 661.296 1159.11 670.104L1171.67 657.208L1184.22 644.312C1183.54 643.648 1182.37 642.228 1182.37 637.816H1164.37ZM1171.67 657.208L1159.46 670.434C1168.15 678.46 1179.9 682.463 1192.08 684.394L1194.9 666.616L1197.72 648.838C1188.9 647.441 1185.16 645.172 1183.88 643.982L1171.67 657.208ZM1194.9 666.616L1192.26 684.421C1207.23 686.644 1215.38 690.408 1219.34 693.771L1230.99 680.056L1242.65 666.341C1231.25 656.648 1215.33 651.452 1197.54 648.811L1194.9 666.616ZM1230.99 680.056L1219.47 693.884C1222.5 696.405 1224.51 699.869 1224.51 706.552H1242.51H1260.51C1260.51 690.707 1254.85 676.507 1242.52 666.228L1230.99 680.056ZM1242.51 706.552H1224.51C1224.51 712.515 1222.68 715.715 1219.53 718.247L1230.8 732.28L1242.08 746.313C1254.54 736.301 1260.51 722.349 1260.51 706.552H1242.51ZM1230.8 732.28L1219.67 718.134C1216.12 720.925 1209.66 723.496 1197.97 723.496V741.496V759.496C1214.44 759.496 1229.86 755.923 1241.93 746.426L1230.8 732.28ZM1278.4 729.976L1265.58 742.606L1265.67 742.704L1265.77 742.801L1278.4 729.976ZM1278.4 614.008L1291.13 626.736L1278.4 614.008ZM1350.79 619.576L1336.58 630.627L1336.9 631.038L1337.24 631.429L1350.79 619.576ZM1351.94 623.032L1334.03 621.241L1334.03 621.241L1351.94 623.032ZM1350.21 626.296L1360.19 641.273L1361.18 640.619L1362.06 639.842L1350.21 626.296ZM1346.37 627.256L1342.84 644.906L1343.78 645.095L1344.74 645.182L1346.37 627.256ZM1343.3 625.528L1329.09 636.579L1329.35 636.917L1329.63 637.242L1343.3 625.528ZM1330.05 614.776L1322.16 630.954L1322.16 630.954L1330.05 614.776ZM1285.51 621.112L1298.23 633.84L1298.23 633.84L1285.51 621.112ZM1285.51 722.872L1272.66 735.478L1272.78 735.6L1272.9 735.721L1285.51 722.872ZM1330.05 729.208L1337.62 745.54L1337.78 745.464L1337.94 745.386L1330.05 729.208ZM1343.3 718.456L1357.51 729.507L1357.6 729.382L1357.7 729.256L1343.3 718.456ZM1346.37 716.728L1348.16 734.639L1348.88 734.567L1349.59 734.438L1346.37 716.728ZM1350.21 717.688L1339.16 731.896L1339.28 731.993L1339.41 732.088L1350.21 717.688ZM1351.94 720.952L1334.01 722.582L1334.02 722.662L1334.03 722.743L1351.94 720.952ZM1350.79 724.408L1337.24 712.555L1336.9 712.946L1336.58 713.357L1350.79 724.408ZM1334.27 737.848L1341.94 754.135L1342.07 754.074L1342.2 754.011L1334.27 737.848ZM1313.54 742.456V724.456C1301.98 724.456 1295.28 721.339 1291.03 717.151L1278.4 729.976L1265.77 742.801C1278.42 755.253 1295.14 760.456 1313.54 760.456V742.456ZM1278.4 729.976L1291.23 717.346C1287.04 713.093 1283.92 706.395 1283.92 694.84H1265.92H1247.92C1247.92 713.237 1253.13 729.963 1265.58 742.606L1278.4 729.976ZM1265.92 694.84H1283.92V648.952H1265.92H1247.92V694.84H1265.92ZM1265.92 648.952H1283.92C1283.92 637.383 1287.04 630.823 1291.13 626.736L1278.4 614.008L1265.67 601.28C1253.12 613.833 1247.92 630.569 1247.92 648.952H1265.92ZM1278.4 614.008L1291.13 626.736C1295.4 622.471 1302.06 619.336 1313.54 619.336V601.336V583.336C1295.07 583.336 1278.3 588.649 1265.67 601.28L1278.4 614.008ZM1313.54 601.336V619.336C1318.1 619.336 1322.3 620.312 1326.35 622.299L1334.27 606.136L1342.2 589.973C1333.19 585.56 1323.57 583.336 1313.54 583.336V601.336ZM1334.27 606.136L1326.35 622.299C1330.41 624.29 1333.77 627.018 1336.58 630.627L1350.79 619.576L1364.99 608.525C1358.84 600.614 1351.19 594.382 1342.2 589.973L1334.27 606.136ZM1350.79 619.576L1337.24 631.429C1336.3 630.359 1335.32 628.85 1334.67 626.9C1334.01 624.927 1333.85 622.973 1334.03 621.241L1351.94 623.032L1369.85 624.823C1370.5 618.275 1368.3 612.252 1364.33 607.723L1350.79 619.576ZM1351.94 623.032L1334.03 621.241C1334.18 619.668 1334.65 617.994 1335.5 616.386C1336.34 614.795 1337.39 613.596 1338.36 612.75L1350.21 626.296L1362.06 639.842C1366.31 636.129 1369.24 630.929 1369.85 624.823L1351.94 623.032ZM1350.21 626.296L1340.23 611.319C1341.28 610.616 1342.56 610.014 1344.02 609.649C1345.47 609.286 1346.84 609.224 1348 609.33L1346.37 627.256L1344.74 645.182C1350.15 645.674 1355.54 644.373 1360.19 641.273L1350.21 626.296ZM1346.37 627.256L1349.9 609.606C1352.12 610.05 1354.83 611.326 1356.96 613.814L1343.3 625.528L1329.63 637.242C1333.3 641.522 1338.06 643.95 1342.84 644.906L1346.37 627.256ZM1343.3 625.528L1357.51 614.477C1352.24 607.7 1345.66 602.362 1337.94 598.598L1330.05 614.776L1322.16 630.954C1324.94 632.31 1327.19 634.14 1329.09 636.579L1343.3 625.528ZM1330.05 614.776L1337.94 598.598C1330.27 594.856 1322.07 592.936 1313.54 592.936V610.936V628.936C1316.52 628.936 1319.33 629.576 1322.16 630.954L1330.05 614.776ZM1313.54 610.936V592.936C1298.08 592.936 1283.71 597.452 1272.78 608.384L1285.51 621.112L1298.23 633.84C1300.87 631.204 1305.19 628.936 1313.54 628.936V610.936ZM1285.51 621.112L1272.78 608.384C1261.91 619.252 1257.52 633.603 1257.52 648.952H1275.52H1293.52C1293.52 640.493 1295.79 636.284 1298.23 633.84L1285.51 621.112ZM1275.52 648.952H1257.52V694.84H1275.52H1293.52V648.952H1275.52ZM1275.52 694.84H1257.52C1257.52 710.206 1261.92 724.529 1272.66 735.478L1285.51 722.872L1298.35 710.266C1295.78 707.647 1293.52 703.282 1293.52 694.84H1275.52ZM1285.51 722.872L1272.9 735.721C1283.85 746.463 1298.17 750.856 1313.54 750.856V732.856V714.856C1305.1 714.856 1300.73 712.593 1298.11 710.023L1285.51 722.872ZM1313.54 732.856V750.856C1321.92 750.856 1330.01 749.066 1337.62 745.54L1330.05 729.208L1322.48 712.876C1319.6 714.214 1316.67 714.856 1313.54 714.856V732.856ZM1330.05 729.208L1337.94 745.386C1345.66 741.622 1352.24 736.284 1357.51 729.507L1343.3 718.456L1329.09 707.405C1327.19 709.844 1324.94 711.674 1322.16 713.03L1330.05 729.208ZM1343.3 718.456L1357.7 729.256C1356.72 730.562 1355.32 731.901 1353.47 732.944C1351.61 733.986 1349.76 734.479 1348.16 734.639L1346.37 716.728L1344.58 698.817C1338.31 699.444 1332.71 702.579 1328.9 707.656L1343.3 718.456ZM1346.37 716.728L1349.59 734.438C1347.99 734.728 1346.07 734.75 1344.02 734.239C1341.98 733.729 1340.35 732.822 1339.16 731.896L1350.21 717.688L1361.26 703.48C1356.16 699.511 1349.71 697.826 1343.15 699.018L1346.37 716.728ZM1350.21 717.688L1339.41 732.088C1337.89 730.945 1336.5 729.397 1335.5 727.502C1334.52 725.648 1334.13 723.903 1334.01 722.582L1351.94 720.952L1369.86 719.322C1369.33 713.433 1366.56 707.452 1361.01 703.288L1350.21 717.688ZM1351.94 720.952L1334.03 722.743C1333.85 721.011 1334.01 719.057 1334.67 717.084C1335.32 715.134 1336.3 713.625 1337.24 712.555L1350.79 724.408L1364.33 736.261C1368.3 731.732 1370.5 725.709 1369.85 719.161L1351.94 720.952ZM1350.79 724.408L1336.58 713.357C1333.77 716.966 1330.41 719.694 1326.35 721.685L1334.27 737.848L1342.2 754.011C1351.19 749.602 1358.84 743.37 1364.99 735.459L1350.79 724.408ZM1334.27 737.848L1326.61 721.561C1322.51 723.492 1318.22 724.456 1313.54 724.456V742.456V760.456C1323.45 760.456 1332.99 758.348 1341.94 754.135L1334.27 737.848Z" fill="white" mask="url(#path-7-outside-2_1445_804)"/>
</g>
<path d="M672.288 1015.5C662.688 1015.5 654.304 1013.51 647.136 1009.54C640.096 1005.58 634.592 1000.01 630.624 992.84C626.656 985.672 624.672 977.352 624.672 967.88V923.336C624.672 913.736 626.656 905.416 630.624 898.376C634.592 891.208 640.096 885.64 647.136 881.672C654.304 877.704 662.688 875.72 672.288 875.72C681.888 875.72 690.208 877.704 697.248 881.672C704.416 885.64 709.984 891.208 713.952 898.376C717.92 905.416 719.904 913.736 719.904 923.336V967.88C719.904 977.352 717.92 985.672 713.952 992.84C709.984 1000.01 704.416 1005.58 697.248 1009.54C690.208 1013.51 681.888 1015.5 672.288 1015.5ZM672.288 1005.9C679.968 1005.9 686.624 1004.36 692.256 1001.29C698.016 998.088 702.432 993.608 705.504 987.848C708.704 982.088 710.304 975.432 710.304 967.88V923.336C710.304 915.656 708.704 909 705.504 903.368C702.432 897.608 698.016 893.192 692.256 890.12C686.624 886.92 679.968 885.32 672.288 885.32C664.608 885.32 657.888 886.92 652.128 890.12C646.496 893.192 642.08 897.608 638.88 903.368C635.808 909 634.272 915.656 634.272 923.336V967.88C634.272 975.432 635.808 982.088 638.88 987.848C642.08 993.608 646.496 998.088 652.128 1001.29C657.888 1004.36 664.608 1005.9 672.288 1005.9ZM772.691 1015.5C765.395 1015.5 758.931 1013.9 753.299 1010.7C747.795 1007.5 743.891 1003.21 741.587 997.832C741.075 996.68 741.075 995.528 741.587 994.376C742.099 993.224 742.931 992.392 744.083 991.88C745.235 991.368 746.387 991.368 747.539 991.88C748.691 992.392 749.523 993.224 750.035 994.376C751.699 998.088 754.515 1001.03 758.483 1003.21C762.579 1005.26 767.315 1006.28 772.691 1006.28C778.195 1006.28 782.483 1005.77 785.555 1004.74C788.627 1003.59 790.803 1002.25 792.083 1000.71C793.491 999.048 794.323 997.448 794.579 995.912C794.963 994.248 795.155 992.968 795.155 992.072C795.155 990.152 794.707 988.296 793.811 986.504C792.915 984.712 790.995 983.048 788.051 981.512C785.107 979.848 780.563 978.376 774.419 977.096C770.067 976.2 765.523 974.92 760.786 973.256C756.179 971.592 752.275 969.288 749.075 966.344C745.875 963.272 744.275 959.304 744.275 954.44C744.403 947.912 747.155 942.6 752.531 938.504C757.907 934.28 764.883 932.168 773.459 932.168C779.859 932.168 785.619 933.576 790.739 936.392C795.987 939.08 799.827 942.792 802.259 947.528C802.899 948.552 803.027 949.704 802.643 950.984C802.259 952.136 801.555 953.032 800.531 953.672C799.251 954.184 798.035 954.312 796.883 954.056C795.731 953.672 794.899 952.904 794.387 951.752C792.979 949.192 790.547 946.888 787.091 944.84C783.635 942.664 779.091 941.576 773.459 941.576C770.259 941.576 767.123 942.024 764.051 942.92C760.979 943.688 758.419 945.032 756.371 946.952C754.451 948.744 753.427 951.304 753.299 954.632C753.299 955.4 753.619 956.616 754.259 958.28C754.899 959.816 756.819 961.48 760.019 963.272C763.219 965.064 768.595 966.728 776.147 968.264C780.627 969.16 784.979 970.504 789.203 972.296C793.555 973.96 797.139 976.392 799.955 979.592C802.899 982.664 804.307 986.824 804.179 992.072C804.179 994.248 803.795 996.68 803.027 999.368C802.259 1002.06 800.787 1004.62 798.611 1007.05C796.435 1009.48 793.235 1011.46 789.01 1013C784.915 1014.66 779.475 1015.5 772.691 1015.5ZM852.735 1015.5C843.903 1015.5 836.927 1012.62 831.807 1006.86C826.815 1001.1 824.319 993.16 824.319 983.048V937.16C824.319 935.88 824.703 934.792 825.471 933.896C826.367 933 827.455 932.552 828.735 932.552C830.015 932.552 831.103 933 831.999 933.896C832.895 934.792 833.343 935.88 833.343 937.16V983.048C833.343 985.992 833.791 989.32 834.687 993.032C835.583 996.616 837.375 999.752 840.063 1002.44C842.879 1005.13 847.103 1006.47 852.735 1006.47C860.287 1006.47 866.111 1004.42 870.207 1000.33C874.431 996.232 876.543 990.344 876.543 982.664V936.968C876.543 935.688 876.991 934.6 877.887 933.704C878.783 932.68 879.871 932.168 881.151 932.168C882.431 932.168 883.455 932.68 884.223 933.704C885.119 934.6 885.567 935.688 885.567 936.968V1011.08C885.567 1012.36 885.119 1013.38 884.223 1014.15C883.455 1015.05 882.431 1015.5 881.151 1015.5C879.871 1015.5 878.783 1015.05 877.887 1014.15C876.991 1013.38 876.543 1012.36 876.543 1011.08V1005.13C873.599 1008.33 870.079 1010.89 865.983 1012.81C862.015 1014.6 857.599 1015.5 852.735 1015.5ZM953.846 1015.5C944.63 1015.5 935.926 1013.9 927.734 1010.7C919.542 1007.5 912.758 1003.02 907.382 997.256C904.822 995.08 904.886 992.84 907.574 990.536C909.878 988.488 912.054 988.552 914.102 990.728C918.582 995.464 924.342 999.176 931.382 1001.86C938.422 1004.55 945.91 1005.9 953.846 1005.9C964.854 1005.9 973.43 1003.66 979.574 999.176C985.718 994.696 988.79 988.488 988.79 980.552C988.79 972.232 985.59 965.576 979.19 960.584C972.79 955.592 962.806 952.072 949.238 950.024C936.054 947.848 926.326 943.688 920.054 937.544C913.782 931.4 910.646 922.824 910.646 911.816C910.646 900.424 914.294 891.592 921.59 885.32C928.886 878.92 938.998 875.72 951.926 875.72C958.582 875.72 965.494 877 972.662 879.56C979.83 882.12 986.486 885.64 992.63 890.12C995.062 892.168 995.318 894.408 993.397 896.84C991.478 899.4 989.302 899.72 986.87 897.8C981.622 893.832 975.862 890.76 969.59 888.584C963.446 886.408 957.558 885.32 951.926 885.32C941.942 885.32 934.134 887.688 928.502 892.424C922.998 897.032 920.246 903.496 920.246 911.816C920.246 920.008 922.678 926.472 927.542 931.208C932.534 935.816 940.278 938.952 950.774 940.616C967.158 943.048 979.19 947.528 986.87 954.056C994.55 960.456 998.39 969.288 998.39 980.552C998.39 991.432 994.486 1000.01 986.678 1006.28C978.87 1012.42 967.926 1015.5 953.846 1015.5ZM1053.29 1015.5C1042.41 1015.5 1033.83 1011.78 1027.56 1004.36C1021.29 996.808 1018.15 986.632 1018.15 973.832C1018.15 960.904 1021.29 950.728 1027.56 943.304C1033.83 935.88 1042.41 932.168 1053.29 932.168C1063.91 932.168 1072.36 935.816 1078.63 943.112C1079.53 944.008 1079.91 945.096 1079.78 946.376C1079.78 947.656 1079.27 948.744 1078.25 949.64C1077.35 950.408 1076.26 950.792 1074.98 950.792C1073.7 950.664 1072.61 950.152 1071.72 949.256C1067.37 944.136 1061.22 941.576 1053.29 941.576C1045.09 941.576 1038.69 944.392 1034.09 950.024C1029.48 955.656 1027.17 963.592 1027.17 973.832C1027.17 984.2 1029.48 992.2 1034.09 997.832C1038.69 1003.46 1045.09 1006.28 1053.29 1006.28C1061.35 1006.28 1067.49 1003.78 1071.72 998.792C1072.61 997.768 1073.7 997.192 1074.98 997.064C1076.26 996.936 1077.35 997.32 1078.25 998.216C1079.27 998.984 1079.78 1000.01 1079.78 1001.29C1079.91 1002.57 1079.53 1003.72 1078.63 1004.74C1072.23 1011.91 1063.78 1015.5 1053.29 1015.5ZM1130.16 1015.5C1119.28 1015.5 1110.7 1011.78 1104.43 1004.36C1098.16 996.808 1095.02 986.632 1095.02 973.832C1095.02 960.904 1098.16 950.728 1104.43 943.304C1110.7 935.88 1119.28 932.168 1130.16 932.168C1140.91 932.168 1149.42 935.88 1155.7 943.304C1162.1 950.728 1165.3 960.904 1165.3 973.832C1165.3 986.632 1162.1 996.808 1155.7 1004.36C1149.42 1011.78 1140.91 1015.5 1130.16 1015.5ZM1130.16 1006.28C1138.48 1006.28 1144.88 1003.46 1149.36 997.832C1153.84 992.2 1156.08 984.2 1156.08 973.832C1156.08 963.592 1153.84 955.656 1149.36 950.024C1144.88 944.392 1138.48 941.576 1130.16 941.576C1121.97 941.576 1115.57 944.392 1110.96 950.024C1106.35 955.656 1104.05 963.592 1104.05 973.832C1104.05 984.2 1106.35 992.2 1110.96 997.832C1115.57 1003.46 1121.97 1006.28 1130.16 1006.28ZM1189.86 1015.5C1188.58 1015.5 1187.5 1015.05 1186.6 1014.15C1185.7 1013.26 1185.26 1012.23 1185.26 1011.08V936.968C1185.26 935.688 1185.7 934.6 1186.6 933.704C1187.5 932.808 1188.58 932.36 1189.86 932.36C1191.14 932.36 1192.17 932.808 1192.94 933.704C1193.83 934.6 1194.28 935.688 1194.28 936.968V941.768C1196.2 939.464 1198.89 937.48 1202.34 935.816C1205.8 934.024 1209.13 932.872 1212.33 932.36C1216.81 931.72 1221.35 932.104 1225.96 933.512C1230.57 934.792 1234.66 937.032 1238.25 940.232C1241.96 943.432 1244.52 947.656 1245.93 952.904C1246.31 954.056 1246.18 955.208 1245.54 956.36C1244.9 957.384 1244.01 958.088 1242.86 958.472C1241.58 958.728 1240.36 958.536 1239.21 957.896C1238.18 957.256 1237.54 956.36 1237.29 955.208C1236.26 951.496 1234.47 948.552 1231.91 946.376C1229.35 944.2 1226.41 942.728 1223.08 941.96C1219.88 941.192 1216.74 941.064 1213.67 941.576C1208.17 942.216 1203.56 944.264 1199.85 947.72C1196.14 951.176 1194.28 956.68 1194.28 964.232V1011.08C1194.28 1012.23 1193.83 1013.26 1192.94 1014.15C1192.17 1015.05 1191.14 1015.5 1189.86 1015.5ZM1297.41 1015.5C1286.53 1015.5 1277.95 1011.78 1271.68 1004.36C1265.41 996.808 1262.27 986.632 1262.27 973.832C1262.27 960.904 1265.41 950.728 1271.68 943.304C1277.95 935.88 1286.53 932.168 1297.41 932.168C1306.88 932.168 1314.82 935.432 1321.22 941.96C1327.75 948.488 1331.27 957.32 1331.78 968.456V969.032C1331.78 970.184 1331.33 971.208 1330.43 972.104C1329.67 973 1328.58 973.448 1327.17 973.448H1271.49C1271.49 983.304 1273.54 991.24 1277.63 997.256C1281.86 1003.27 1288.45 1006.28 1297.41 1006.28C1302.02 1006.28 1306.31 1005.32 1310.27 1003.4C1314.37 1001.35 1317.51 998.728 1319.68 995.528C1320.45 994.504 1321.41 993.864 1322.56 993.608C1323.84 993.352 1324.99 993.608 1326.02 994.376C1327.04 995.016 1327.68 995.976 1327.94 997.256C1328.19 998.536 1327.94 999.688 1327.17 1000.71C1324.1 1005.19 1319.87 1008.78 1314.5 1011.46C1309.25 1014.15 1303.55 1015.5 1297.41 1015.5ZM1272.07 964.424H1321.79C1320.51 957.128 1317.7 951.496 1313.35 947.528C1309.12 943.56 1303.81 941.576 1297.41 941.576C1290.5 941.576 1284.87 943.56 1280.51 947.528C1276.29 951.496 1273.47 957.128 1272.07 964.424ZM1402.79 1016.46C1387.81 1016.46 1376.1 1012.3 1367.65 1003.98C1359.33 995.528 1355.17 983.816 1355.17 968.84V922.952C1355.17 907.976 1359.33 896.328 1367.65 888.008C1376.1 879.56 1387.81 875.336 1402.79 875.336C1410.08 875.336 1417 876.936 1423.52 880.136C1430.05 883.336 1435.56 887.816 1440.04 893.576C1440.93 894.6 1441.32 895.752 1441.19 897.032C1441.06 898.312 1440.48 899.4 1439.46 900.296C1438.31 901.064 1437.03 901.384 1435.62 901.256C1434.34 901 1433.32 900.424 1432.55 899.528C1428.96 894.92 1424.55 891.336 1419.3 888.776C1414.05 886.216 1408.55 884.936 1402.79 884.936C1390.88 884.936 1381.54 888.328 1374.76 895.112C1368.1 901.768 1364.77 911.048 1364.77 922.952V968.84C1364.77 980.744 1368.1 990.088 1374.76 996.872C1381.54 1003.53 1390.88 1006.86 1402.79 1006.86C1408.55 1006.86 1414.05 1005.64 1419.3 1003.21C1424.55 1000.65 1428.96 997.064 1432.55 992.456C1433.32 991.432 1434.34 990.856 1435.62 990.728C1437.03 990.472 1438.31 990.792 1439.46 991.688C1440.48 992.456 1441.06 993.544 1441.19 994.952C1441.32 996.232 1440.93 997.384 1440.04 998.408C1435.56 1004.17 1430.05 1008.65 1423.52 1011.85C1417 1014.92 1410.08 1016.46 1402.79 1016.46ZM1470.07 1015.69C1468.79 1015.69 1467.7 1015.24 1466.81 1014.34C1465.91 1013.58 1465.46 1012.55 1465.46 1011.27V877.064C1465.46 875.784 1465.91 874.696 1466.81 873.8C1467.7 872.904 1468.79 872.456 1470.07 872.456C1471.35 872.456 1472.44 872.904 1473.33 873.8C1474.23 874.696 1474.68 875.784 1474.68 877.064V942.728C1477.62 939.4 1481.14 936.84 1485.24 935.048C1489.33 933.128 1493.75 932.168 1498.49 932.168C1507.32 932.168 1514.23 935.112 1519.22 941C1524.34 946.76 1526.9 954.568 1526.9 964.424V1011.08C1526.9 1012.36 1526.45 1013.38 1525.56 1014.15C1524.79 1015.05 1523.77 1015.5 1522.49 1015.5C1521.21 1015.5 1520.12 1015.05 1519.22 1014.15C1518.33 1013.38 1517.88 1012.36 1517.88 1011.08V964.424C1517.88 961.48 1517.43 958.216 1516.53 954.632C1515.64 951.048 1513.78 947.976 1510.97 945.416C1508.28 942.728 1504.12 941.384 1498.49 941.384C1491.83 941.384 1486.2 943.432 1481.59 947.528C1476.98 951.624 1474.68 957.448 1474.68 965V1011.27C1474.68 1012.55 1474.23 1013.58 1473.33 1014.34C1472.44 1015.24 1471.35 1015.69 1470.07 1015.69ZM1582.04 1015.5C1571.16 1015.5 1562.58 1011.78 1556.31 1004.36C1550.04 996.808 1546.9 986.632 1546.9 973.832C1546.9 960.904 1550.04 950.728 1556.31 943.304C1562.58 935.88 1571.16 932.168 1582.04 932.168C1591.51 932.168 1599.44 935.432 1605.84 941.96C1612.37 948.488 1615.89 957.32 1616.4 968.456V969.032C1616.4 970.184 1615.96 971.208 1615.06 972.104C1614.29 973 1613.2 973.448 1611.8 973.448H1556.12C1556.12 983.304 1558.16 991.24 1562.26 997.256C1566.48 1003.27 1573.08 1006.28 1582.04 1006.28C1586.64 1006.28 1590.93 1005.32 1594.9 1003.4C1599 1001.35 1602.13 998.728 1604.31 995.528C1605.08 994.504 1606.04 993.864 1607.19 993.608C1608.47 993.352 1609.62 993.608 1610.64 994.376C1611.67 995.016 1612.31 995.976 1612.56 997.256C1612.82 998.536 1612.56 999.688 1611.8 1000.71C1608.72 1005.19 1604.5 1008.78 1599.12 1011.46C1593.88 1014.15 1588.18 1015.5 1582.04 1015.5ZM1556.69 964.424H1606.42C1605.14 957.128 1602.32 951.496 1597.97 947.528C1593.75 943.56 1588.44 941.576 1582.04 941.576C1575.12 941.576 1569.49 943.56 1565.14 947.528C1560.92 951.496 1558.1 957.128 1556.69 964.424ZM1671.29 1015.5C1660.41 1015.5 1651.83 1011.78 1645.56 1004.36C1639.29 996.808 1636.15 986.632 1636.15 973.832C1636.15 960.904 1639.29 950.728 1645.56 943.304C1651.83 935.88 1660.41 932.168 1671.29 932.168C1681.91 932.168 1690.36 935.816 1696.63 943.112C1697.53 944.008 1697.91 945.096 1697.78 946.376C1697.78 947.656 1697.27 948.744 1696.25 949.64C1695.35 950.408 1694.26 950.792 1692.98 950.792C1691.7 950.664 1690.61 950.152 1689.72 949.256C1685.37 944.136 1679.22 941.576 1671.29 941.576C1663.09 941.576 1656.69 944.392 1652.09 950.024C1647.48 955.656 1645.17 963.592 1645.17 973.832C1645.17 984.2 1647.48 992.2 1652.09 997.832C1656.69 1003.46 1663.09 1006.28 1671.29 1006.28C1679.35 1006.28 1685.49 1003.78 1689.72 998.792C1690.61 997.768 1691.7 997.192 1692.98 997.064C1694.26 996.936 1695.35 997.32 1696.25 998.216C1697.27 998.984 1697.78 1000.01 1697.78 1001.29C1697.91 1002.57 1697.53 1003.72 1696.63 1004.74C1690.23 1011.91 1681.78 1015.5 1671.29 1015.5ZM1723.01 1015.5C1721.73 1015.5 1720.64 1015.05 1719.74 1014.15C1718.85 1013.38 1718.4 1012.36 1718.4 1011.08V877.064C1718.4 875.784 1718.85 874.696 1719.74 873.8C1720.64 872.904 1721.73 872.456 1723.01 872.456C1724.29 872.456 1725.38 872.904 1726.27 873.8C1727.17 874.696 1727.62 875.784 1727.62 877.064V969.032L1771.01 933.32C1772.03 932.552 1773.12 932.232 1774.27 932.36C1775.55 932.488 1776.64 933.064 1777.54 934.088C1778.18 934.984 1778.43 936.072 1778.3 937.352C1778.3 938.504 1777.79 939.528 1776.77 940.424L1747.2 964.616L1779.84 1008.2C1780.74 1009.1 1781.06 1010.18 1780.8 1011.46C1780.54 1012.74 1779.9 1013.77 1778.88 1014.54C1777.98 1015.3 1776.9 1015.56 1775.62 1015.3C1774.34 1015.18 1773.31 1014.66 1772.54 1013.77L1740.29 970.376L1727.62 980.744V1011.08C1727.62 1012.36 1727.17 1013.38 1726.27 1014.15C1725.38 1015.05 1724.29 1015.5 1723.01 1015.5Z" fill="white"/>
<defs>
<clipPath id="clip0_1445_804">
<rect width="384" height="240" fill="white" transform="translate(1008 540)"/>
</clipPath>
</defs>
</svg>
