<svg width="684" height="55" viewBox="0 0 684 55" fill="none" xmlns="http://www.w3.org/2000/svg">
<rect width="684" height="55" rx="8" fill="#1F1F1F"/>
<rect x="8" y="7.5" width="299" height="40" rx="8" fill="white"/>
<path d="M37 35.5L32.7 31.2M35 25.5C35 29.9183 31.4183 33.5 27 33.5C22.5817 33.5 19 29.9183 19 25.5C19 21.0817 22.5817 17.5 27 17.5C31.4183 17.5 35 21.0817 35 25.5Z" stroke="#1F1F1F" stroke-width="2" stroke-linecap="round" stroke-linejoin="round"/>
<path d="M45.368 36.336C45.208 36.336 45.072 36.28 44.96 36.168C44.864 36.072 44.816 35.944 44.816 35.784V27.408H42.056C41.896 27.408 41.76 27.352 41.648 27.24C41.536 27.112 41.48 26.968 41.48 26.808C41.48 26.648 41.536 26.52 41.648 26.424C41.76 26.312 41.896 26.256 42.056 26.256H45.368C45.544 26.256 45.688 26.312 45.8 26.424C45.912 26.52 45.968 26.648 45.968 26.808V35.784C45.968 35.944 45.912 36.072 45.8 36.168C45.688 36.28 45.544 36.336 45.368 36.336ZM45.08 21.912C44.856 21.912 44.672 21.848 44.528 21.72C44.384 21.592 44.312 21.448 44.312 21.288V19.8C44.312 19.64 44.384 19.496 44.528 19.368C44.672 19.224 44.856 19.152 45.08 19.152C45.304 19.152 45.48 19.224 45.608 19.368C45.752 19.496 45.824 19.64 45.824 19.8V21.288C45.824 21.448 45.752 21.592 45.608 21.72C45.48 21.848 45.304 21.912 45.08 21.912ZM57.0134 36.336C56.8534 36.336 56.7174 36.28 56.6054 36.168C56.5094 36.072 56.4614 35.944 56.4614 35.784V34.776C56.0934 35.24 55.6454 35.616 55.1174 35.904C54.5894 36.176 53.9814 36.312 53.2934 36.312C51.9334 36.312 50.8614 35.848 50.0774 34.92C49.2934 33.976 48.9014 32.704 48.9014 31.104C48.9014 29.488 49.2934 28.216 50.0774 27.288C50.8614 26.36 51.9334 25.896 53.2934 25.896C53.9814 25.896 54.5894 26.04 55.1174 26.328C55.6454 26.616 56.0934 26.992 56.4614 27.456V19.032C56.4614 18.872 56.5094 18.736 56.6054 18.624C56.7174 18.512 56.8534 18.456 57.0134 18.456C57.1734 18.456 57.3094 18.512 57.4214 18.624C57.5334 18.736 57.5894 18.872 57.5894 19.032V35.784C57.5894 35.944 57.5334 36.072 57.4214 36.168C57.3094 36.28 57.1734 36.336 57.0134 36.336ZM53.2934 35.16C54.3174 35.16 55.1014 34.808 55.6454 34.104C56.1894 33.4 56.4614 32.4 56.4614 31.104C56.4614 29.824 56.1894 28.832 55.6454 28.128C55.1014 27.424 54.3174 27.072 53.2934 27.072C52.2694 27.072 51.4694 27.424 50.8934 28.128C50.3174 28.832 50.0294 29.824 50.0294 31.104C50.0294 32.4 50.3174 33.4 50.8934 34.104C51.4694 34.808 52.2694 35.16 53.2934 35.16ZM70.7872 36.312C69.6832 36.312 68.8112 35.952 68.1712 35.232C67.5472 34.512 67.2352 33.52 67.2352 32.256V26.52C67.2352 26.36 67.2832 26.224 67.3792 26.112C67.4912 26 67.6272 25.944 67.7872 25.944C67.9472 25.944 68.0832 26 68.1952 26.112C68.3072 26.224 68.3632 26.36 68.3632 26.52V32.256C68.3632 32.624 68.4192 33.04 68.5312 33.504C68.6432 33.952 68.8672 34.344 69.2032 34.68C69.5552 35.016 70.0832 35.184 70.7872 35.184C71.7312 35.184 72.4592 34.928 72.9712 34.416C73.4992 33.904 73.7632 33.168 73.7632 32.208V26.496C73.7632 26.336 73.8192 26.2 73.9312 26.088C74.0432 25.96 74.1792 25.896 74.3392 25.896C74.4992 25.896 74.6272 25.96 74.7232 26.088C74.8352 26.2 74.8912 26.336 74.8912 26.496V35.76C74.8912 35.92 74.8352 36.048 74.7232 36.144C74.6272 36.256 74.4992 36.312 74.3392 36.312C74.1792 36.312 74.0432 36.256 73.9312 36.144C73.8192 36.048 73.7632 35.92 73.7632 35.76V35.016C73.3952 35.416 72.9552 35.736 72.4432 35.976C71.9472 36.2 71.3952 36.312 70.7872 36.312ZM81.266 36.312C80.354 36.312 79.546 36.112 78.842 35.712C78.154 35.312 77.666 34.776 77.378 34.104C77.314 33.96 77.314 33.816 77.378 33.672C77.442 33.528 77.546 33.424 77.69 33.36C77.834 33.296 77.978 33.296 78.122 33.36C78.266 33.424 78.37 33.528 78.434 33.672C78.642 34.136 78.994 34.504 79.49 34.776C80.002 35.032 80.594 35.16 81.266 35.16C81.954 35.16 82.49 35.096 82.874 34.968C83.258 34.824 83.53 34.656 83.69 34.464C83.866 34.256 83.97 34.056 84.002 33.864C84.05 33.656 84.074 33.496 84.074 33.384C84.074 33.144 84.018 32.912 83.906 32.688C83.794 32.464 83.554 32.256 83.186 32.064C82.818 31.856 82.25 31.672 81.482 31.512C80.938 31.4 80.37 31.24 79.778 31.032C79.202 30.824 78.714 30.536 78.314 30.168C77.914 29.784 77.714 29.288 77.714 28.68C77.73 27.864 78.074 27.2 78.746 26.688C79.418 26.16 80.29 25.896 81.362 25.896C82.162 25.896 82.882 26.072 83.522 26.424C84.178 26.76 84.658 27.224 84.962 27.816C85.042 27.944 85.058 28.088 85.01 28.248C84.962 28.392 84.874 28.504 84.746 28.584C84.586 28.648 84.434 28.664 84.29 28.632C84.146 28.584 84.042 28.488 83.978 28.344C83.802 28.024 83.498 27.736 83.066 27.48C82.634 27.208 82.066 27.072 81.362 27.072C80.962 27.072 80.57 27.128 80.186 27.24C79.802 27.336 79.482 27.504 79.226 27.744C78.986 27.968 78.858 28.288 78.842 28.704C78.842 28.8 78.882 28.952 78.962 29.16C79.042 29.352 79.282 29.56 79.682 29.784C80.082 30.008 80.754 30.216 81.698 30.408C82.258 30.52 82.802 30.688 83.33 30.912C83.874 31.12 84.322 31.424 84.674 31.824C85.042 32.208 85.218 32.728 85.202 33.384C85.202 33.656 85.154 33.96 85.058 34.296C84.962 34.632 84.778 34.952 84.506 35.256C84.234 35.56 83.834 35.808 83.306 36C82.794 36.208 82.114 36.312 81.266 36.312ZM91.8716 36.312C90.5116 36.312 89.4396 35.848 88.6556 34.92C87.8716 33.976 87.4796 32.704 87.4796 31.104C87.4796 29.488 87.8716 28.216 88.6556 27.288C89.4396 26.36 90.5116 25.896 91.8716 25.896C93.0556 25.896 94.0476 26.304 94.8476 27.12C95.6636 27.936 96.1036 29.04 96.1676 30.432V30.504C96.1676 30.648 96.1116 30.776 95.9996 30.888C95.9036 31 95.7676 31.056 95.5916 31.056H88.6316C88.6316 32.288 88.8876 33.28 89.3996 34.032C89.9276 34.784 90.7516 35.16 91.8716 35.16C92.4476 35.16 92.9836 35.04 93.4796 34.8C93.9916 34.544 94.3836 34.216 94.6556 33.816C94.7516 33.688 94.8716 33.608 95.0156 33.576C95.1756 33.544 95.3196 33.576 95.4476 33.672C95.5756 33.752 95.6556 33.872 95.6876 34.032C95.7196 34.192 95.6876 34.336 95.5916 34.464C95.2076 35.024 94.6796 35.472 94.0076 35.808C93.3516 36.144 92.6396 36.312 91.8716 36.312ZM88.7036 29.928H94.9196C94.7596 29.016 94.4076 28.312 93.8636 27.816C93.3356 27.32 92.6716 27.072 91.8716 27.072C91.0076 27.072 90.3036 27.32 89.7596 27.816C89.2316 28.312 88.8796 29.016 88.7036 29.928ZM99.4518 36.312C99.2918 36.312 99.1558 36.256 99.0438 36.144C98.9318 36.032 98.8758 35.904 98.8758 35.76V26.496C98.8758 26.336 98.9318 26.2 99.0438 26.088C99.1558 25.976 99.2918 25.92 99.4518 25.92C99.6118 25.92 99.7398 25.976 99.8358 26.088C99.9478 26.2 100.004 26.336 100.004 26.496V27.096C100.244 26.808 100.58 26.56 101.012 26.352C101.444 26.128 101.86 25.984 102.26 25.92C102.82 25.84 103.388 25.888 103.964 26.064C104.54 26.224 105.052 26.504 105.5 26.904C105.964 27.304 106.284 27.832 106.46 28.488C106.508 28.632 106.492 28.776 106.412 28.92C106.332 29.048 106.22 29.136 106.076 29.184C105.916 29.216 105.764 29.192 105.62 29.112C105.492 29.032 105.412 28.92 105.38 28.776C105.252 28.312 105.028 27.944 104.708 27.672C104.388 27.4 104.02 27.216 103.604 27.12C103.204 27.024 102.812 27.008 102.428 27.072C101.74 27.152 101.164 27.408 100.7 27.84C100.236 28.272 100.004 28.96 100.004 29.904V35.76C100.004 35.904 99.9478 36.032 99.8358 36.144C99.7398 36.256 99.6118 36.312 99.4518 36.312Z" fill="#404040"/>
<path d="M342.5 10.0426C344.304 10.0426 345.981 10.4936 347.53 11.3957C349.028 12.2809 350.219 13.4723 351.104 14.9702C352.006 16.5191 352.457 18.1957 352.457 20C352.457 21.8043 352.006 23.4809 351.104 25.0298C350.219 26.5277 349.028 27.7191 347.53 28.6043C345.981 29.5064 344.304 29.9574 342.5 29.9574C340.696 29.9574 339.019 29.5064 337.47 28.6043C335.972 27.7191 334.781 26.5277 333.896 25.0298C332.994 23.4809 332.543 21.8043 332.543 20C332.543 18.1957 332.994 16.5191 333.896 14.9702C334.781 13.4723 335.972 12.2809 337.47 11.3957C339.019 10.4936 340.696 10.0426 342.5 10.0426ZM342.5 8C340.849 8 339.3 8.31064 337.853 8.93192C336.406 9.55319 335.13 10.417 334.023 11.5234C332.934 12.5787 332.074 13.8426 331.445 15.3149C330.815 16.7872 330.5 18.3489 330.5 20C330.5 21.6511 330.811 23.2 331.432 24.6468C332.053 26.0936 332.917 27.3702 334.023 28.4766C335.079 29.566 336.343 30.4255 337.815 31.0553C339.287 31.6851 340.849 32 342.5 32C344.151 32 345.7 31.6894 347.147 31.0681C348.594 30.4468 349.87 29.583 350.977 28.4766C352.066 27.4213 352.926 26.1574 353.555 24.6851C354.185 23.2128 354.5 21.6511 354.5 20C354.5 18.3489 354.189 16.8 353.568 15.3532C352.947 13.9064 352.083 12.6298 350.977 11.5234C349.921 10.434 348.657 9.57447 347.185 8.94468C345.713 8.31489 344.151 8 342.5 8ZM342.5 13.9234C341.411 13.9234 340.398 14.1957 339.462 14.7404C338.526 15.2851 337.785 16.0255 337.24 16.9617C336.696 17.8979 336.423 18.9106 336.423 20C336.423 21.0894 336.696 22.1021 337.24 23.0383C337.785 23.9745 338.526 24.7149 339.462 25.2596C340.398 25.8043 341.411 26.0766 342.5 26.0766C343.589 26.0766 344.602 25.8043 345.538 25.2596C346.474 24.7149 347.215 23.9745 347.76 23.0383C348.304 22.1021 348.577 21.0894 348.577 20C348.577 18.9106 348.304 17.8979 347.76 16.9617C347.215 16.0255 346.474 15.2851 345.538 14.7404C344.602 14.1957 343.589 13.9234 342.5 13.9234Z" fill="white"/>
<path d="M333.965 47.26C332.832 47.26 331.939 46.8733 331.285 46.1C330.632 45.3133 330.305 44.2533 330.305 42.92C330.305 41.5733 330.632 40.5133 331.285 39.74C331.939 38.9667 332.832 38.58 333.965 38.58C335.085 38.58 335.972 38.9667 336.625 39.74C337.292 40.5133 337.625 41.5733 337.625 42.92C337.625 44.2533 337.292 45.3133 336.625 46.1C335.972 46.8733 335.085 47.26 333.965 47.26ZM333.965 46.3C334.832 46.3 335.499 46.0067 335.965 45.42C336.432 44.8333 336.665 44 336.665 42.92C336.665 41.8533 336.432 41.0267 335.965 40.44C335.499 39.8533 334.832 39.56 333.965 39.56C333.112 39.56 332.445 39.8533 331.965 40.44C331.485 41.0267 331.245 41.8533 331.245 42.92C331.245 44 331.485 44.8333 331.965 45.42C332.445 46.0067 333.112 46.3 333.965 46.3ZM342.744 47.26C341.984 47.26 341.311 47.0933 340.724 46.76C340.151 46.4267 339.744 45.98 339.504 45.42C339.451 45.3 339.451 45.18 339.504 45.06C339.558 44.94 339.644 44.8533 339.764 44.8C339.884 44.7467 340.004 44.7467 340.124 44.8C340.244 44.8533 340.331 44.94 340.384 45.06C340.558 45.4467 340.851 45.7533 341.264 45.98C341.691 46.1933 342.184 46.3 342.744 46.3C343.318 46.3 343.764 46.2467 344.084 46.14C344.404 46.02 344.631 45.88 344.764 45.72C344.911 45.5467 344.998 45.38 345.024 45.22C345.064 45.0467 345.084 44.9133 345.084 44.82C345.084 44.62 345.038 44.4267 344.944 44.24C344.851 44.0533 344.651 43.88 344.344 43.72C344.038 43.5467 343.564 43.3933 342.924 43.26C342.471 43.1667 341.998 43.0333 341.504 42.86C341.024 42.6867 340.618 42.4467 340.284 42.14C339.951 41.82 339.784 41.4067 339.784 40.9C339.798 40.22 340.084 39.6667 340.644 39.24C341.204 38.8 341.931 38.58 342.824 38.58C343.491 38.58 344.091 38.7267 344.624 39.02C345.171 39.3 345.571 39.6867 345.824 40.18C345.891 40.2867 345.904 40.4067 345.864 40.54C345.824 40.66 345.751 40.7533 345.644 40.82C345.511 40.8733 345.384 40.8867 345.264 40.86C345.144 40.82 345.058 40.74 345.004 40.62C344.858 40.3533 344.604 40.1133 344.244 39.9C343.884 39.6733 343.411 39.56 342.824 39.56C342.491 39.56 342.164 39.6067 341.844 39.7C341.524 39.78 341.258 39.92 341.044 40.12C340.844 40.3067 340.738 40.5733 340.724 40.92C340.724 41 340.758 41.1267 340.824 41.3C340.891 41.46 341.091 41.6333 341.424 41.82C341.758 42.0067 342.318 42.18 343.104 42.34C343.571 42.4333 344.024 42.5733 344.464 42.76C344.918 42.9333 345.291 43.1867 345.584 43.52C345.891 43.84 346.038 44.2733 346.024 44.82C346.024 45.0467 345.984 45.3 345.904 45.58C345.824 45.86 345.671 46.1267 345.444 46.38C345.218 46.6333 344.884 46.84 344.444 47C344.018 47.1733 343.451 47.26 342.744 47.26ZM351.082 47.26C350.162 47.26 349.436 46.96 348.902 46.36C348.382 45.76 348.122 44.9333 348.122 43.88V39.1C348.122 38.9667 348.162 38.8533 348.242 38.76C348.336 38.6667 348.449 38.62 348.582 38.62C348.716 38.62 348.829 38.6667 348.922 38.76C349.016 38.8533 349.062 38.9667 349.062 39.1V43.88C349.062 44.1867 349.109 44.5333 349.202 44.92C349.296 45.2933 349.482 45.62 349.762 45.9C350.056 46.18 350.496 46.32 351.082 46.32C351.869 46.32 352.476 46.1067 352.902 45.68C353.342 45.2533 353.562 44.64 353.562 43.84V39.08C353.562 38.9467 353.609 38.8333 353.702 38.74C353.796 38.6333 353.909 38.58 354.042 38.58C354.176 38.58 354.282 38.6333 354.362 38.74C354.456 38.8333 354.502 38.9467 354.502 39.08V46.8C354.502 46.9333 354.456 47.04 354.362 47.12C354.282 47.2133 354.176 47.26 354.042 47.26C353.909 47.26 353.796 47.2133 353.702 47.12C353.609 47.04 353.562 46.9333 353.562 46.8V46.18C353.256 46.5133 352.889 46.78 352.462 46.98C352.049 47.1667 351.589 47.26 351.082 47.26Z" fill="white"/>
<path d="M406 12.3404C404.604 12.3404 403.311 12.6894 402.119 13.3872C400.979 14.0681 400.068 14.9787 399.387 16.1191C398.689 17.3106 398.34 18.6043 398.34 20C398.34 21.3957 398.689 22.6894 399.387 23.8809C400.068 25.0213 400.979 25.9319 402.119 26.6128C403.311 27.3106 404.604 27.6596 406 27.6596C407.396 27.6596 408.689 27.3106 409.881 26.6128C411.021 25.9319 411.932 25.0213 412.613 23.8809C413.311 22.6894 413.66 21.3957 413.66 20C413.66 18.6043 413.311 17.3106 412.613 16.1191C411.932 14.9787 411.021 14.0681 409.881 13.3872C408.689 12.6894 407.396 12.3404 406 12.3404ZM400.894 20C400.894 18.8255 401.255 17.7787 401.979 16.8596C402.702 15.9404 403.617 15.3362 404.723 15.0468V24.9532C403.617 24.6638 402.702 24.0596 401.979 23.1404C401.255 22.2213 400.894 21.1745 400.894 20ZM407.277 24.9532V15.0468C408.383 15.3362 409.298 15.9404 410.021 16.8596C410.745 17.7787 411.106 18.8255 411.106 20C411.106 21.1745 410.745 22.2213 410.021 23.1404C409.298 24.0596 408.383 24.6638 407.277 24.9532ZM406 10.0426C407.804 10.0426 409.481 10.4936 411.03 11.3957C412.528 12.2809 413.719 13.4723 414.604 14.9702C415.506 16.5191 415.957 18.1957 415.957 20C415.957 21.8043 415.506 23.4809 414.604 25.0298C413.719 26.5277 412.528 27.7191 411.03 28.6043C409.481 29.5064 407.804 29.9574 406 29.9574C404.196 29.9574 402.519 29.5064 400.97 28.6043C399.472 27.7191 398.281 26.5277 397.396 25.0298C396.494 23.4809 396.043 21.8043 396.043 20C396.043 18.1957 396.494 16.5191 397.396 14.9702C398.281 13.4723 399.472 12.2809 400.97 11.3957C402.519 10.4936 404.196 10.0426 406 10.0426ZM406 8C404.349 8 402.8 8.31064 401.353 8.93192C399.906 9.55319 398.63 10.417 397.523 11.5234C396.434 12.5787 395.574 13.8426 394.945 15.3149C394.315 16.7872 394 18.3489 394 20C394 21.6511 394.311 23.2 394.932 24.6468C395.553 26.0936 396.417 27.3702 397.523 28.4766C398.579 29.566 399.843 30.4255 401.315 31.0553C402.787 31.6851 404.349 32 406 32C407.651 32 409.2 31.6894 410.647 31.0681C412.094 30.4468 413.37 29.583 414.477 28.4766C415.566 27.4213 416.426 26.1574 417.055 24.6851C417.685 23.2128 418 21.6511 418 20C418 18.3489 417.689 16.8 417.068 15.3532C416.447 13.9064 415.583 12.6298 414.477 11.5234C413.421 10.434 412.157 9.57447 410.685 8.94468C409.213 8.31489 407.651 8 406 8Z" fill="#D65C99"/>
<path d="M390.696 47.16C390.15 47.16 389.716 47.0067 389.396 46.7C389.09 46.38 388.936 45.96 388.936 45.44V39.82H387.016C386.883 39.82 386.77 39.7733 386.676 39.68C386.596 39.5867 386.556 39.4733 386.556 39.34C386.556 39.2067 386.596 39.1 386.676 39.02C386.77 38.9267 386.883 38.88 387.016 38.88H388.936V35.94C388.936 35.8067 388.976 35.6933 389.056 35.6C389.15 35.5067 389.263 35.46 389.396 35.46C389.53 35.46 389.643 35.5067 389.736 35.6C389.83 35.6933 389.876 35.8067 389.876 35.94V38.88H392.356C392.49 38.88 392.603 38.9267 392.696 39.02C392.79 39.1 392.836 39.2067 392.836 39.34C392.836 39.4733 392.79 39.5867 392.696 39.68C392.603 39.7733 392.49 39.82 392.356 39.82H389.876V45.44C389.876 45.4933 389.883 45.5867 389.896 45.72C389.923 45.84 389.996 45.9533 390.116 46.06C390.236 46.1533 390.43 46.2 390.696 46.2H392.256C392.403 46.2 392.523 46.2467 392.616 46.34C392.71 46.4333 392.756 46.5467 392.756 46.68C392.756 46.8133 392.71 46.9267 392.616 47.02C392.523 47.1133 392.403 47.16 392.256 47.16H390.696ZM400.723 47.28C400.589 47.28 400.476 47.2333 400.383 47.14C400.289 47.06 400.243 46.9533 400.243 46.82V46.66L397.783 47.14C397.169 47.26 396.649 47.2933 396.223 47.24C395.796 47.1867 395.436 47.0533 395.143 46.84C394.929 46.6667 394.756 46.4533 394.623 46.2C394.503 45.9333 394.429 45.6333 394.403 45.3C394.323 44.5267 394.489 43.8933 394.903 43.4C395.329 42.8933 395.983 42.5667 396.863 42.42L400.243 41.84V41.28C400.243 41.0133 400.196 40.7333 400.103 40.44C400.023 40.1333 399.849 39.9067 399.583 39.76C399.369 39.6267 399.096 39.56 398.763 39.56C397.936 39.56 396.916 39.9333 395.703 40.68C395.583 40.7467 395.463 40.7667 395.343 40.74C395.223 40.7 395.129 40.6267 395.063 40.52C394.983 40.4 394.956 40.28 394.983 40.16C395.023 40.0267 395.096 39.9333 395.203 39.88C395.989 39.4 396.676 39.0733 397.263 38.9C397.849 38.7133 398.349 38.62 398.763 38.62C399.043 38.62 399.283 38.6533 399.483 38.72C399.696 38.7733 399.876 38.84 400.023 38.92C400.409 39.1333 400.703 39.4467 400.903 39.86C401.103 40.26 401.203 40.7333 401.203 41.28V46.82C401.203 46.9533 401.156 47.06 401.063 47.14C400.983 47.2333 400.869 47.28 400.723 47.28ZM397.623 46.18L400.243 45.7V42.8L397.043 43.34C396.496 43.4333 396.096 43.5867 395.843 43.8C395.603 44.0133 395.456 44.2467 395.403 44.5C395.349 44.74 395.329 44.9733 395.343 45.2C395.383 45.6133 395.509 45.9 395.723 46.06C396.043 46.3 396.676 46.34 397.623 46.18ZM405.988 47.28C405.854 47.28 405.741 47.2333 405.648 47.14C405.568 47.06 405.528 46.9533 405.528 46.82V39.84H403.228C403.094 39.84 402.981 39.7933 402.888 39.7C402.794 39.5933 402.748 39.4733 402.748 39.34C402.748 39.2067 402.794 39.1 402.888 39.02C402.981 38.9267 403.094 38.88 403.228 38.88H405.988C406.134 38.88 406.254 38.9267 406.348 39.02C406.441 39.1 406.488 39.2067 406.488 39.34V46.82C406.488 46.9533 406.441 47.06 406.348 47.14C406.254 47.2333 406.134 47.28 405.988 47.28ZM405.748 35.26C405.561 35.26 405.408 35.2067 405.288 35.1C405.168 34.9933 405.108 34.8733 405.108 34.74V33.5C405.108 33.3667 405.168 33.2467 405.288 33.14C405.408 33.02 405.561 32.96 405.748 32.96C405.934 32.96 406.081 33.02 406.188 33.14C406.308 33.2467 406.368 33.3667 406.368 33.5V34.74C406.368 34.8733 406.308 34.9933 406.188 35.1C406.081 35.2067 405.934 35.26 405.748 35.26ZM409.972 47.26C409.839 47.26 409.726 47.2133 409.632 47.12C409.539 47.04 409.492 46.9333 409.492 46.8V32.84C409.492 32.7067 409.539 32.5933 409.632 32.5C409.726 32.4067 409.839 32.36 409.972 32.36C410.106 32.36 410.219 32.4067 410.312 32.5C410.406 32.5933 410.452 32.7067 410.452 32.84V42.42L414.972 38.7C415.079 38.62 415.192 38.5867 415.312 38.6C415.446 38.6133 415.559 38.6733 415.652 38.78C415.719 38.8733 415.746 38.9867 415.732 39.12C415.732 39.24 415.679 39.3467 415.572 39.44L412.492 41.96L415.892 46.5C415.986 46.5933 416.019 46.7067 415.992 46.84C415.966 46.9733 415.899 47.08 415.792 47.16C415.699 47.24 415.586 47.2667 415.452 47.24C415.319 47.2267 415.212 47.1733 415.132 47.08L411.772 42.56L410.452 43.64V46.8C410.452 46.9333 410.406 47.04 410.312 47.12C410.219 47.2133 410.106 47.26 409.972 47.26ZM421.245 47.26C420.111 47.26 419.218 46.8733 418.565 46.1C417.911 45.3133 417.585 44.2533 417.585 42.92C417.585 41.5733 417.911 40.5133 418.565 39.74C419.218 38.9667 420.111 38.58 421.245 38.58C422.365 38.58 423.251 38.9667 423.905 39.74C424.571 40.5133 424.905 41.5733 424.905 42.92C424.905 44.2533 424.571 45.3133 423.905 46.1C423.251 46.8733 422.365 47.26 421.245 47.26ZM421.245 46.3C422.111 46.3 422.778 46.0067 423.245 45.42C423.711 44.8333 423.945 44 423.945 42.92C423.945 41.8533 423.711 41.0267 423.245 40.44C422.778 39.8533 422.111 39.56 421.245 39.56C420.391 39.56 419.725 39.8533 419.245 40.44C418.765 41.0267 418.525 41.8533 418.525 42.92C418.525 44 418.765 44.8333 419.245 45.42C419.725 46.0067 420.391 46.3 421.245 46.3Z" fill="white"/>
<path d="M475 10.0426C476.804 10.0426 478.481 10.4936 480.03 11.3957C481.528 12.2809 482.719 13.4723 483.604 14.9702C484.506 16.5191 484.957 18.1957 484.957 20C484.957 21.8043 484.506 23.4809 483.604 25.0298C482.719 26.5277 481.528 27.7191 480.03 28.6043C478.481 29.5064 476.804 29.9574 475 29.9574C473.196 29.9574 471.519 29.5064 469.97 28.6043C468.472 27.7191 467.281 26.5277 466.396 25.0298C465.494 23.4809 465.043 21.8043 465.043 20C465.043 18.1957 465.494 16.5191 466.396 14.9702C467.281 13.4723 468.472 12.2809 469.97 11.3957C471.519 10.4936 473.196 10.0426 475 10.0426ZM475 8C473.349 8 471.8 8.31064 470.353 8.93192C468.906 9.55319 467.63 10.417 466.523 11.5234C465.434 12.5787 464.574 13.8426 463.945 15.3149C463.315 16.7872 463 18.3489 463 20C463 21.6511 463.311 23.2 463.932 24.6468C464.553 26.0936 465.417 27.3702 466.523 28.4766C467.579 29.566 468.843 30.4255 470.315 31.0553C471.787 31.6851 473.349 32 475 32C476.651 32 478.2 31.6894 479.647 31.0681C481.094 30.4468 482.37 29.583 483.477 28.4766C484.566 27.4213 485.426 26.1574 486.055 24.6851C486.685 23.2128 487 21.6511 487 20C487 18.3489 486.689 16.8 486.068 15.3532C485.447 13.9064 484.583 12.6298 483.477 11.5234C482.421 10.434 481.157 9.57447 479.685 8.94468C478.213 8.31489 476.651 8 475 8ZM479.902 20C479.902 19.4723 479.715 19.0213 479.34 18.6468C478.966 18.2723 478.515 18.0851 477.987 18.0851C477.46 18.0851 477.009 18.2723 476.634 18.6468C476.26 19.0213 476.072 19.4723 476.072 20C476.072 20.5277 476.26 20.9787 476.634 21.3532C477.009 21.7277 477.46 21.9149 477.987 21.9149C478.515 21.9149 478.966 21.7277 479.34 21.3532C479.715 20.9787 479.902 20.5277 479.902 20ZM475.46 16.1191C475.46 15.5915 475.272 15.1404 474.898 14.766C474.523 14.3915 474.072 14.2043 473.545 14.2043C473.017 14.2043 472.566 14.3915 472.191 14.766C471.817 15.1404 471.63 15.5915 471.63 16.1191C471.63 16.6468 471.817 17.0979 472.191 17.4723C472.566 17.8468 473.017 18.034 473.545 18.034C474.072 18.034 474.523 17.8468 474.898 17.4723C475.272 17.0979 475.46 16.6468 475.46 16.1191ZM475.46 23.8809C475.46 23.3532 475.272 22.9021 474.898 22.5277C474.523 22.1532 474.072 21.966 473.545 21.966C473.017 21.966 472.566 22.1532 472.191 22.5277C471.817 22.9021 471.63 23.3532 471.63 23.8809C471.63 24.4085 471.817 24.8596 472.191 25.234C472.566 25.6085 473.021 25.7957 473.557 25.7957C474.094 25.7957 474.545 25.6085 474.911 25.234C475.277 24.8596 475.46 24.4085 475.46 23.8809Z" fill="#D65C99"/>
<path d="M459.073 47.26C457.939 47.26 457.046 46.8733 456.393 46.1C455.739 45.3133 455.413 44.2533 455.413 42.92C455.413 41.5733 455.739 40.5133 456.393 39.74C457.046 38.9667 457.939 38.58 459.073 38.58C460.179 38.58 461.059 38.96 461.713 39.72C461.806 39.8133 461.846 39.9267 461.833 40.06C461.833 40.1933 461.779 40.3067 461.673 40.4C461.579 40.48 461.466 40.52 461.333 40.52C461.199 40.5067 461.086 40.4533 460.993 40.36C460.539 39.8267 459.899 39.56 459.073 39.56C458.219 39.56 457.553 39.8533 457.073 40.44C456.593 41.0267 456.353 41.8533 456.353 42.92C456.353 44 456.593 44.8333 457.073 45.42C457.553 46.0067 458.219 46.3 459.073 46.3C459.913 46.3 460.553 46.04 460.993 45.52C461.086 45.4133 461.199 45.3533 461.333 45.34C461.466 45.3267 461.579 45.3667 461.673 45.46C461.779 45.54 461.833 45.6467 461.833 45.78C461.846 45.9133 461.806 46.0333 461.713 46.14C461.046 46.8867 460.166 47.26 459.073 47.26ZM469.82 47.28C469.687 47.28 469.574 47.2333 469.48 47.14C469.387 47.06 469.34 46.9533 469.34 46.82V46.66L466.88 47.14C466.267 47.26 465.747 47.2933 465.32 47.24C464.894 47.1867 464.534 47.0533 464.24 46.84C464.027 46.6667 463.854 46.4533 463.72 46.2C463.6 45.9333 463.527 45.6333 463.5 45.3C463.42 44.5267 463.587 43.8933 464 43.4C464.427 42.8933 465.08 42.5667 465.96 42.42L469.34 41.84V41.28C469.34 41.0133 469.294 40.7333 469.2 40.44C469.12 40.1333 468.947 39.9067 468.68 39.76C468.467 39.6267 468.194 39.56 467.86 39.56C467.034 39.56 466.014 39.9333 464.8 40.68C464.68 40.7467 464.56 40.7667 464.44 40.74C464.32 40.7 464.227 40.6267 464.16 40.52C464.08 40.4 464.054 40.28 464.08 40.16C464.12 40.0267 464.194 39.9333 464.3 39.88C465.087 39.4 465.774 39.0733 466.36 38.9C466.947 38.7133 467.447 38.62 467.86 38.62C468.14 38.62 468.38 38.6533 468.58 38.72C468.794 38.7733 468.974 38.84 469.12 38.92C469.507 39.1333 469.8 39.4467 470 39.86C470.2 40.26 470.3 40.7333 470.3 41.28V46.82C470.3 46.9533 470.254 47.06 470.16 47.14C470.08 47.2333 469.967 47.28 469.82 47.28ZM466.72 46.18L469.34 45.7V42.8L466.14 43.34C465.594 43.4333 465.194 43.5867 464.94 43.8C464.7 44.0133 464.554 44.2467 464.5 44.5C464.447 44.74 464.427 44.9733 464.44 45.2C464.48 45.6133 464.607 45.9 464.82 46.06C465.14 46.3 465.774 46.34 466.72 46.18ZM475.985 47.16C475.439 47.16 475.005 47.0067 474.685 46.7C474.379 46.38 474.225 45.96 474.225 45.44V39.82H472.305C472.172 39.82 472.059 39.7733 471.965 39.68C471.885 39.5867 471.845 39.4733 471.845 39.34C471.845 39.2067 471.885 39.1 471.965 39.02C472.059 38.9267 472.172 38.88 472.305 38.88H474.225V35.94C474.225 35.8067 474.265 35.6933 474.345 35.6C474.439 35.5067 474.552 35.46 474.685 35.46C474.819 35.46 474.932 35.5067 475.025 35.6C475.119 35.6933 475.165 35.8067 475.165 35.94V38.88H477.645C477.779 38.88 477.892 38.9267 477.985 39.02C478.079 39.1 478.125 39.2067 478.125 39.34C478.125 39.4733 478.079 39.5867 477.985 39.68C477.892 39.7733 477.779 39.82 477.645 39.82H475.165V45.44C475.165 45.4933 475.172 45.5867 475.185 45.72C475.212 45.84 475.285 45.9533 475.405 46.06C475.525 46.1533 475.719 46.2 475.985 46.2H477.545C477.692 46.2 477.812 46.2467 477.905 46.34C477.999 46.4333 478.045 46.5467 478.045 46.68C478.045 46.8133 477.999 46.9267 477.905 47.02C477.812 47.1133 477.692 47.16 477.545 47.16H475.985ZM483.077 47.26C481.943 47.26 481.05 46.8733 480.397 46.1C479.743 45.3133 479.417 44.2533 479.417 42.92C479.417 41.5733 479.743 40.5133 480.397 39.74C481.05 38.9667 481.943 38.58 483.077 38.58C484.183 38.58 485.063 38.96 485.717 39.72C485.81 39.8133 485.85 39.9267 485.837 40.06C485.837 40.1933 485.783 40.3067 485.677 40.4C485.583 40.48 485.47 40.52 485.337 40.52C485.203 40.5067 485.09 40.4533 484.997 40.36C484.543 39.8267 483.903 39.56 483.077 39.56C482.223 39.56 481.557 39.8533 481.077 40.44C480.597 41.0267 480.357 41.8533 480.357 42.92C480.357 44 480.597 44.8333 481.077 45.42C481.557 46.0067 482.223 46.3 483.077 46.3C483.917 46.3 484.557 46.04 484.997 45.52C485.09 45.4133 485.203 45.3533 485.337 45.34C485.47 45.3267 485.583 45.3667 485.677 45.46C485.783 45.54 485.837 45.6467 485.837 45.78C485.85 45.9133 485.81 46.0333 485.717 46.14C485.05 46.8867 484.17 47.26 483.077 47.26ZM488.464 47.28C488.331 47.28 488.218 47.2333 488.124 47.14C488.031 47.06 487.984 46.9533 487.984 46.82V32.84C487.984 32.7067 488.031 32.5933 488.124 32.5C488.218 32.4067 488.331 32.36 488.464 32.36C488.598 32.36 488.711 32.4067 488.804 32.5C488.898 32.5933 488.944 32.7067 488.944 32.84V39.68C489.251 39.3333 489.618 39.0667 490.044 38.88C490.471 38.68 490.931 38.58 491.424 38.58C492.344 38.58 493.064 38.8867 493.584 39.5C494.118 40.1 494.384 40.9133 494.384 41.94V46.8C494.384 46.9333 494.338 47.04 494.244 47.12C494.164 47.2133 494.058 47.26 493.924 47.26C493.791 47.26 493.678 47.2133 493.584 47.12C493.491 47.04 493.444 46.9333 493.444 46.8V41.94C493.444 41.6333 493.398 41.2933 493.304 40.92C493.211 40.5467 493.018 40.2267 492.724 39.96C492.444 39.68 492.011 39.54 491.424 39.54C490.731 39.54 490.144 39.7533 489.664 40.18C489.184 40.6067 488.944 41.2133 488.944 42V46.82C488.944 46.9533 488.898 47.06 488.804 47.14C488.711 47.2333 488.598 47.28 488.464 47.28Z" fill="white"/>
<path d="M547.5 27.7106C547.143 27.7106 546.84 27.5872 546.594 27.3404C546.347 27.0936 546.223 26.7915 546.223 26.434V13.566C546.223 13.2085 546.347 12.9064 546.594 12.6596C546.84 12.4128 547.143 12.2894 547.5 12.2894C547.857 12.2894 548.16 12.4128 548.406 12.6596C548.653 12.9064 548.777 13.2085 548.777 13.566V26.434C548.777 26.7915 548.653 27.0936 548.406 27.3404C548.16 27.5872 547.857 27.7106 547.5 27.7106ZM544.691 22.8085V17.1915C544.691 16.834 544.568 16.5319 544.321 16.2851C544.074 16.0383 543.772 15.9149 543.415 15.9149C543.057 15.9149 542.755 16.0383 542.509 16.2851C542.262 16.5319 542.138 16.834 542.138 17.1915V22.8085C542.138 23.166 542.262 23.4681 542.509 23.7149C542.755 23.9617 543.057 24.0851 543.415 24.0851C543.772 24.0851 544.074 23.9617 544.321 23.7149C544.568 23.4681 544.691 23.166 544.691 22.8085ZM552.862 22.8085V17.1915C552.862 16.834 552.738 16.5319 552.491 16.2851C552.245 16.0383 551.943 15.9149 551.585 15.9149C551.228 15.9149 550.926 16.0383 550.679 16.2851C550.432 16.5319 550.309 16.834 550.309 17.1915V22.8085C550.309 23.166 550.432 23.4681 550.679 23.7149C550.926 23.9617 551.228 24.0851 551.585 24.0851C551.943 24.0851 552.245 23.9617 552.491 23.7149C552.738 23.4681 552.862 23.166 552.862 22.8085ZM547.5 10.0426C545.696 10.0426 544.019 10.4936 542.47 11.3957C540.972 12.2809 539.781 13.4723 538.896 14.9702C537.994 16.5191 537.543 18.1957 537.543 20C537.543 21.8043 537.994 23.4809 538.896 25.0298C539.781 26.5277 540.972 27.7191 542.47 28.6043C544.019 29.5064 545.696 29.9574 547.5 29.9574C549.304 29.9574 550.981 29.5064 552.53 28.6043C554.028 27.7191 555.219 26.5277 556.104 25.0298C557.006 23.4809 557.457 21.8043 557.457 20C557.457 18.1957 557.006 16.5191 556.104 14.9702C555.219 13.4723 554.028 12.2809 552.53 11.3957C550.981 10.4936 549.304 10.0426 547.5 10.0426ZM547.5 8C549.151 8 550.7 8.31064 552.147 8.93192C553.594 9.55319 554.87 10.417 555.977 11.5234C557.066 12.5787 557.926 13.8426 558.555 15.3149C559.185 16.7872 559.5 18.3489 559.5 20C559.5 21.6511 559.189 23.2 558.568 24.6468C557.947 26.0936 557.083 27.3702 555.977 28.4766C554.921 29.566 553.657 30.4255 552.185 31.0553C550.713 31.6851 549.151 32 547.5 32C545.849 32 544.3 31.6894 542.853 31.0681C541.406 30.4468 540.13 29.583 539.023 28.4766C537.934 27.4213 537.074 26.1574 536.445 24.6851C535.815 23.2128 535.5 21.6511 535.5 20C535.5 18.3489 535.811 16.8 536.432 15.3532C537.053 13.9064 537.917 12.6298 539.023 11.5234C540.079 10.434 541.343 9.57447 542.815 8.94468C544.287 8.31489 545.849 8 547.5 8Z" fill="#D65C99"/>
<path d="M526.541 47.28C526.408 47.28 526.295 47.2333 526.201 47.14C526.121 47.0467 526.081 46.94 526.081 46.82V39.08C526.081 38.96 526.121 38.8533 526.201 38.76C526.295 38.6533 526.408 38.6 526.541 38.6C526.675 38.6 526.788 38.6533 526.881 38.76C526.975 38.8533 527.021 38.96 527.021 39.08V39.62C527.315 39.3133 527.655 39.0667 528.041 38.88C528.428 38.6933 528.841 38.6 529.281 38.6C529.828 38.6 530.308 38.7333 530.721 39C531.135 39.2533 531.455 39.6133 531.681 40.08C531.961 39.64 532.328 39.2867 532.781 39.02C533.235 38.74 533.741 38.6 534.301 38.6C535.155 38.6 535.828 38.9067 536.321 39.52C536.828 40.1333 537.081 40.9533 537.081 41.98V46.8C537.081 46.92 537.035 47.0267 536.941 47.12C536.861 47.2133 536.755 47.26 536.621 47.26C536.488 47.26 536.375 47.2133 536.281 47.12C536.188 47.0267 536.141 46.92 536.141 46.8V41.98C536.141 41.7933 536.121 41.5667 536.081 41.3C536.041 41.0333 535.961 40.7667 535.841 40.5C535.721 40.2333 535.535 40.0133 535.281 39.84C535.041 39.6533 534.715 39.56 534.301 39.56C533.648 39.56 533.115 39.7933 532.701 40.26C532.288 40.7133 532.081 41.2867 532.081 41.98V46.8C532.081 46.92 532.035 47.0267 531.941 47.12C531.861 47.2133 531.755 47.26 531.621 47.26C531.488 47.26 531.368 47.2133 531.261 47.12C531.168 47.0267 531.121 46.92 531.121 46.8V42.02C531.121 41.5933 531.055 41.1933 530.921 40.82C530.801 40.4467 530.608 40.1467 530.341 39.92C530.075 39.68 529.721 39.56 529.281 39.56C528.681 39.56 528.155 39.7467 527.701 40.12C527.248 40.48 527.021 40.9533 527.021 41.54V46.82C527.021 46.94 526.975 47.0467 526.881 47.14C526.788 47.2333 526.675 47.28 526.541 47.28ZM545.563 47.28C545.429 47.28 545.316 47.2333 545.223 47.14C545.129 47.06 545.083 46.9533 545.083 46.82V46.66L542.623 47.14C542.009 47.26 541.489 47.2933 541.063 47.24C540.636 47.1867 540.276 47.0533 539.983 46.84C539.769 46.6667 539.596 46.4533 539.463 46.2C539.343 45.9333 539.269 45.6333 539.243 45.3C539.163 44.5267 539.329 43.8933 539.743 43.4C540.169 42.8933 540.823 42.5667 541.703 42.42L545.083 41.84V41.28C545.083 41.0133 545.036 40.7333 544.943 40.44C544.863 40.1333 544.689 39.9067 544.423 39.76C544.209 39.6267 543.936 39.56 543.603 39.56C542.776 39.56 541.756 39.9333 540.543 40.68C540.423 40.7467 540.303 40.7667 540.183 40.74C540.063 40.7 539.969 40.6267 539.903 40.52C539.823 40.4 539.796 40.28 539.823 40.16C539.863 40.0267 539.936 39.9333 540.043 39.88C540.829 39.4 541.516 39.0733 542.103 38.9C542.689 38.7133 543.189 38.62 543.603 38.62C543.883 38.62 544.123 38.6533 544.323 38.72C544.536 38.7733 544.716 38.84 544.863 38.92C545.249 39.1333 545.543 39.4467 545.743 39.86C545.943 40.26 546.043 40.7333 546.043 41.28V46.82C546.043 46.9533 545.996 47.06 545.903 47.14C545.823 47.2333 545.709 47.28 545.563 47.28ZM542.463 46.18L545.083 45.7V42.8L541.883 43.34C541.336 43.4333 540.936 43.5867 540.683 43.8C540.443 44.0133 540.296 44.2467 540.243 44.5C540.189 44.74 540.169 44.9733 540.183 45.2C540.223 45.6133 540.349 45.9 540.563 46.06C540.883 46.3 541.516 46.34 542.463 46.18ZM548.397 47.26C548.264 47.26 548.15 47.2133 548.057 47.12C547.977 47.04 547.937 46.9333 547.937 46.8V39.04C547.937 38.9067 547.977 38.7933 548.057 38.7C548.15 38.6067 548.264 38.56 548.397 38.56C548.53 38.56 548.644 38.6067 548.737 38.7C548.83 38.7933 548.877 38.9067 548.877 39.04V39.7C549.184 39.3533 549.55 39.08 549.977 38.88C550.404 38.68 550.864 38.58 551.357 38.58C552.277 38.58 552.997 38.8867 553.517 39.5C554.05 40.1 554.317 40.92 554.317 41.96V46.76C554.317 46.8933 554.27 47.0067 554.177 47.1C554.097 47.1933 553.99 47.24 553.857 47.24C553.724 47.24 553.61 47.1933 553.517 47.1C553.424 47.0067 553.377 46.8933 553.377 46.76V41.96C553.377 41.6533 553.33 41.3133 553.237 40.94C553.144 40.5667 552.95 40.2467 552.657 39.98C552.377 39.7 551.944 39.56 551.357 39.56C550.584 39.56 549.977 39.7733 549.537 40.2C549.097 40.6267 548.877 41.2333 548.877 42.02V46.8C548.877 46.9333 548.83 47.04 548.737 47.12C548.644 47.2133 548.53 47.26 548.397 47.26ZM559.089 47.28C558.956 47.28 558.843 47.2333 558.749 47.14C558.669 47.06 558.629 46.9533 558.629 46.82V39.84H556.329C556.196 39.84 556.083 39.7933 555.989 39.7C555.896 39.5933 555.849 39.4733 555.849 39.34C555.849 39.2067 555.896 39.1 555.989 39.02C556.083 38.9267 556.196 38.88 556.329 38.88H559.089C559.236 38.88 559.356 38.9267 559.449 39.02C559.543 39.1 559.589 39.2067 559.589 39.34V46.82C559.589 46.9533 559.543 47.06 559.449 47.14C559.356 47.2333 559.236 47.28 559.089 47.28ZM558.849 35.26C558.663 35.26 558.509 35.2067 558.389 35.1C558.269 34.9933 558.209 34.8733 558.209 34.74V33.5C558.209 33.3667 558.269 33.2467 558.389 33.14C558.509 33.02 558.663 32.96 558.849 32.96C559.036 32.96 559.183 33.02 559.289 33.14C559.409 33.2467 559.469 33.3667 559.469 33.5V34.74C559.469 34.8733 559.409 34.9933 559.289 35.1C559.183 35.2067 559.036 35.26 558.849 35.26ZM568.434 47.28C568.3 47.28 568.187 47.2333 568.094 47.14C568 47.06 567.954 46.9533 567.954 46.82V46.66L565.494 47.14C564.88 47.26 564.36 47.2933 563.934 47.24C563.507 47.1867 563.147 47.0533 562.854 46.84C562.64 46.6667 562.467 46.4533 562.334 46.2C562.214 45.9333 562.14 45.6333 562.114 45.3C562.034 44.5267 562.2 43.8933 562.614 43.4C563.04 42.8933 563.694 42.5667 564.574 42.42L567.954 41.84V41.28C567.954 41.0133 567.907 40.7333 567.814 40.44C567.734 40.1333 567.56 39.9067 567.294 39.76C567.08 39.6267 566.807 39.56 566.474 39.56C565.647 39.56 564.627 39.9333 563.414 40.68C563.294 40.7467 563.174 40.7667 563.054 40.74C562.934 40.7 562.84 40.6267 562.774 40.52C562.694 40.4 562.667 40.28 562.694 40.16C562.734 40.0267 562.807 39.9333 562.914 39.88C563.7 39.4 564.387 39.0733 564.974 38.9C565.56 38.7133 566.06 38.62 566.474 38.62C566.754 38.62 566.994 38.6533 567.194 38.72C567.407 38.7733 567.587 38.84 567.734 38.92C568.12 39.1333 568.414 39.4467 568.614 39.86C568.814 40.26 568.914 40.7333 568.914 41.28V46.82C568.914 46.9533 568.867 47.06 568.774 47.14C568.694 47.2333 568.58 47.28 568.434 47.28ZM565.334 46.18L567.954 45.7V42.8L564.754 43.34C564.207 43.4333 563.807 43.5867 563.554 43.8C563.314 44.0133 563.167 44.2467 563.114 44.5C563.06 44.74 563.04 44.9733 563.054 45.2C563.094 45.6133 563.22 45.9 563.434 46.06C563.754 46.3 564.387 46.34 565.334 46.18Z" fill="white"/>
<rect x="592" y="7" width="83" height="41" rx="7" stroke="white" stroke-width="2"/>
<path d="M600.296 36.192C600.136 36.144 600.024 36.048 599.96 35.904C599.896 35.744 599.896 35.584 599.96 35.424L605.984 19.176C606.096 18.92 606.288 18.792 606.56 18.792C606.832 18.792 607.024 18.92 607.136 19.176L613.184 35.424C613.248 35.584 613.24 35.744 613.16 35.904C613.096 36.048 612.984 36.144 612.824 36.192C612.68 36.256 612.528 36.248 612.368 36.168C612.224 36.104 612.12 35.992 612.056 35.832L606.56 21.12L603.224 30.024H607.76C607.92 30.024 608.056 30.088 608.168 30.216C608.28 30.328 608.336 30.472 608.336 30.648C608.336 30.808 608.28 30.944 608.168 31.056C608.056 31.168 607.92 31.224 607.76 31.224H602.768L601.064 35.832C601 35.992 600.896 36.104 600.752 36.168C600.608 36.248 600.456 36.256 600.296 36.192ZM616.061 36.336C615.901 36.336 615.765 36.28 615.653 36.168C615.541 36.056 615.485 35.92 615.485 35.76V26.496C615.485 26.336 615.541 26.2 615.653 26.088C615.765 25.976 615.901 25.92 616.061 25.92C616.221 25.92 616.349 25.976 616.445 26.088C616.557 26.2 616.613 26.336 616.613 26.496V30.336H622.037V26.496C622.037 26.336 622.085 26.2 622.181 26.088C622.293 25.976 622.429 25.92 622.589 25.92C622.749 25.92 622.885 25.976 622.997 26.088C623.109 26.2 623.165 26.336 623.165 26.496V35.76C623.165 35.92 623.109 36.056 622.997 36.168C622.885 36.28 622.749 36.336 622.589 36.336C622.429 36.336 622.293 36.28 622.181 36.168C622.085 36.056 622.037 35.92 622.037 35.76V31.464H616.613V35.76C616.613 35.92 616.557 36.056 616.445 36.168C616.349 36.28 616.221 36.336 616.061 36.336ZM633.331 36.336C633.171 36.336 633.035 36.28 632.923 36.168C632.811 36.072 632.755 35.944 632.755 35.784V35.592L629.803 36.168C629.067 36.312 628.443 36.352 627.931 36.288C627.419 36.224 626.987 36.064 626.635 35.808C626.379 35.6 626.171 35.344 626.011 35.04C625.867 34.72 625.779 34.36 625.747 33.96C625.651 33.032 625.851 32.272 626.347 31.68C626.859 31.072 627.643 30.68 628.699 30.504L632.755 29.808V29.136C632.755 28.816 632.699 28.48 632.587 28.128C632.491 27.76 632.283 27.488 631.963 27.312C631.707 27.152 631.379 27.072 630.979 27.072C629.987 27.072 628.763 27.52 627.307 28.416C627.163 28.496 627.019 28.52 626.875 28.488C626.731 28.44 626.619 28.352 626.539 28.224C626.443 28.08 626.411 27.936 626.443 27.792C626.491 27.632 626.579 27.52 626.707 27.456C627.651 26.88 628.475 26.488 629.179 26.28C629.883 26.056 630.483 25.944 630.979 25.944C631.315 25.944 631.603 25.984 631.843 26.064C632.099 26.128 632.315 26.208 632.491 26.304C632.955 26.56 633.307 26.936 633.547 27.432C633.787 27.912 633.907 28.48 633.907 29.136V35.784C633.907 35.944 633.851 36.072 633.739 36.168C633.643 36.28 633.507 36.336 633.331 36.336ZM629.611 35.016L632.755 34.44V30.96L628.915 31.608C628.259 31.72 627.779 31.904 627.475 32.16C627.187 32.416 627.011 32.696 626.947 33C626.883 33.288 626.859 33.568 626.875 33.84C626.923 34.336 627.075 34.68 627.331 34.872C627.715 35.16 628.475 35.208 629.611 35.016ZM645.577 36.312C645.417 36.312 645.281 36.256 645.169 36.144C645.073 36.048 645.025 35.92 645.025 35.76V27.384H641.257L639.433 34.56L639.409 34.608C639.217 35.28 638.889 35.72 638.425 35.928C637.977 36.12 637.425 36.216 636.769 36.216H635.857C635.697 36.216 635.561 36.16 635.449 36.048C635.337 35.952 635.281 35.824 635.281 35.664C635.281 35.504 635.337 35.368 635.449 35.256C635.561 35.144 635.697 35.088 635.857 35.088H636.769C637.329 35.088 637.705 35.032 637.897 34.92C638.105 34.808 638.249 34.584 638.329 34.248L640.297 26.664C640.345 26.392 640.521 26.256 640.825 26.256H645.577C645.737 26.256 645.873 26.312 645.985 26.424C646.097 26.52 646.153 26.648 646.153 26.808V35.76C646.153 35.92 646.097 36.048 645.985 36.144C645.873 36.256 645.737 36.312 645.577 36.312ZM656.095 36.336C655.935 36.336 655.799 36.28 655.687 36.168C655.575 36.072 655.519 35.944 655.519 35.784V28.152L649.423 36.12C649.359 36.2 649.263 36.256 649.135 36.288C649.023 36.336 648.911 36.336 648.799 36.288C648.543 36.208 648.415 36.04 648.415 35.784V26.448C648.415 26.288 648.463 26.152 648.559 26.04C648.671 25.928 648.807 25.872 648.967 25.872C649.143 25.872 649.279 25.928 649.375 26.04C649.487 26.152 649.543 26.288 649.543 26.448V34.08L655.639 26.112C655.703 26 655.791 25.928 655.903 25.896C656.031 25.864 656.151 25.864 656.263 25.896C656.519 25.992 656.647 26.176 656.647 26.448V35.784C656.647 35.944 656.591 36.072 656.479 36.168C656.383 36.28 656.255 36.336 656.095 36.336ZM662.408 36.312C661.688 36.312 661.032 36.2 660.44 35.976C659.848 35.736 659.336 35.408 658.904 34.992C658.792 34.864 658.736 34.728 658.736 34.584C658.736 34.424 658.792 34.288 658.904 34.176C659.016 34.048 659.152 33.992 659.312 34.008C659.472 34.008 659.608 34.072 659.72 34.2C660.36 34.84 661.256 35.16 662.408 35.16C663.464 35.16 664.272 34.952 664.832 34.536C665.264 34.2 665.48 33.792 665.48 33.312C665.48 32.896 665.288 32.512 664.904 32.16C664.52 31.792 663.96 31.608 663.224 31.608H661.568C661.408 31.608 661.272 31.552 661.16 31.44C661.048 31.328 660.992 31.192 660.992 31.032C660.992 30.872 661.048 30.736 661.16 30.624C661.272 30.512 661.408 30.456 661.568 30.456H663.224C663.928 30.456 664.464 30.288 664.832 29.952C665.2 29.6 665.384 29.224 665.384 28.824C665.384 28.392 665.168 28.008 664.736 27.672C664.48 27.464 664.152 27.312 663.752 27.216C663.368 27.12 662.92 27.072 662.408 27.072C661.24 27.072 660.344 27.4 659.72 28.056C659.608 28.168 659.472 28.224 659.312 28.224C659.152 28.224 659.016 28.168 658.904 28.056C658.792 27.944 658.736 27.808 658.736 27.648C658.736 27.488 658.792 27.352 658.904 27.24C659.8 26.344 660.968 25.896 662.408 25.896C663.224 25.896 663.88 26 664.376 26.208C664.888 26.4 665.288 26.632 665.576 26.904C665.864 27.16 666.064 27.392 666.176 27.6C666.64 28.416 666.64 29.248 666.176 30.096C666.064 30.288 665.928 30.464 665.768 30.624C665.624 30.768 665.464 30.904 665.288 31.032C665.704 31.272 666.032 31.6 666.272 32.016C666.752 32.88 666.752 33.736 666.272 34.584C666.144 34.792 665.936 35.032 665.648 35.304C665.36 35.576 664.952 35.808 664.424 36C663.912 36.208 663.24 36.312 662.408 36.312Z" fill="white"/>
</svg>
