<svg width="684" height="55" viewBox="0 0 684 55" fill="none" xmlns="http://www.w3.org/2000/svg">
<rect width="684" height="55" rx="8" fill="#1F1F1F"/>
<rect x="8" y="7.5" width="292" height="40" rx="8" fill="white"/>
<path d="M37 35.5L32.7 31.2M35 25.5C35 29.9183 31.4183 33.5 27 33.5C22.5817 33.5 19 29.9183 19 25.5C19 21.0817 22.5817 17.5 27 17.5C31.4183 17.5 35 21.0817 35 25.5Z" stroke="#1F1F1F" stroke-width="2" stroke-linecap="round" stroke-linejoin="round"/>
<path d="M45.368 36.336C45.208 36.336 45.072 36.28 44.96 36.168C44.864 36.072 44.816 35.944 44.816 35.784V27.408H42.056C41.896 27.408 41.76 27.352 41.648 27.24C41.536 27.112 41.48 26.968 41.48 26.808C41.48 26.648 41.536 26.52 41.648 26.424C41.76 26.312 41.896 26.256 42.056 26.256H45.368C45.544 26.256 45.688 26.312 45.8 26.424C45.912 26.52 45.968 26.648 45.968 26.808V35.784C45.968 35.944 45.912 36.072 45.8 36.168C45.688 36.28 45.544 36.336 45.368 36.336ZM45.08 21.912C44.856 21.912 44.672 21.848 44.528 21.72C44.384 21.592 44.312 21.448 44.312 21.288V19.8C44.312 19.64 44.384 19.496 44.528 19.368C44.672 19.224 44.856 19.152 45.08 19.152C45.304 19.152 45.48 19.224 45.608 19.368C45.752 19.496 45.824 19.64 45.824 19.8V21.288C45.824 21.448 45.752 21.592 45.608 21.72C45.48 21.848 45.304 21.912 45.08 21.912ZM57.0134 36.336C56.8534 36.336 56.7174 36.28 56.6054 36.168C56.5094 36.072 56.4614 35.944 56.4614 35.784V34.776C56.0934 35.24 55.6454 35.616 55.1174 35.904C54.5894 36.176 53.9814 36.312 53.2934 36.312C51.9334 36.312 50.8614 35.848 50.0774 34.92C49.2934 33.976 48.9014 32.704 48.9014 31.104C48.9014 29.488 49.2934 28.216 50.0774 27.288C50.8614 26.36 51.9334 25.896 53.2934 25.896C53.9814 25.896 54.5894 26.04 55.1174 26.328C55.6454 26.616 56.0934 26.992 56.4614 27.456V19.032C56.4614 18.872 56.5094 18.736 56.6054 18.624C56.7174 18.512 56.8534 18.456 57.0134 18.456C57.1734 18.456 57.3094 18.512 57.4214 18.624C57.5334 18.736 57.5894 18.872 57.5894 19.032V35.784C57.5894 35.944 57.5334 36.072 57.4214 36.168C57.3094 36.28 57.1734 36.336 57.0134 36.336ZM53.2934 35.16C54.3174 35.16 55.1014 34.808 55.6454 34.104C56.1894 33.4 56.4614 32.4 56.4614 31.104C56.4614 29.824 56.1894 28.832 55.6454 28.128C55.1014 27.424 54.3174 27.072 53.2934 27.072C52.2694 27.072 51.4694 27.424 50.8934 28.128C50.3174 28.832 50.0294 29.824 50.0294 31.104C50.0294 32.4 50.3174 33.4 50.8934 34.104C51.4694 34.808 52.2694 35.16 53.2934 35.16ZM70.7872 36.312C69.6832 36.312 68.8112 35.952 68.1712 35.232C67.5472 34.512 67.2352 33.52 67.2352 32.256V26.52C67.2352 26.36 67.2832 26.224 67.3792 26.112C67.4912 26 67.6272 25.944 67.7872 25.944C67.9472 25.944 68.0832 26 68.1952 26.112C68.3072 26.224 68.3632 26.36 68.3632 26.52V32.256C68.3632 32.624 68.4192 33.04 68.5312 33.504C68.6432 33.952 68.8672 34.344 69.2032 34.68C69.5552 35.016 70.0832 35.184 70.7872 35.184C71.7312 35.184 72.4592 34.928 72.9712 34.416C73.4992 33.904 73.7632 33.168 73.7632 32.208V26.496C73.7632 26.336 73.8192 26.2 73.9312 26.088C74.0432 25.96 74.1792 25.896 74.3392 25.896C74.4992 25.896 74.6272 25.96 74.7232 26.088C74.8352 26.2 74.8912 26.336 74.8912 26.496V35.76C74.8912 35.92 74.8352 36.048 74.7232 36.144C74.6272 36.256 74.4992 36.312 74.3392 36.312C74.1792 36.312 74.0432 36.256 73.9312 36.144C73.8192 36.048 73.7632 35.92 73.7632 35.76V35.016C73.3952 35.416 72.9552 35.736 72.4432 35.976C71.9472 36.2 71.3952 36.312 70.7872 36.312ZM81.266 36.312C80.354 36.312 79.546 36.112 78.842 35.712C78.154 35.312 77.666 34.776 77.378 34.104C77.314 33.96 77.314 33.816 77.378 33.672C77.442 33.528 77.546 33.424 77.69 33.36C77.834 33.296 77.978 33.296 78.122 33.36C78.266 33.424 78.37 33.528 78.434 33.672C78.642 34.136 78.994 34.504 79.49 34.776C80.002 35.032 80.594 35.16 81.266 35.16C81.954 35.16 82.49 35.096 82.874 34.968C83.258 34.824 83.53 34.656 83.69 34.464C83.866 34.256 83.97 34.056 84.002 33.864C84.05 33.656 84.074 33.496 84.074 33.384C84.074 33.144 84.018 32.912 83.906 32.688C83.794 32.464 83.554 32.256 83.186 32.064C82.818 31.856 82.25 31.672 81.482 31.512C80.938 31.4 80.37 31.24 79.778 31.032C79.202 30.824 78.714 30.536 78.314 30.168C77.914 29.784 77.714 29.288 77.714 28.68C77.73 27.864 78.074 27.2 78.746 26.688C79.418 26.16 80.29 25.896 81.362 25.896C82.162 25.896 82.882 26.072 83.522 26.424C84.178 26.76 84.658 27.224 84.962 27.816C85.042 27.944 85.058 28.088 85.01 28.248C84.962 28.392 84.874 28.504 84.746 28.584C84.586 28.648 84.434 28.664 84.29 28.632C84.146 28.584 84.042 28.488 83.978 28.344C83.802 28.024 83.498 27.736 83.066 27.48C82.634 27.208 82.066 27.072 81.362 27.072C80.962 27.072 80.57 27.128 80.186 27.24C79.802 27.336 79.482 27.504 79.226 27.744C78.986 27.968 78.858 28.288 78.842 28.704C78.842 28.8 78.882 28.952 78.962 29.16C79.042 29.352 79.282 29.56 79.682 29.784C80.082 30.008 80.754 30.216 81.698 30.408C82.258 30.52 82.802 30.688 83.33 30.912C83.874 31.12 84.322 31.424 84.674 31.824C85.042 32.208 85.218 32.728 85.202 33.384C85.202 33.656 85.154 33.96 85.058 34.296C84.962 34.632 84.778 34.952 84.506 35.256C84.234 35.56 83.834 35.808 83.306 36C82.794 36.208 82.114 36.312 81.266 36.312ZM91.8716 36.312C90.5116 36.312 89.4396 35.848 88.6556 34.92C87.8716 33.976 87.4796 32.704 87.4796 31.104C87.4796 29.488 87.8716 28.216 88.6556 27.288C89.4396 26.36 90.5116 25.896 91.8716 25.896C93.0556 25.896 94.0476 26.304 94.8476 27.12C95.6636 27.936 96.1036 29.04 96.1676 30.432V30.504C96.1676 30.648 96.1116 30.776 95.9996 30.888C95.9036 31 95.7676 31.056 95.5916 31.056H88.6316C88.6316 32.288 88.8876 33.28 89.3996 34.032C89.9276 34.784 90.7516 35.16 91.8716 35.16C92.4476 35.16 92.9836 35.04 93.4796 34.8C93.9916 34.544 94.3836 34.216 94.6556 33.816C94.7516 33.688 94.8716 33.608 95.0156 33.576C95.1756 33.544 95.3196 33.576 95.4476 33.672C95.5756 33.752 95.6556 33.872 95.6876 34.032C95.7196 34.192 95.6876 34.336 95.5916 34.464C95.2076 35.024 94.6796 35.472 94.0076 35.808C93.3516 36.144 92.6396 36.312 91.8716 36.312ZM88.7036 29.928H94.9196C94.7596 29.016 94.4076 28.312 93.8636 27.816C93.3356 27.32 92.6716 27.072 91.8716 27.072C91.0076 27.072 90.3036 27.32 89.7596 27.816C89.2316 28.312 88.8796 29.016 88.7036 29.928ZM99.4518 36.312C99.2918 36.312 99.1558 36.256 99.0438 36.144C98.9318 36.032 98.8758 35.904 98.8758 35.76V26.496C98.8758 26.336 98.9318 26.2 99.0438 26.088C99.1558 25.976 99.2918 25.92 99.4518 25.92C99.6118 25.92 99.7398 25.976 99.8358 26.088C99.9478 26.2 100.004 26.336 100.004 26.496V27.096C100.244 26.808 100.58 26.56 101.012 26.352C101.444 26.128 101.86 25.984 102.26 25.92C102.82 25.84 103.388 25.888 103.964 26.064C104.54 26.224 105.052 26.504 105.5 26.904C105.964 27.304 106.284 27.832 106.46 28.488C106.508 28.632 106.492 28.776 106.412 28.92C106.332 29.048 106.22 29.136 106.076 29.184C105.916 29.216 105.764 29.192 105.62 29.112C105.492 29.032 105.412 28.92 105.38 28.776C105.252 28.312 105.028 27.944 104.708 27.672C104.388 27.4 104.02 27.216 103.604 27.12C103.204 27.024 102.812 27.008 102.428 27.072C101.74 27.152 101.164 27.408 100.7 27.84C100.236 28.272 100.004 28.96 100.004 29.904V35.76C100.004 35.904 99.9478 36.032 99.8358 36.144C99.7398 36.256 99.6118 36.312 99.4518 36.312Z" fill="#404040"/>
<path d="M335.5 10.0426C337.304 10.0426 338.981 10.4936 340.53 11.3957C342.028 12.2809 343.219 13.4723 344.104 14.9702C345.006 16.5191 345.457 18.1957 345.457 20C345.457 21.8043 345.006 23.4809 344.104 25.0298C343.219 26.5277 342.028 27.7191 340.53 28.6043C338.981 29.5064 337.304 29.9574 335.5 29.9574C333.696 29.9574 332.019 29.5064 330.47 28.6043C328.972 27.7191 327.781 26.5277 326.896 25.0298C325.994 23.4809 325.543 21.8043 325.543 20C325.543 18.1957 325.994 16.5191 326.896 14.9702C327.781 13.4723 328.972 12.2809 330.47 11.3957C332.019 10.4936 333.696 10.0426 335.5 10.0426ZM335.5 8C333.849 8 332.3 8.31064 330.853 8.93192C329.406 9.55319 328.13 10.417 327.023 11.5234C325.934 12.5787 325.074 13.8426 324.445 15.3149C323.815 16.7872 323.5 18.3489 323.5 20C323.5 21.6511 323.811 23.2 324.432 24.6468C325.053 26.0936 325.917 27.3702 327.023 28.4766C328.079 29.566 329.343 30.4255 330.815 31.0553C332.287 31.6851 333.849 32 335.5 32C337.151 32 338.7 31.6894 340.147 31.0681C341.594 30.4468 342.87 29.583 343.977 28.4766C345.066 27.4213 345.926 26.1574 346.555 24.6851C347.185 23.2128 347.5 21.6511 347.5 20C347.5 18.3489 347.189 16.8 346.568 15.3532C345.947 13.9064 345.083 12.6298 343.977 11.5234C342.921 10.434 341.657 9.57447 340.185 8.94468C338.713 8.31489 337.151 8 335.5 8ZM335.5 13.9234C334.411 13.9234 333.398 14.1957 332.462 14.7404C331.526 15.2851 330.785 16.0255 330.24 16.9617C329.696 17.8979 329.423 18.9106 329.423 20C329.423 21.0894 329.696 22.1021 330.24 23.0383C330.785 23.9745 331.526 24.7149 332.462 25.2596C333.398 25.8043 334.411 26.0766 335.5 26.0766C336.589 26.0766 337.602 25.8043 338.538 25.2596C339.474 24.7149 340.215 23.9745 340.76 23.0383C341.304 22.1021 341.577 21.0894 341.577 20C341.577 18.9106 341.304 17.8979 340.76 16.9617C340.215 16.0255 339.474 15.2851 338.538 14.7404C337.602 14.1957 336.589 13.9234 335.5 13.9234Z" fill="white"/>
<path d="M326.965 47.26C325.832 47.26 324.939 46.8733 324.285 46.1C323.632 45.3133 323.305 44.2533 323.305 42.92C323.305 41.5733 323.632 40.5133 324.285 39.74C324.939 38.9667 325.832 38.58 326.965 38.58C328.085 38.58 328.972 38.9667 329.625 39.74C330.292 40.5133 330.625 41.5733 330.625 42.92C330.625 44.2533 330.292 45.3133 329.625 46.1C328.972 46.8733 328.085 47.26 326.965 47.26ZM326.965 46.3C327.832 46.3 328.499 46.0067 328.965 45.42C329.432 44.8333 329.665 44 329.665 42.92C329.665 41.8533 329.432 41.0267 328.965 40.44C328.499 39.8533 327.832 39.56 326.965 39.56C326.112 39.56 325.445 39.8533 324.965 40.44C324.485 41.0267 324.245 41.8533 324.245 42.92C324.245 44 324.485 44.8333 324.965 45.42C325.445 46.0067 326.112 46.3 326.965 46.3ZM335.744 47.26C334.984 47.26 334.311 47.0933 333.724 46.76C333.151 46.4267 332.744 45.98 332.504 45.42C332.451 45.3 332.451 45.18 332.504 45.06C332.558 44.94 332.644 44.8533 332.764 44.8C332.884 44.7467 333.004 44.7467 333.124 44.8C333.244 44.8533 333.331 44.94 333.384 45.06C333.558 45.4467 333.851 45.7533 334.264 45.98C334.691 46.1933 335.184 46.3 335.744 46.3C336.318 46.3 336.764 46.2467 337.084 46.14C337.404 46.02 337.631 45.88 337.764 45.72C337.911 45.5467 337.998 45.38 338.024 45.22C338.064 45.0467 338.084 44.9133 338.084 44.82C338.084 44.62 338.038 44.4267 337.944 44.24C337.851 44.0533 337.651 43.88 337.344 43.72C337.038 43.5467 336.564 43.3933 335.924 43.26C335.471 43.1667 334.998 43.0333 334.504 42.86C334.024 42.6867 333.618 42.4467 333.284 42.14C332.951 41.82 332.784 41.4067 332.784 40.9C332.798 40.22 333.084 39.6667 333.644 39.24C334.204 38.8 334.931 38.58 335.824 38.58C336.491 38.58 337.091 38.7267 337.624 39.02C338.171 39.3 338.571 39.6867 338.824 40.18C338.891 40.2867 338.904 40.4067 338.864 40.54C338.824 40.66 338.751 40.7533 338.644 40.82C338.511 40.8733 338.384 40.8867 338.264 40.86C338.144 40.82 338.058 40.74 338.004 40.62C337.858 40.3533 337.604 40.1133 337.244 39.9C336.884 39.6733 336.411 39.56 335.824 39.56C335.491 39.56 335.164 39.6067 334.844 39.7C334.524 39.78 334.258 39.92 334.044 40.12C333.844 40.3067 333.738 40.5733 333.724 40.92C333.724 41 333.758 41.1267 333.824 41.3C333.891 41.46 334.091 41.6333 334.424 41.82C334.758 42.0067 335.318 42.18 336.104 42.34C336.571 42.4333 337.024 42.5733 337.464 42.76C337.918 42.9333 338.291 43.1867 338.584 43.52C338.891 43.84 339.038 44.2733 339.024 44.82C339.024 45.0467 338.984 45.3 338.904 45.58C338.824 45.86 338.671 46.1267 338.444 46.38C338.218 46.6333 337.884 46.84 337.444 47C337.018 47.1733 336.451 47.26 335.744 47.26ZM344.082 47.26C343.162 47.26 342.436 46.96 341.902 46.36C341.382 45.76 341.122 44.9333 341.122 43.88V39.1C341.122 38.9667 341.162 38.8533 341.242 38.76C341.336 38.6667 341.449 38.62 341.582 38.62C341.716 38.62 341.829 38.6667 341.922 38.76C342.016 38.8533 342.062 38.9667 342.062 39.1V43.88C342.062 44.1867 342.109 44.5333 342.202 44.92C342.296 45.2933 342.482 45.62 342.762 45.9C343.056 46.18 343.496 46.32 344.082 46.32C344.869 46.32 345.476 46.1067 345.902 45.68C346.342 45.2533 346.562 44.64 346.562 43.84V39.08C346.562 38.9467 346.609 38.8333 346.702 38.74C346.796 38.6333 346.909 38.58 347.042 38.58C347.176 38.58 347.282 38.6333 347.362 38.74C347.456 38.8333 347.502 38.9467 347.502 39.08V46.8C347.502 46.9333 347.456 47.04 347.362 47.12C347.282 47.2133 347.176 47.26 347.042 47.26C346.909 47.26 346.796 47.2133 346.702 47.12C346.609 47.04 346.562 46.9333 346.562 46.8V46.18C346.256 46.5133 345.889 46.78 345.462 46.98C345.049 47.1667 344.589 47.26 344.082 47.26Z" fill="white"/>
<path d="M399 12.3404C397.604 12.3404 396.311 12.6894 395.119 13.3872C393.979 14.0681 393.068 14.9787 392.387 16.1191C391.689 17.3106 391.34 18.6043 391.34 20C391.34 21.3957 391.689 22.6894 392.387 23.8809C393.068 25.0213 393.979 25.9319 395.119 26.6128C396.311 27.3106 397.604 27.6596 399 27.6596C400.396 27.6596 401.689 27.3106 402.881 26.6128C404.021 25.9319 404.932 25.0213 405.613 23.8809C406.311 22.6894 406.66 21.3957 406.66 20C406.66 18.6043 406.311 17.3106 405.613 16.1191C404.932 14.9787 404.021 14.0681 402.881 13.3872C401.689 12.6894 400.396 12.3404 399 12.3404ZM393.894 20C393.894 18.8255 394.255 17.7787 394.979 16.8596C395.702 15.9404 396.617 15.3362 397.723 15.0468V24.9532C396.617 24.6638 395.702 24.0596 394.979 23.1404C394.255 22.2213 393.894 21.1745 393.894 20ZM400.277 24.9532V15.0468C401.383 15.3362 402.298 15.9404 403.021 16.8596C403.745 17.7787 404.106 18.8255 404.106 20C404.106 21.1745 403.745 22.2213 403.021 23.1404C402.298 24.0596 401.383 24.6638 400.277 24.9532ZM399 10.0426C400.804 10.0426 402.481 10.4936 404.03 11.3957C405.528 12.2809 406.719 13.4723 407.604 14.9702C408.506 16.5191 408.957 18.1957 408.957 20C408.957 21.8043 408.506 23.4809 407.604 25.0298C406.719 26.5277 405.528 27.7191 404.03 28.6043C402.481 29.5064 400.804 29.9574 399 29.9574C397.196 29.9574 395.519 29.5064 393.97 28.6043C392.472 27.7191 391.281 26.5277 390.396 25.0298C389.494 23.4809 389.043 21.8043 389.043 20C389.043 18.1957 389.494 16.5191 390.396 14.9702C391.281 13.4723 392.472 12.2809 393.97 11.3957C395.519 10.4936 397.196 10.0426 399 10.0426ZM399 8C397.349 8 395.8 8.31064 394.353 8.93192C392.906 9.55319 391.63 10.417 390.523 11.5234C389.434 12.5787 388.574 13.8426 387.945 15.3149C387.315 16.7872 387 18.3489 387 20C387 21.6511 387.311 23.2 387.932 24.6468C388.553 26.0936 389.417 27.3702 390.523 28.4766C391.579 29.566 392.843 30.4255 394.315 31.0553C395.787 31.6851 397.349 32 399 32C400.651 32 402.2 31.6894 403.647 31.0681C405.094 30.4468 406.37 29.583 407.477 28.4766C408.566 27.4213 409.426 26.1574 410.055 24.6851C410.685 23.2128 411 21.6511 411 20C411 18.3489 410.689 16.8 410.068 15.3532C409.447 13.9064 408.583 12.6298 407.477 11.5234C406.421 10.434 405.157 9.57447 403.685 8.94468C402.213 8.31489 400.651 8 399 8Z" fill="#D65C99"/>
<path d="M383.696 47.16C383.15 47.16 382.716 47.0067 382.396 46.7C382.09 46.38 381.936 45.96 381.936 45.44V39.82H380.016C379.883 39.82 379.77 39.7733 379.676 39.68C379.596 39.5867 379.556 39.4733 379.556 39.34C379.556 39.2067 379.596 39.1 379.676 39.02C379.77 38.9267 379.883 38.88 380.016 38.88H381.936V35.94C381.936 35.8067 381.976 35.6933 382.056 35.6C382.15 35.5067 382.263 35.46 382.396 35.46C382.53 35.46 382.643 35.5067 382.736 35.6C382.83 35.6933 382.876 35.8067 382.876 35.94V38.88H385.356C385.49 38.88 385.603 38.9267 385.696 39.02C385.79 39.1 385.836 39.2067 385.836 39.34C385.836 39.4733 385.79 39.5867 385.696 39.68C385.603 39.7733 385.49 39.82 385.356 39.82H382.876V45.44C382.876 45.4933 382.883 45.5867 382.896 45.72C382.923 45.84 382.996 45.9533 383.116 46.06C383.236 46.1533 383.43 46.2 383.696 46.2H385.256C385.403 46.2 385.523 46.2467 385.616 46.34C385.71 46.4333 385.756 46.5467 385.756 46.68C385.756 46.8133 385.71 46.9267 385.616 47.02C385.523 47.1133 385.403 47.16 385.256 47.16H383.696ZM393.723 47.28C393.589 47.28 393.476 47.2333 393.383 47.14C393.289 47.06 393.243 46.9533 393.243 46.82V46.66L390.783 47.14C390.169 47.26 389.649 47.2933 389.223 47.24C388.796 47.1867 388.436 47.0533 388.143 46.84C387.929 46.6667 387.756 46.4533 387.623 46.2C387.503 45.9333 387.429 45.6333 387.403 45.3C387.323 44.5267 387.489 43.8933 387.903 43.4C388.329 42.8933 388.983 42.5667 389.863 42.42L393.243 41.84V41.28C393.243 41.0133 393.196 40.7333 393.103 40.44C393.023 40.1333 392.849 39.9067 392.583 39.76C392.369 39.6267 392.096 39.56 391.763 39.56C390.936 39.56 389.916 39.9333 388.703 40.68C388.583 40.7467 388.463 40.7667 388.343 40.74C388.223 40.7 388.129 40.6267 388.063 40.52C387.983 40.4 387.956 40.28 387.983 40.16C388.023 40.0267 388.096 39.9333 388.203 39.88C388.989 39.4 389.676 39.0733 390.263 38.9C390.849 38.7133 391.349 38.62 391.763 38.62C392.043 38.62 392.283 38.6533 392.483 38.72C392.696 38.7733 392.876 38.84 393.023 38.92C393.409 39.1333 393.703 39.4467 393.903 39.86C394.103 40.26 394.203 40.7333 394.203 41.28V46.82C394.203 46.9533 394.156 47.06 394.063 47.14C393.983 47.2333 393.869 47.28 393.723 47.28ZM390.623 46.18L393.243 45.7V42.8L390.043 43.34C389.496 43.4333 389.096 43.5867 388.843 43.8C388.603 44.0133 388.456 44.2467 388.403 44.5C388.349 44.74 388.329 44.9733 388.343 45.2C388.383 45.6133 388.509 45.9 388.723 46.06C389.043 46.3 389.676 46.34 390.623 46.18ZM398.988 47.28C398.854 47.28 398.741 47.2333 398.648 47.14C398.568 47.06 398.528 46.9533 398.528 46.82V39.84H396.228C396.094 39.84 395.981 39.7933 395.888 39.7C395.794 39.5933 395.748 39.4733 395.748 39.34C395.748 39.2067 395.794 39.1 395.888 39.02C395.981 38.9267 396.094 38.88 396.228 38.88H398.988C399.134 38.88 399.254 38.9267 399.348 39.02C399.441 39.1 399.488 39.2067 399.488 39.34V46.82C399.488 46.9533 399.441 47.06 399.348 47.14C399.254 47.2333 399.134 47.28 398.988 47.28ZM398.748 35.26C398.561 35.26 398.408 35.2067 398.288 35.1C398.168 34.9933 398.108 34.8733 398.108 34.74V33.5C398.108 33.3667 398.168 33.2467 398.288 33.14C398.408 33.02 398.561 32.96 398.748 32.96C398.934 32.96 399.081 33.02 399.188 33.14C399.308 33.2467 399.368 33.3667 399.368 33.5V34.74C399.368 34.8733 399.308 34.9933 399.188 35.1C399.081 35.2067 398.934 35.26 398.748 35.26ZM402.972 47.26C402.839 47.26 402.726 47.2133 402.632 47.12C402.539 47.04 402.492 46.9333 402.492 46.8V32.84C402.492 32.7067 402.539 32.5933 402.632 32.5C402.726 32.4067 402.839 32.36 402.972 32.36C403.106 32.36 403.219 32.4067 403.312 32.5C403.406 32.5933 403.452 32.7067 403.452 32.84V42.42L407.972 38.7C408.079 38.62 408.192 38.5867 408.312 38.6C408.446 38.6133 408.559 38.6733 408.652 38.78C408.719 38.8733 408.746 38.9867 408.732 39.12C408.732 39.24 408.679 39.3467 408.572 39.44L405.492 41.96L408.892 46.5C408.986 46.5933 409.019 46.7067 408.992 46.84C408.966 46.9733 408.899 47.08 408.792 47.16C408.699 47.24 408.586 47.2667 408.452 47.24C408.319 47.2267 408.212 47.1733 408.132 47.08L404.772 42.56L403.452 43.64V46.8C403.452 46.9333 403.406 47.04 403.312 47.12C403.219 47.2133 403.106 47.26 402.972 47.26ZM414.245 47.26C413.111 47.26 412.218 46.8733 411.565 46.1C410.911 45.3133 410.585 44.2533 410.585 42.92C410.585 41.5733 410.911 40.5133 411.565 39.74C412.218 38.9667 413.111 38.58 414.245 38.58C415.365 38.58 416.251 38.9667 416.905 39.74C417.571 40.5133 417.905 41.5733 417.905 42.92C417.905 44.2533 417.571 45.3133 416.905 46.1C416.251 46.8733 415.365 47.26 414.245 47.26ZM414.245 46.3C415.111 46.3 415.778 46.0067 416.245 45.42C416.711 44.8333 416.945 44 416.945 42.92C416.945 41.8533 416.711 41.0267 416.245 40.44C415.778 39.8533 415.111 39.56 414.245 39.56C413.391 39.56 412.725 39.8533 412.245 40.44C411.765 41.0267 411.525 41.8533 411.525 42.92C411.525 44 411.765 44.8333 412.245 45.42C412.725 46.0067 413.391 46.3 414.245 46.3Z" fill="white"/>
<path d="M468 10.0426C469.804 10.0426 471.481 10.4936 473.03 11.3957C474.528 12.2809 475.719 13.4723 476.604 14.9702C477.506 16.5191 477.957 18.1957 477.957 20C477.957 21.8043 477.506 23.4809 476.604 25.0298C475.719 26.5277 474.528 27.7191 473.03 28.6043C471.481 29.5064 469.804 29.9574 468 29.9574C466.196 29.9574 464.519 29.5064 462.97 28.6043C461.472 27.7191 460.281 26.5277 459.396 25.0298C458.494 23.4809 458.043 21.8043 458.043 20C458.043 18.1957 458.494 16.5191 459.396 14.9702C460.281 13.4723 461.472 12.2809 462.97 11.3957C464.519 10.4936 466.196 10.0426 468 10.0426ZM468 8C466.349 8 464.8 8.31064 463.353 8.93192C461.906 9.55319 460.63 10.417 459.523 11.5234C458.434 12.5787 457.574 13.8426 456.945 15.3149C456.315 16.7872 456 18.3489 456 20C456 21.6511 456.311 23.2 456.932 24.6468C457.553 26.0936 458.417 27.3702 459.523 28.4766C460.579 29.566 461.843 30.4255 463.315 31.0553C464.787 31.6851 466.349 32 468 32C469.651 32 471.2 31.6894 472.647 31.0681C474.094 30.4468 475.37 29.583 476.477 28.4766C477.566 27.4213 478.426 26.1574 479.055 24.6851C479.685 23.2128 480 21.6511 480 20C480 18.3489 479.689 16.8 479.068 15.3532C478.447 13.9064 477.583 12.6298 476.477 11.5234C475.421 10.434 474.157 9.57447 472.685 8.94468C471.213 8.31489 469.651 8 468 8ZM472.902 20C472.902 19.4723 472.715 19.0213 472.34 18.6468C471.966 18.2723 471.515 18.0851 470.987 18.0851C470.46 18.0851 470.009 18.2723 469.634 18.6468C469.26 19.0213 469.072 19.4723 469.072 20C469.072 20.5277 469.26 20.9787 469.634 21.3532C470.009 21.7277 470.46 21.9149 470.987 21.9149C471.515 21.9149 471.966 21.7277 472.34 21.3532C472.715 20.9787 472.902 20.5277 472.902 20ZM468.46 16.1191C468.46 15.5915 468.272 15.1404 467.898 14.766C467.523 14.3915 467.072 14.2043 466.545 14.2043C466.017 14.2043 465.566 14.3915 465.191 14.766C464.817 15.1404 464.63 15.5915 464.63 16.1191C464.63 16.6468 464.817 17.0979 465.191 17.4723C465.566 17.8468 466.017 18.034 466.545 18.034C467.072 18.034 467.523 17.8468 467.898 17.4723C468.272 17.0979 468.46 16.6468 468.46 16.1191ZM468.46 23.8809C468.46 23.3532 468.272 22.9021 467.898 22.5277C467.523 22.1532 467.072 21.966 466.545 21.966C466.017 21.966 465.566 22.1532 465.191 22.5277C464.817 22.9021 464.63 23.3532 464.63 23.8809C464.63 24.4085 464.817 24.8596 465.191 25.234C465.566 25.6085 466.021 25.7957 466.557 25.7957C467.094 25.7957 467.545 25.6085 467.911 25.234C468.277 24.8596 468.46 24.4085 468.46 23.8809Z" fill="#D65C99"/>
<path d="M452.073 47.26C450.939 47.26 450.046 46.8733 449.393 46.1C448.739 45.3133 448.413 44.2533 448.413 42.92C448.413 41.5733 448.739 40.5133 449.393 39.74C450.046 38.9667 450.939 38.58 452.073 38.58C453.179 38.58 454.059 38.96 454.713 39.72C454.806 39.8133 454.846 39.9267 454.833 40.06C454.833 40.1933 454.779 40.3067 454.673 40.4C454.579 40.48 454.466 40.52 454.333 40.52C454.199 40.5067 454.086 40.4533 453.993 40.36C453.539 39.8267 452.899 39.56 452.073 39.56C451.219 39.56 450.553 39.8533 450.073 40.44C449.593 41.0267 449.353 41.8533 449.353 42.92C449.353 44 449.593 44.8333 450.073 45.42C450.553 46.0067 451.219 46.3 452.073 46.3C452.913 46.3 453.553 46.04 453.993 45.52C454.086 45.4133 454.199 45.3533 454.333 45.34C454.466 45.3267 454.579 45.3667 454.673 45.46C454.779 45.54 454.833 45.6467 454.833 45.78C454.846 45.9133 454.806 46.0333 454.713 46.14C454.046 46.8867 453.166 47.26 452.073 47.26ZM462.82 47.28C462.687 47.28 462.574 47.2333 462.48 47.14C462.387 47.06 462.34 46.9533 462.34 46.82V46.66L459.88 47.14C459.267 47.26 458.747 47.2933 458.32 47.24C457.894 47.1867 457.534 47.0533 457.24 46.84C457.027 46.6667 456.854 46.4533 456.72 46.2C456.6 45.9333 456.527 45.6333 456.5 45.3C456.42 44.5267 456.587 43.8933 457 43.4C457.427 42.8933 458.08 42.5667 458.96 42.42L462.34 41.84V41.28C462.34 41.0133 462.294 40.7333 462.2 40.44C462.12 40.1333 461.947 39.9067 461.68 39.76C461.467 39.6267 461.194 39.56 460.86 39.56C460.034 39.56 459.014 39.9333 457.8 40.68C457.68 40.7467 457.56 40.7667 457.44 40.74C457.32 40.7 457.227 40.6267 457.16 40.52C457.08 40.4 457.054 40.28 457.08 40.16C457.12 40.0267 457.194 39.9333 457.3 39.88C458.087 39.4 458.774 39.0733 459.36 38.9C459.947 38.7133 460.447 38.62 460.86 38.62C461.14 38.62 461.38 38.6533 461.58 38.72C461.794 38.7733 461.974 38.84 462.12 38.92C462.507 39.1333 462.8 39.4467 463 39.86C463.2 40.26 463.3 40.7333 463.3 41.28V46.82C463.3 46.9533 463.254 47.06 463.16 47.14C463.08 47.2333 462.967 47.28 462.82 47.28ZM459.72 46.18L462.34 45.7V42.8L459.14 43.34C458.594 43.4333 458.194 43.5867 457.94 43.8C457.7 44.0133 457.554 44.2467 457.5 44.5C457.447 44.74 457.427 44.9733 457.44 45.2C457.48 45.6133 457.607 45.9 457.82 46.06C458.14 46.3 458.774 46.34 459.72 46.18ZM468.985 47.16C468.439 47.16 468.005 47.0067 467.685 46.7C467.379 46.38 467.225 45.96 467.225 45.44V39.82H465.305C465.172 39.82 465.059 39.7733 464.965 39.68C464.885 39.5867 464.845 39.4733 464.845 39.34C464.845 39.2067 464.885 39.1 464.965 39.02C465.059 38.9267 465.172 38.88 465.305 38.88H467.225V35.94C467.225 35.8067 467.265 35.6933 467.345 35.6C467.439 35.5067 467.552 35.46 467.685 35.46C467.819 35.46 467.932 35.5067 468.025 35.6C468.119 35.6933 468.165 35.8067 468.165 35.94V38.88H470.645C470.779 38.88 470.892 38.9267 470.985 39.02C471.079 39.1 471.125 39.2067 471.125 39.34C471.125 39.4733 471.079 39.5867 470.985 39.68C470.892 39.7733 470.779 39.82 470.645 39.82H468.165V45.44C468.165 45.4933 468.172 45.5867 468.185 45.72C468.212 45.84 468.285 45.9533 468.405 46.06C468.525 46.1533 468.719 46.2 468.985 46.2H470.545C470.692 46.2 470.812 46.2467 470.905 46.34C470.999 46.4333 471.045 46.5467 471.045 46.68C471.045 46.8133 470.999 46.9267 470.905 47.02C470.812 47.1133 470.692 47.16 470.545 47.16H468.985ZM476.077 47.26C474.943 47.26 474.05 46.8733 473.397 46.1C472.743 45.3133 472.417 44.2533 472.417 42.92C472.417 41.5733 472.743 40.5133 473.397 39.74C474.05 38.9667 474.943 38.58 476.077 38.58C477.183 38.58 478.063 38.96 478.717 39.72C478.81 39.8133 478.85 39.9267 478.837 40.06C478.837 40.1933 478.783 40.3067 478.677 40.4C478.583 40.48 478.47 40.52 478.337 40.52C478.203 40.5067 478.09 40.4533 477.997 40.36C477.543 39.8267 476.903 39.56 476.077 39.56C475.223 39.56 474.557 39.8533 474.077 40.44C473.597 41.0267 473.357 41.8533 473.357 42.92C473.357 44 473.597 44.8333 474.077 45.42C474.557 46.0067 475.223 46.3 476.077 46.3C476.917 46.3 477.557 46.04 477.997 45.52C478.09 45.4133 478.203 45.3533 478.337 45.34C478.47 45.3267 478.583 45.3667 478.677 45.46C478.783 45.54 478.837 45.6467 478.837 45.78C478.85 45.9133 478.81 46.0333 478.717 46.14C478.05 46.8867 477.17 47.26 476.077 47.26ZM481.464 47.28C481.331 47.28 481.218 47.2333 481.124 47.14C481.031 47.06 480.984 46.9533 480.984 46.82V32.84C480.984 32.7067 481.031 32.5933 481.124 32.5C481.218 32.4067 481.331 32.36 481.464 32.36C481.598 32.36 481.711 32.4067 481.804 32.5C481.898 32.5933 481.944 32.7067 481.944 32.84V39.68C482.251 39.3333 482.618 39.0667 483.044 38.88C483.471 38.68 483.931 38.58 484.424 38.58C485.344 38.58 486.064 38.8867 486.584 39.5C487.118 40.1 487.384 40.9133 487.384 41.94V46.8C487.384 46.9333 487.338 47.04 487.244 47.12C487.164 47.2133 487.058 47.26 486.924 47.26C486.791 47.26 486.678 47.2133 486.584 47.12C486.491 47.04 486.444 46.9333 486.444 46.8V41.94C486.444 41.6333 486.398 41.2933 486.304 40.92C486.211 40.5467 486.018 40.2267 485.724 39.96C485.444 39.68 485.011 39.54 484.424 39.54C483.731 39.54 483.144 39.7533 482.664 40.18C482.184 40.6067 481.944 41.2133 481.944 42V46.82C481.944 46.9533 481.898 47.06 481.804 47.14C481.711 47.2333 481.598 47.28 481.464 47.28Z" fill="white"/>
<path d="M540.5 27.7106C540.143 27.7106 539.84 27.5872 539.594 27.3404C539.347 27.0936 539.223 26.7915 539.223 26.434V13.566C539.223 13.2085 539.347 12.9064 539.594 12.6596C539.84 12.4128 540.143 12.2894 540.5 12.2894C540.857 12.2894 541.16 12.4128 541.406 12.6596C541.653 12.9064 541.777 13.2085 541.777 13.566V26.434C541.777 26.7915 541.653 27.0936 541.406 27.3404C541.16 27.5872 540.857 27.7106 540.5 27.7106ZM537.691 22.8085V17.1915C537.691 16.834 537.568 16.5319 537.321 16.2851C537.074 16.0383 536.772 15.9149 536.415 15.9149C536.057 15.9149 535.755 16.0383 535.509 16.2851C535.262 16.5319 535.138 16.834 535.138 17.1915V22.8085C535.138 23.166 535.262 23.4681 535.509 23.7149C535.755 23.9617 536.057 24.0851 536.415 24.0851C536.772 24.0851 537.074 23.9617 537.321 23.7149C537.568 23.4681 537.691 23.166 537.691 22.8085ZM545.862 22.8085V17.1915C545.862 16.834 545.738 16.5319 545.491 16.2851C545.245 16.0383 544.943 15.9149 544.585 15.9149C544.228 15.9149 543.926 16.0383 543.679 16.2851C543.432 16.5319 543.309 16.834 543.309 17.1915V22.8085C543.309 23.166 543.432 23.4681 543.679 23.7149C543.926 23.9617 544.228 24.0851 544.585 24.0851C544.943 24.0851 545.245 23.9617 545.491 23.7149C545.738 23.4681 545.862 23.166 545.862 22.8085ZM540.5 10.0426C538.696 10.0426 537.019 10.4936 535.47 11.3957C533.972 12.2809 532.781 13.4723 531.896 14.9702C530.994 16.5191 530.543 18.1957 530.543 20C530.543 21.8043 530.994 23.4809 531.896 25.0298C532.781 26.5277 533.972 27.7191 535.47 28.6043C537.019 29.5064 538.696 29.9574 540.5 29.9574C542.304 29.9574 543.981 29.5064 545.53 28.6043C547.028 27.7191 548.219 26.5277 549.104 25.0298C550.006 23.4809 550.457 21.8043 550.457 20C550.457 18.1957 550.006 16.5191 549.104 14.9702C548.219 13.4723 547.028 12.2809 545.53 11.3957C543.981 10.4936 542.304 10.0426 540.5 10.0426ZM540.5 8C542.151 8 543.7 8.31064 545.147 8.93192C546.594 9.55319 547.87 10.417 548.977 11.5234C550.066 12.5787 550.926 13.8426 551.555 15.3149C552.185 16.7872 552.5 18.3489 552.5 20C552.5 21.6511 552.189 23.2 551.568 24.6468C550.947 26.0936 550.083 27.3702 548.977 28.4766C547.921 29.566 546.657 30.4255 545.185 31.0553C543.713 31.6851 542.151 32 540.5 32C538.849 32 537.3 31.6894 535.853 31.0681C534.406 30.4468 533.13 29.583 532.023 28.4766C530.934 27.4213 530.074 26.1574 529.445 24.6851C528.815 23.2128 528.5 21.6511 528.5 20C528.5 18.3489 528.811 16.8 529.432 15.3532C530.053 13.9064 530.917 12.6298 532.023 11.5234C533.079 10.434 534.343 9.57447 535.815 8.94468C537.287 8.31489 538.849 8 540.5 8Z" fill="#D65C99"/>
<path d="M519.541 47.28C519.408 47.28 519.295 47.2333 519.201 47.14C519.121 47.0467 519.081 46.94 519.081 46.82V39.08C519.081 38.96 519.121 38.8533 519.201 38.76C519.295 38.6533 519.408 38.6 519.541 38.6C519.675 38.6 519.788 38.6533 519.881 38.76C519.975 38.8533 520.021 38.96 520.021 39.08V39.62C520.315 39.3133 520.655 39.0667 521.041 38.88C521.428 38.6933 521.841 38.6 522.281 38.6C522.828 38.6 523.308 38.7333 523.721 39C524.135 39.2533 524.455 39.6133 524.681 40.08C524.961 39.64 525.328 39.2867 525.781 39.02C526.235 38.74 526.741 38.6 527.301 38.6C528.155 38.6 528.828 38.9067 529.321 39.52C529.828 40.1333 530.081 40.9533 530.081 41.98V46.8C530.081 46.92 530.035 47.0267 529.941 47.12C529.861 47.2133 529.755 47.26 529.621 47.26C529.488 47.26 529.375 47.2133 529.281 47.12C529.188 47.0267 529.141 46.92 529.141 46.8V41.98C529.141 41.7933 529.121 41.5667 529.081 41.3C529.041 41.0333 528.961 40.7667 528.841 40.5C528.721 40.2333 528.535 40.0133 528.281 39.84C528.041 39.6533 527.715 39.56 527.301 39.56C526.648 39.56 526.115 39.7933 525.701 40.26C525.288 40.7133 525.081 41.2867 525.081 41.98V46.8C525.081 46.92 525.035 47.0267 524.941 47.12C524.861 47.2133 524.755 47.26 524.621 47.26C524.488 47.26 524.368 47.2133 524.261 47.12C524.168 47.0267 524.121 46.92 524.121 46.8V42.02C524.121 41.5933 524.055 41.1933 523.921 40.82C523.801 40.4467 523.608 40.1467 523.341 39.92C523.075 39.68 522.721 39.56 522.281 39.56C521.681 39.56 521.155 39.7467 520.701 40.12C520.248 40.48 520.021 40.9533 520.021 41.54V46.82C520.021 46.94 519.975 47.0467 519.881 47.14C519.788 47.2333 519.675 47.28 519.541 47.28ZM538.563 47.28C538.429 47.28 538.316 47.2333 538.223 47.14C538.129 47.06 538.083 46.9533 538.083 46.82V46.66L535.623 47.14C535.009 47.26 534.489 47.2933 534.063 47.24C533.636 47.1867 533.276 47.0533 532.983 46.84C532.769 46.6667 532.596 46.4533 532.463 46.2C532.343 45.9333 532.269 45.6333 532.243 45.3C532.163 44.5267 532.329 43.8933 532.743 43.4C533.169 42.8933 533.823 42.5667 534.703 42.42L538.083 41.84V41.28C538.083 41.0133 538.036 40.7333 537.943 40.44C537.863 40.1333 537.689 39.9067 537.423 39.76C537.209 39.6267 536.936 39.56 536.603 39.56C535.776 39.56 534.756 39.9333 533.543 40.68C533.423 40.7467 533.303 40.7667 533.183 40.74C533.063 40.7 532.969 40.6267 532.903 40.52C532.823 40.4 532.796 40.28 532.823 40.16C532.863 40.0267 532.936 39.9333 533.043 39.88C533.829 39.4 534.516 39.0733 535.103 38.9C535.689 38.7133 536.189 38.62 536.603 38.62C536.883 38.62 537.123 38.6533 537.323 38.72C537.536 38.7733 537.716 38.84 537.863 38.92C538.249 39.1333 538.543 39.4467 538.743 39.86C538.943 40.26 539.043 40.7333 539.043 41.28V46.82C539.043 46.9533 538.996 47.06 538.903 47.14C538.823 47.2333 538.709 47.28 538.563 47.28ZM535.463 46.18L538.083 45.7V42.8L534.883 43.34C534.336 43.4333 533.936 43.5867 533.683 43.8C533.443 44.0133 533.296 44.2467 533.243 44.5C533.189 44.74 533.169 44.9733 533.183 45.2C533.223 45.6133 533.349 45.9 533.563 46.06C533.883 46.3 534.516 46.34 535.463 46.18ZM541.397 47.26C541.264 47.26 541.15 47.2133 541.057 47.12C540.977 47.04 540.937 46.9333 540.937 46.8V39.04C540.937 38.9067 540.977 38.7933 541.057 38.7C541.15 38.6067 541.264 38.56 541.397 38.56C541.53 38.56 541.644 38.6067 541.737 38.7C541.83 38.7933 541.877 38.9067 541.877 39.04V39.7C542.184 39.3533 542.55 39.08 542.977 38.88C543.404 38.68 543.864 38.58 544.357 38.58C545.277 38.58 545.997 38.8867 546.517 39.5C547.05 40.1 547.317 40.92 547.317 41.96V46.76C547.317 46.8933 547.27 47.0067 547.177 47.1C547.097 47.1933 546.99 47.24 546.857 47.24C546.724 47.24 546.61 47.1933 546.517 47.1C546.424 47.0067 546.377 46.8933 546.377 46.76V41.96C546.377 41.6533 546.33 41.3133 546.237 40.94C546.144 40.5667 545.95 40.2467 545.657 39.98C545.377 39.7 544.944 39.56 544.357 39.56C543.584 39.56 542.977 39.7733 542.537 40.2C542.097 40.6267 541.877 41.2333 541.877 42.02V46.8C541.877 46.9333 541.83 47.04 541.737 47.12C541.644 47.2133 541.53 47.26 541.397 47.26ZM552.089 47.28C551.956 47.28 551.843 47.2333 551.749 47.14C551.669 47.06 551.629 46.9533 551.629 46.82V39.84H549.329C549.196 39.84 549.083 39.7933 548.989 39.7C548.896 39.5933 548.849 39.4733 548.849 39.34C548.849 39.2067 548.896 39.1 548.989 39.02C549.083 38.9267 549.196 38.88 549.329 38.88H552.089C552.236 38.88 552.356 38.9267 552.449 39.02C552.543 39.1 552.589 39.2067 552.589 39.34V46.82C552.589 46.9533 552.543 47.06 552.449 47.14C552.356 47.2333 552.236 47.28 552.089 47.28ZM551.849 35.26C551.663 35.26 551.509 35.2067 551.389 35.1C551.269 34.9933 551.209 34.8733 551.209 34.74V33.5C551.209 33.3667 551.269 33.2467 551.389 33.14C551.509 33.02 551.663 32.96 551.849 32.96C552.036 32.96 552.183 33.02 552.289 33.14C552.409 33.2467 552.469 33.3667 552.469 33.5V34.74C552.469 34.8733 552.409 34.9933 552.289 35.1C552.183 35.2067 552.036 35.26 551.849 35.26ZM561.434 47.28C561.3 47.28 561.187 47.2333 561.094 47.14C561 47.06 560.954 46.9533 560.954 46.82V46.66L558.494 47.14C557.88 47.26 557.36 47.2933 556.934 47.24C556.507 47.1867 556.147 47.0533 555.854 46.84C555.64 46.6667 555.467 46.4533 555.334 46.2C555.214 45.9333 555.14 45.6333 555.114 45.3C555.034 44.5267 555.2 43.8933 555.614 43.4C556.04 42.8933 556.694 42.5667 557.574 42.42L560.954 41.84V41.28C560.954 41.0133 560.907 40.7333 560.814 40.44C560.734 40.1333 560.56 39.9067 560.294 39.76C560.08 39.6267 559.807 39.56 559.474 39.56C558.647 39.56 557.627 39.9333 556.414 40.68C556.294 40.7467 556.174 40.7667 556.054 40.74C555.934 40.7 555.84 40.6267 555.774 40.52C555.694 40.4 555.667 40.28 555.694 40.16C555.734 40.0267 555.807 39.9333 555.914 39.88C556.7 39.4 557.387 39.0733 557.974 38.9C558.56 38.7133 559.06 38.62 559.474 38.62C559.754 38.62 559.994 38.6533 560.194 38.72C560.407 38.7733 560.587 38.84 560.734 38.92C561.12 39.1333 561.414 39.4467 561.614 39.86C561.814 40.26 561.914 40.7333 561.914 41.28V46.82C561.914 46.9533 561.867 47.06 561.774 47.14C561.694 47.2333 561.58 47.28 561.434 47.28ZM558.334 46.18L560.954 45.7V42.8L557.754 43.34C557.207 43.4333 556.807 43.5867 556.554 43.8C556.314 44.0133 556.167 44.2467 556.114 44.5C556.06 44.74 556.04 44.9733 556.054 45.2C556.094 45.6133 556.22 45.9 556.434 46.06C556.754 46.3 557.387 46.34 558.334 46.18Z" fill="white"/>
<rect x="585" y="7" width="90" height="41" rx="7" stroke="white" stroke-width="2"/>
<path d="M593.296 36.192C593.136 36.144 593.024 36.048 592.96 35.904C592.896 35.744 592.896 35.584 592.96 35.424L598.984 19.176C599.096 18.92 599.288 18.792 599.56 18.792C599.832 18.792 600.024 18.92 600.136 19.176L606.184 35.424C606.248 35.584 606.24 35.744 606.16 35.904C606.096 36.048 605.984 36.144 605.824 36.192C605.68 36.256 605.528 36.248 605.368 36.168C605.224 36.104 605.12 35.992 605.056 35.832L599.56 21.12L596.224 30.024H600.76C600.92 30.024 601.056 30.088 601.168 30.216C601.28 30.328 601.336 30.472 601.336 30.648C601.336 30.808 601.28 30.944 601.168 31.056C601.056 31.168 600.92 31.224 600.76 31.224H595.768L594.064 35.832C594 35.992 593.896 36.104 593.752 36.168C593.608 36.248 593.456 36.256 593.296 36.192ZM609.037 36.312C608.877 36.312 608.741 36.256 608.629 36.144C608.533 36.048 608.485 35.92 608.485 35.76V26.448C608.485 26.288 608.533 26.152 608.629 26.04C608.741 25.928 608.877 25.872 609.037 25.872C609.197 25.872 609.333 25.928 609.445 26.04C609.557 26.152 609.613 26.288 609.613 26.448V27.24C609.981 26.824 610.421 26.496 610.933 26.256C611.445 26.016 611.997 25.896 612.589 25.896C613.693 25.896 614.557 26.264 615.181 27C615.821 27.72 616.141 28.704 616.141 29.952V35.712C616.141 35.872 616.085 36.008 615.973 36.12C615.877 36.232 615.749 36.288 615.589 36.288C615.429 36.288 615.293 36.232 615.181 36.12C615.069 36.008 615.013 35.872 615.013 35.712V29.952C615.013 29.584 614.957 29.176 614.845 28.728C614.733 28.28 614.501 27.896 614.149 27.576C613.813 27.24 613.293 27.072 612.589 27.072C611.661 27.072 610.933 27.328 610.405 27.84C609.877 28.352 609.613 29.08 609.613 30.024V35.76C609.613 35.92 609.557 36.048 609.445 36.144C609.333 36.256 609.197 36.312 609.037 36.312ZM626.308 36.336C626.148 36.336 626.012 36.28 625.9 36.168C625.788 36.072 625.732 35.944 625.732 35.784V35.592L622.78 36.168C622.044 36.312 621.42 36.352 620.908 36.288C620.396 36.224 619.964 36.064 619.612 35.808C619.356 35.6 619.148 35.344 618.988 35.04C618.844 34.72 618.756 34.36 618.724 33.96C618.628 33.032 618.828 32.272 619.324 31.68C619.836 31.072 620.62 30.68 621.676 30.504L625.732 29.808V29.136C625.732 28.816 625.676 28.48 625.564 28.128C625.468 27.76 625.26 27.488 624.94 27.312C624.684 27.152 624.356 27.072 623.956 27.072C622.964 27.072 621.74 27.52 620.284 28.416C620.14 28.496 619.996 28.52 619.852 28.488C619.708 28.44 619.596 28.352 619.516 28.224C619.42 28.08 619.388 27.936 619.42 27.792C619.468 27.632 619.556 27.52 619.684 27.456C620.628 26.88 621.452 26.488 622.156 26.28C622.86 26.056 623.46 25.944 623.956 25.944C624.292 25.944 624.58 25.984 624.82 26.064C625.076 26.128 625.292 26.208 625.468 26.304C625.932 26.56 626.284 26.936 626.524 27.432C626.764 27.912 626.884 28.48 626.884 29.136V35.784C626.884 35.944 626.828 36.072 626.716 36.168C626.62 36.28 626.484 36.336 626.308 36.336ZM622.588 35.016L625.732 34.44V30.96L621.892 31.608C621.236 31.72 620.756 31.904 620.452 32.16C620.164 32.416 619.988 32.696 619.924 33C619.86 33.288 619.836 33.568 619.852 33.84C619.9 34.336 620.052 34.68 620.308 34.872C620.692 35.16 621.452 35.208 622.588 35.016ZM632.194 36.192C631.554 36.192 631.034 36.008 630.634 35.64C630.25 35.256 630.058 34.752 630.058 34.128V19.032C630.058 18.872 630.114 18.736 630.226 18.624C630.338 18.512 630.474 18.456 630.634 18.456C630.794 18.456 630.93 18.512 631.042 18.624C631.154 18.736 631.21 18.872 631.21 19.032V34.128C631.21 34.192 631.218 34.304 631.234 34.464C631.266 34.608 631.354 34.744 631.498 34.872C631.642 34.984 631.874 35.04 632.194 35.04H634.09C634.25 35.04 634.386 35.096 634.498 35.208C634.61 35.32 634.666 35.456 634.666 35.616C634.666 35.776 634.61 35.912 634.498 36.024C634.386 36.136 634.25 36.192 634.09 36.192H632.194ZM638.388 41.328C638.228 41.264 638.116 41.16 638.052 41.016C637.988 40.872 637.988 40.728 638.052 40.584L639.828 36.072L636.06 26.688C635.996 26.544 635.996 26.4 636.06 26.256C636.124 26.112 636.228 26.008 636.372 25.944C636.516 25.896 636.66 25.904 636.804 25.968C636.948 26.016 637.052 26.12 637.116 26.28L640.452 34.536L643.716 26.28C643.78 26.12 643.876 26.016 644.004 25.968C644.148 25.904 644.3 25.896 644.46 25.944C644.604 26.008 644.708 26.112 644.772 26.256C644.836 26.4 644.836 26.544 644.772 26.688L639.108 41.016C639.044 41.16 638.94 41.256 638.796 41.304C638.668 41.368 638.532 41.376 638.388 41.328ZM647.399 36C647.175 36 646.999 35.896 646.871 35.688C646.855 35.64 646.839 35.6 646.823 35.568C646.823 35.52 646.823 35.472 646.823 35.424C646.823 35.296 646.871 35.176 646.967 35.064C648.247 33.496 649.295 32.216 650.111 31.224C650.943 30.216 651.583 29.432 652.031 28.872C652.495 28.312 652.815 27.928 652.991 27.72C653.167 27.496 653.255 27.384 653.255 27.384H647.831C647.671 27.384 647.535 27.328 647.423 27.216C647.311 27.104 647.255 26.968 647.255 26.808C647.255 26.648 647.311 26.52 647.423 26.424C647.535 26.312 647.671 26.256 647.831 26.256H654.455C654.711 26.256 654.887 26.36 654.983 26.568C655.015 26.632 655.031 26.712 655.031 26.808C655.031 26.968 654.991 27.088 654.911 27.168C653.631 28.72 652.575 30 651.743 31.008C650.927 32 650.287 32.784 649.823 33.36C649.375 33.92 649.055 34.312 648.863 34.536C648.687 34.76 648.599 34.872 648.599 34.872H654.239C654.415 34.872 654.551 34.928 654.647 35.04C654.759 35.136 654.815 35.264 654.815 35.424C654.815 35.584 654.759 35.72 654.647 35.832C654.551 35.944 654.415 36 654.239 36H647.399ZM661.434 36.312C660.074 36.312 659.002 35.848 658.218 34.92C657.434 33.976 657.042 32.704 657.042 31.104C657.042 29.488 657.434 28.216 658.218 27.288C659.002 26.36 660.074 25.896 661.434 25.896C662.618 25.896 663.61 26.304 664.41 27.12C665.226 27.936 665.666 29.04 665.73 30.432V30.504C665.73 30.648 665.674 30.776 665.562 30.888C665.466 31 665.33 31.056 665.154 31.056H658.194C658.194 32.288 658.45 33.28 658.962 34.032C659.49 34.784 660.314 35.16 661.434 35.16C662.01 35.16 662.546 35.04 663.042 34.8C663.554 34.544 663.946 34.216 664.218 33.816C664.314 33.688 664.434 33.608 664.578 33.576C664.738 33.544 664.882 33.576 665.01 33.672C665.138 33.752 665.218 33.872 665.25 34.032C665.282 34.192 665.25 34.336 665.154 34.464C664.77 35.024 664.242 35.472 663.57 35.808C662.914 36.144 662.202 36.312 661.434 36.312ZM658.266 29.928H664.482C664.322 29.016 663.97 28.312 663.426 27.816C662.898 27.32 662.234 27.072 661.434 27.072C660.57 27.072 659.866 27.32 659.322 27.816C658.794 28.312 658.442 29.016 658.266 29.928Z" fill="white"/>
</svg>
