<svg width="157" height="47" viewBox="0 0 157 47" fill="none" xmlns="http://www.w3.org/2000/svg">
<rect x="0.839966" y="0.228027" width="155.52" height="46.368" rx="16.5888" fill="#1F1F1F"/>
<path fill-rule="evenodd" clip-rule="evenodd" d="M22.6594 26.5735L22.6585 18.29L30.5022 22.446L22.6594 26.5735ZM39.8817 16.8546C39.8817 16.8546 39.5977 14.8231 38.7277 13.9285C37.6237 12.7538 36.3863 12.7483 35.8193 12.6801C31.7568 12.3816 25.6632 12.3816 25.6632 12.3816H25.6505C25.6505 12.3816 19.5568 12.3816 15.4944 12.6801C14.9264 12.7483 13.6899 12.7538 12.585 13.9285C11.715 14.8231 11.4319 16.8546 11.4319 16.8546C11.4319 16.8546 11.1416 19.2408 11.1416 21.6261V23.863C11.1416 26.2492 11.4319 28.6345 11.4319 28.6345C11.4319 28.6345 11.715 30.666 12.585 31.5606C13.6899 32.7353 15.1405 32.6984 15.7865 32.8209C18.1089 33.0476 25.6568 33.1176 25.6568 33.1176C25.6568 33.1176 31.7568 33.1084 35.8193 32.8099C36.3863 32.7408 37.6237 32.7353 38.7277 31.5606C39.5977 30.666 39.8817 28.6345 39.8817 28.6345C39.8817 28.6345 40.172 26.2492 40.172 23.863V21.6261C40.172 19.2408 39.8817 16.8546 39.8817 16.8546Z" fill="#CE1312"/>
<path d="M22.6594 26.5735L22.6585 18.29L30.5022 22.446L22.6594 26.5735Z" fill="white"/>
<path d="M53.5425 32.6452C53.3767 32.6452 53.2356 32.5871 53.1195 32.471C53.0034 32.3549 52.9453 32.2139 52.9453 32.048V12.7138C52.9453 12.5479 53.0034 12.4152 53.1195 12.3156C53.2356 12.1995 53.3767 12.1414 53.5425 12.1414C53.7084 12.1414 53.8411 12.1995 53.9407 12.3156C54.0568 12.4152 54.1149 12.5479 54.1149 12.7138V32.048C54.1149 32.2139 54.0568 32.3549 53.9407 32.471C53.8411 32.5871 53.7084 32.6452 53.5425 32.6452Z" fill="white"/>
<path d="M74.9576 31.625C74.7917 31.625 74.6424 31.5669 74.5097 31.4508C74.3936 31.3347 74.3355 31.1937 74.3355 31.0278V23.8366L68.488 14.4805C68.3884 14.3312 68.3553 14.1736 68.3884 14.0077C68.4382 13.8418 68.5294 13.7091 68.6622 13.6096C68.828 13.5266 68.9939 13.5017 69.1598 13.5349C69.3257 13.5681 69.4501 13.6593 69.5331 13.8086L74.9576 22.468L80.3075 13.8086C80.407 13.6593 80.5397 13.5681 80.7056 13.5349C80.8715 13.4851 81.0291 13.51 81.1784 13.6096C81.3111 13.7091 81.3941 13.8418 81.4272 14.0077C81.477 14.1736 81.4521 14.3312 81.3526 14.4805L75.5797 23.8366V31.0278C75.5797 31.1937 75.5216 31.3347 75.4055 31.4508C75.2894 31.5669 75.1401 31.625 74.9576 31.625ZM85.537 31.625C84.127 31.625 83.0155 31.1439 82.2027 30.1818C81.3898 29.203 80.9834 27.8842 80.9834 26.2253C80.9834 24.5499 81.3898 23.2311 82.2027 22.2689C83.0155 21.3068 84.127 20.8257 85.537 20.8257C86.9305 20.8257 88.0337 21.3068 88.8465 22.2689C89.676 23.2311 90.0907 24.5499 90.0907 26.2253C90.0907 27.8842 89.676 29.203 88.8465 30.1818C88.0337 31.1439 86.9305 31.625 85.537 31.625ZM85.537 30.4306C86.6153 30.4306 87.4448 30.0656 88.0254 29.3357C88.606 28.6058 88.8963 27.569 88.8963 26.2253C88.8963 24.8982 88.606 23.8697 88.0254 23.1398C87.4448 22.4099 86.6153 22.045 85.537 22.045C84.4754 22.045 83.6459 22.4099 83.0487 23.1398C82.4515 23.8697 82.1529 24.8982 82.1529 26.2253C82.1529 27.569 82.4515 28.6058 83.0487 29.3357C83.6459 30.0656 84.4754 30.4306 85.537 30.4306ZM96.3603 31.625C95.2156 31.625 94.3116 31.2517 93.648 30.5053C93.001 29.7588 92.6776 28.7302 92.6776 27.4197V21.4726C92.6776 21.3068 92.7273 21.1658 92.8269 21.0496C92.943 20.9335 93.084 20.8755 93.2499 20.8755C93.4158 20.8755 93.5568 20.9335 93.6729 21.0496C93.789 21.1658 93.8471 21.3068 93.8471 21.4726V27.4197C93.8471 27.8013 93.9051 28.2326 94.0212 28.7137C94.1374 29.1781 94.3696 29.5846 94.718 29.9329C95.0829 30.2813 95.6304 30.4555 96.3603 30.4555C97.339 30.4555 98.0938 30.1901 98.6246 29.6592C99.1721 29.1284 99.4458 28.3653 99.4458 27.37V21.4478C99.4458 21.2819 99.5038 21.1409 99.62 21.0248C99.7361 20.892 99.8771 20.8257 100.043 20.8257C100.209 20.8257 100.342 20.892 100.441 21.0248C100.557 21.1409 100.615 21.2819 100.615 21.4478V31.0527C100.615 31.2186 100.557 31.3513 100.441 31.4508C100.342 31.5669 100.209 31.625 100.043 31.625C99.8771 31.625 99.7361 31.5669 99.62 31.4508C99.5038 31.3513 99.4458 31.2186 99.4458 31.0527V30.2813C99.0642 30.696 98.6081 31.0278 98.0772 31.2766C97.563 31.5089 96.9906 31.625 96.3603 31.625ZM107.673 31.5006C106.992 31.5006 106.453 31.3098 106.055 30.9283C105.674 30.5301 105.483 30.0076 105.483 29.3606V22.3684H103.094C102.928 22.3684 102.787 22.3104 102.671 22.1943C102.572 22.0781 102.522 21.9371 102.522 21.7712C102.522 21.6054 102.572 21.4726 102.671 21.3731C102.787 21.257 102.928 21.1989 103.094 21.1989H105.483V17.5411C105.483 17.3752 105.533 17.2342 105.632 17.1181C105.748 17.002 105.889 16.9439 106.055 16.9439C106.221 16.9439 106.362 17.002 106.478 17.1181C106.594 17.2342 106.652 17.3752 106.652 17.5411V21.1989H109.738C109.904 21.1989 110.045 21.257 110.161 21.3731C110.277 21.4726 110.335 21.6054 110.335 21.7712C110.335 21.9371 110.277 22.0781 110.161 22.1943C110.045 22.3104 109.904 22.3684 109.738 22.3684H106.652V29.3606C106.652 29.427 106.661 29.5431 106.677 29.709C106.71 29.8583 106.802 29.9993 106.951 30.132C107.1 30.2481 107.341 30.3062 107.673 30.3062H109.613C109.796 30.3062 109.945 30.3642 110.061 30.4804C110.178 30.5965 110.236 30.7375 110.236 30.9034C110.236 31.0693 110.178 31.2103 110.061 31.3264C109.945 31.4425 109.796 31.5006 109.613 31.5006H107.673ZM116.359 31.625C115.215 31.625 114.31 31.2517 113.647 30.5053C113 29.7588 112.676 28.7302 112.676 27.4197V21.4726C112.676 21.3068 112.726 21.1658 112.826 21.0496C112.942 20.9335 113.083 20.8755 113.249 20.8755C113.415 20.8755 113.556 20.9335 113.672 21.0496C113.788 21.1658 113.846 21.3068 113.846 21.4726V27.4197C113.846 27.8013 113.904 28.2326 114.02 28.7137C114.136 29.1781 114.369 29.5846 114.717 29.9329C115.082 30.2813 115.629 30.4555 116.359 30.4555C117.338 30.4555 118.093 30.1901 118.624 29.6592C119.171 29.1284 119.445 28.3653 119.445 27.37V21.4478C119.445 21.2819 119.503 21.1409 119.619 21.0248C119.735 20.892 119.876 20.8257 120.042 20.8257C120.208 20.8257 120.34 20.892 120.44 21.0248C120.556 21.1409 120.614 21.2819 120.614 21.4478V31.0527C120.614 31.2186 120.556 31.3513 120.44 31.4508C120.34 31.5669 120.208 31.625 120.042 31.625C119.876 31.625 119.735 31.5669 119.619 31.4508C119.503 31.3513 119.445 31.2186 119.445 31.0527V30.2813C119.063 30.696 118.607 31.0278 118.076 31.2766C117.562 31.5089 116.99 31.625 116.359 31.625ZM124.486 31.6499C124.321 31.6499 124.18 31.5918 124.063 31.4757C123.947 31.3762 123.889 31.2435 123.889 31.0776V13.6344C123.889 13.4686 123.947 13.3275 124.063 13.2114C124.18 13.0787 124.321 13.0124 124.486 13.0124C124.652 13.0124 124.793 13.0787 124.909 13.2114C125.026 13.3275 125.084 13.4686 125.084 13.6344V22.4431C125.465 21.962 125.93 21.5722 126.477 21.2736C127.025 20.975 127.663 20.8257 128.393 20.8257C129.787 20.8257 130.89 21.3068 131.703 22.2689C132.515 23.2311 132.922 24.5499 132.922 26.2253C132.922 27.8842 132.515 29.203 131.703 30.1818C130.89 31.1439 129.787 31.625 128.393 31.625C127.663 31.625 127.025 31.484 126.477 31.202C125.93 30.9034 125.465 30.5135 125.084 30.0325V31.0776C125.084 31.2435 125.026 31.3762 124.909 31.4757C124.793 31.5918 124.652 31.6499 124.486 31.6499ZM128.393 30.4306C129.455 30.4306 130.276 30.0656 130.857 29.3357C131.437 28.6058 131.727 27.569 131.727 26.2253C131.727 24.8982 131.437 23.8697 130.857 23.1398C130.276 22.4099 129.455 22.045 128.393 22.045C127.315 22.045 126.494 22.4099 125.93 23.1398C125.382 23.8697 125.109 24.8982 125.109 26.2253C125.109 27.569 125.382 28.6058 125.93 29.3357C126.494 30.0656 127.315 30.4306 128.393 30.4306ZM139.58 31.625C138.17 31.625 137.059 31.1439 136.246 30.1818C135.433 29.203 135.027 27.8842 135.027 26.2253C135.027 24.5499 135.433 23.2311 136.246 22.2689C137.059 21.3068 138.17 20.8257 139.58 20.8257C140.808 20.8257 141.836 21.2487 142.666 22.0947C143.512 22.9408 143.968 24.0854 144.034 25.5286V25.6033C144.034 25.7526 143.976 25.8853 143.86 26.0014C143.761 26.1175 143.62 26.1756 143.437 26.1756H136.221C136.221 27.4529 136.486 28.4814 137.017 29.2611C137.565 30.0408 138.419 30.4306 139.58 30.4306C140.177 30.4306 140.733 30.3062 141.247 30.0574C141.778 29.7919 142.185 29.4519 142.467 29.0371C142.566 28.9044 142.691 28.8215 142.84 28.7883C143.006 28.7551 143.155 28.7883 143.288 28.8878C143.421 28.9708 143.504 29.0952 143.537 29.2611C143.57 29.427 143.537 29.5763 143.437 29.709C143.039 30.2896 142.492 30.7541 141.795 31.1024C141.115 31.4508 140.377 31.625 139.58 31.625ZM136.296 25.0061H142.74C142.575 24.0605 142.21 23.3306 141.646 22.8163C141.098 22.3021 140.41 22.045 139.58 22.045C138.684 22.045 137.955 22.3021 137.391 22.8163C136.843 23.3306 136.478 24.0605 136.296 25.0061Z" fill="white"/>
</svg>
