<svg width="256" height="256" viewBox="0 0 256 256" fill="none" xmlns="http://www.w3.org/2000/svg">
<path d="M256 128C256 198.692 198.692 256 128 256C57.3076 256 0 198.692 0 128C0 57.3076 57.3076 0 128 0C198.692 0 256 57.3076 256 128ZM25.6 128C25.6 184.554 71.446 230.4 128 230.4C184.554 230.4 230.4 184.554 230.4 128C230.4 71.446 184.554 25.6 128 25.6C71.446 25.6 25.6 71.446 25.6 128Z" fill="white"/>
<path d="M98.184 239.275C96.3544 246.103 100.403 253.189 107.38 254.328C125.237 257.243 143.559 256.346 161.129 251.639C182.832 245.823 202.622 234.397 218.51 218.51C234.397 202.622 245.823 182.832 251.639 161.129C256.346 143.559 257.243 125.237 254.328 107.38C253.189 100.403 246.103 96.3544 239.275 98.184C232.446 100.014 228.479 107.032 229.443 114.036C231.299 127.516 230.455 141.276 226.911 154.503C222.259 171.866 213.118 187.698 200.408 200.408C187.698 213.118 171.866 222.259 154.503 226.911C141.276 230.455 127.516 231.299 114.036 229.443C107.032 228.479 100.014 232.446 98.184 239.275Z" fill="#7E47EB"/>
</svg>
